<svg width="100" height="100" viewBox="0 0 100 100" fill="none" xmlns="http://www.w3.org/2000/svg">
<path d="M97.4734 47.0919L81.488 22.0334C80.9645 21.2147 80.1375 20.6372 79.1887 20.4275C78.2399 20.2177 77.2466 20.3929 76.4267 20.9146L68.5789 25.9209C67.8499 26.3876 67.3096 27.097 67.0532 27.9238C66.7969 28.7505 66.8412 29.6412 67.1783 30.4384C66.7326 30.4538 66.2658 30.4486 65.7779 30.4228C63.9996 30.3252 62.9009 29.7877 61.7378 29.2179C60.4593 28.5916 59.1375 27.9429 57.1498 28.0716C55.3158 28.1888 53.1029 28.9789 50.249 30.5375C48.0339 27.4925 44.2464 28.4314 40.8681 29.2701C38.1445 29.9464 35.3408 30.6419 32.7544 29.9041C33.1391 29.0971 33.2158 28.1773 32.9702 27.3178C32.7245 26.4582 32.1733 25.7179 31.4203 25.2361L23.5724 20.2304C22.7525 19.7089 21.7592 19.5338 20.8104 19.7435C19.8616 19.9533 19.0347 20.5308 18.5111 21.3494L2.52574 46.408C2.00407 47.2278 1.82891 48.2211 2.03868 49.17C2.24845 50.1188 2.82602 50.9457 3.64468 51.4693L11.4925 56.4755C12.3123 56.9976 13.3057 57.1731 14.2547 56.9633C15.2036 56.7536 16.0306 56.1758 16.5539 55.3568L17.7197 53.5293C17.8948 53.7167 18.081 53.8935 18.2773 54.0587C16.6037 55.9025 15.0351 58.0134 15.2732 60.7793C15.4378 62.6916 16.1238 64.1033 17.3117 64.9748C18.4181 65.7867 19.9228 66.0845 21.7978 65.8656C22.0195 67.5166 22.6363 68.8269 23.639 69.7718C24.7841 70.8519 26.406 71.424 28.4691 71.4785C28.8324 72.9043 29.5398 73.9882 30.5785 74.7076C31.9402 75.6496 33.7589 75.9185 36.1154 75.5205C37.0763 78.0123 39.0435 79.315 41.8691 79.3148C41.9668 79.3148 42.0677 79.3132 42.1681 79.3099C43.7009 79.2617 45.239 78.0703 46.3611 76.9402C49.6091 79.2017 52.4142 80.3386 54.7369 80.3386C55.4156 80.344 56.0904 80.2357 56.7334 80.0183C58.4537 79.4252 59.7466 78.0603 60.5884 75.9535C62.5857 76.6269 64.3189 76.6091 65.7511 75.8968C67.2953 75.1296 68.4322 73.5816 69.1394 71.2875C71.0597 71.516 72.6197 71.1847 73.79 70.2982C74.9058 69.4525 75.6275 68.1322 75.9425 66.3636C78.6449 66.7003 80.9109 66.0535 82.6933 64.4337C82.7636 64.3699 82.826 64.2978 82.8789 64.2189C84.1574 62.3105 84.6185 60.4564 84.2496 58.7082C83.9996 57.5236 83.3666 56.4076 82.3613 55.3683C82.5105 55.2577 82.6529 55.1381 82.7875 55.0101L83.4443 56.0398C83.9676 56.8588 84.7945 57.4366 85.7435 57.6463C86.6925 57.8561 87.6859 57.6807 88.5056 57.1586L96.3535 52.1521C97.172 51.6288 97.7496 50.8021 97.9595 49.8535C98.1695 48.905 97.9947 47.9118 97.4734 47.0919ZM14.5779 54.0959C14.3891 54.391 14.0909 54.5992 13.7488 54.6748C13.4066 54.7504 13.0485 54.6873 12.7529 54.4992L4.90504 49.4921C4.60991 49.3034 4.40171 49.0053 4.3261 48.6632C4.25049 48.3212 4.31364 47.9631 4.50172 47.6675L20.4871 22.6089C20.6758 22.3137 20.974 22.1054 21.3161 22.0297C21.6583 21.9541 22.0165 22.0174 22.3121 22.2056L30.1599 27.2121C30.4539 27.4017 30.6612 27.6998 30.7367 28.0414C30.8123 28.3831 30.7499 28.7407 30.5632 29.0367L14.5779 54.0959ZM18.6978 63.0847C18.0789 62.6306 17.7123 61.7873 17.6082 60.5777C17.4191 58.3785 19.0863 56.6068 20.8503 54.7312C21.1927 54.3673 21.5464 53.9914 21.8781 53.6179C22.2294 53.2126 22.686 52.9124 23.1974 52.7504C23.7087 52.5884 24.2549 52.5709 24.7755 52.7C25.975 52.9734 26.9289 53.8666 27.375 55.1117C26.9121 56.5703 25.6517 59.3718 22.2425 63.4259C20.6232 63.7363 19.431 63.6224 18.6978 63.0847ZM24.065 64.9011C27.8312 60.4134 29.1847 57.2386 29.6662 55.6375C31.0509 54.1634 33.4808 53.5179 35.213 54.2011C36.4609 54.6931 37.1101 55.8166 37.1033 57.4597L28.8181 69.1376C27.2074 69.1418 26.0056 68.7836 25.246 68.0664C24.5337 67.3943 24.1402 66.3281 24.065 64.9023V64.9011ZM31.9128 72.78C31.2793 72.3416 30.8707 71.6193 30.6689 70.581L38.9502 58.9093C40.9484 58.5593 42.4691 58.8671 43.2589 59.7916C44.0818 60.7544 44.1197 62.4609 43.3722 64.4898C41.3455 66.9497 39.7391 68.9005 38.5529 70.3421C37.4332 71.7023 36.6447 72.6603 36.2771 73.1045C34.2945 73.5212 32.8275 73.4128 31.9136 72.7802L31.9128 72.78ZM42.0953 76.9671C40.0357 77.033 38.8228 76.2445 38.2183 74.4335C38.5832 73.9921 39.232 73.2031 40.3615 71.8316L44.8322 66.4019C46.7005 66.9388 47.7845 67.73 48.0527 68.7617C48.2709 69.6015 47.6355 71.5951 45.9984 73.7826C44.4582 75.8416 42.8691 76.9429 42.0953 76.9673V76.9671ZM81.013 62.7929C79.5902 64.0234 77.7466 64.3832 75.3902 63.8955L60.2793 53.6828C60.0217 53.5121 59.7072 53.45 59.4041 53.51C59.101 53.5701 58.8339 53.7474 58.6609 54.0034C58.4879 54.2594 58.423 54.5734 58.4803 54.877C58.5376 55.1806 58.7125 55.4493 58.9669 55.6246L73.6935 65.5775C73.5158 66.9423 73.0738 67.9017 72.375 68.4304C71.5888 69.0265 70.3632 69.1673 68.7343 68.8523L57.0679 61.2402C56.8076 61.0704 56.4905 61.011 56.1863 61.075C55.8822 61.139 55.6159 61.3212 55.4461 61.5815C55.2763 61.8418 55.2169 62.1589 55.2809 62.4631C55.3449 62.7672 55.5271 63.0335 55.7875 63.2033L66.9375 70.4783C66.4296 72.1996 65.6826 73.315 64.7093 73.7986C63.6742 74.3121 62.2433 74.173 60.4535 73.3884L53.5752 68.498C53.4497 68.4088 53.3079 68.3452 53.1579 68.3109C53.0079 68.2765 52.8526 68.272 52.7009 68.2976C52.5491 68.3233 52.4039 68.3786 52.2735 68.4603C52.1431 68.5421 52.0301 68.6487 51.941 68.7742C51.8518 68.8996 51.7882 69.0414 51.7538 69.1914C51.7195 69.3414 51.715 69.4967 51.7406 69.6485C51.7663 69.8002 51.8215 69.9454 51.9033 70.0758C51.9851 70.2062 52.0917 70.3192 52.2171 70.4084L58.4941 74.8705C57.9115 76.44 57.0652 77.4257 55.9705 77.8033C54.1308 78.4369 51.3517 77.5207 47.9 75.1537C48.6691 74.1199 50.9859 70.7252 50.3218 68.1726C49.8576 66.388 48.373 65.0818 45.9029 64.2791C46.5763 61.8261 46.2826 59.7222 45.0406 58.2691C43.8267 56.8482 41.8505 56.2314 39.3908 56.4834C39.1261 54.3556 37.9619 52.7652 36.0744 52.021C33.8761 51.1542 31.0509 51.649 29.0041 53.1177C28.5969 52.4441 28.0598 51.8582 27.4239 51.3943C26.7881 50.9303 26.0663 50.5976 25.3005 50.4154C24.3705 50.1935 23.3976 50.2295 22.4864 50.5194C21.5753 50.8093 20.7605 51.3422 20.1296 52.0607C20.0486 52.1515 19.9632 52.2433 19.8798 52.3341C19.564 52.0805 19.2809 51.7886 19.0371 51.4652L31.4832 31.955C34.8595 33.1759 38.3363 32.3138 41.4345 31.5449C44.9461 30.673 47.0216 30.2558 48.2777 31.8214C41.5619 37.0074 37.3105 43.3238 37.8564 47.4169C38.0474 48.8488 38.8439 49.9046 40.0996 50.3896C43.3201 51.6349 49.1533 48.8941 56.5253 42.6748C56.6345 42.5826 57.749 41.8619 63.1244 44.9361C66.6472 46.9509 70.7054 49.8421 73.9662 52.1654C75.9158 53.5541 77.599 54.7537 78.758 55.4748C80.6089 56.6466 81.6861 57.8978 81.9589 59.1914C82.1871 60.2816 81.8783 61.4605 81.013 62.7929ZM80.457 53.789C80.3097 53.6885 80.1584 53.589 80.0029 53.4904C78.8982 52.8029 77.2421 51.623 75.3246 50.2568C65.672 43.38 58.0478 38.3232 55.0121 40.8837C47.3572 47.3418 42.6488 48.8617 40.9425 48.2035C40.6388 48.0863 40.2785 47.8552 40.1779 47.107C39.9945 45.7316 40.8138 43.5328 42.3693 41.2228C43.6847 39.2697 46.1562 36.2794 50.4689 33.1003C56.8378 29.4285 58.4619 30.2232 60.7064 31.323C61.9669 31.9404 63.3959 32.64 65.6498 32.7632C66.6147 32.8212 67.5829 32.7936 68.5429 32.6808L81.4709 52.9462C81.2261 53.3234 80.8725 53.6173 80.457 53.789ZM95.0941 50.1769L87.2457 55.1837C86.9497 55.3706 86.592 55.433 86.2503 55.3575C85.9085 55.282 85.6104 55.0747 85.4207 54.7806L69.4353 29.722C69.2472 29.4264 69.184 29.0683 69.2596 28.7261C69.3352 28.384 69.5434 28.0858 69.8386 27.897L77.6871 22.8906C77.983 22.7038 78.3408 22.6414 78.6825 22.7169C79.0243 22.7924 79.3224 22.9998 79.5121 23.2939L95.4974 48.3525C95.6854 48.6481 95.7486 49.0062 95.673 49.3483C95.5974 49.6903 95.3892 49.9885 95.0941 50.1773V50.1769ZM25.1539 28.6392L24.8947 29.0402C24.7259 29.3012 24.4604 29.4845 24.1565 29.5497C23.8526 29.615 23.5352 29.5568 23.2742 29.388C23.0132 29.2193 22.8299 28.9537 22.7646 28.6498C22.6994 28.3459 22.7576 28.0286 22.9263 27.7675L23.1855 27.3666C23.3543 27.1055 23.6198 26.9222 23.9237 26.857C24.2276 26.7918 24.545 26.8499 24.806 27.0187C25.067 27.1875 25.2503 27.453 25.3156 27.7569C25.3808 28.0608 25.3226 28.3782 25.1539 28.6392ZM76.655 27.7675C76.7386 27.8968 76.7959 28.0412 76.8236 28.1926C76.8514 28.344 76.849 28.4994 76.8167 28.6499C76.7844 28.8004 76.7228 28.943 76.6353 29.0697C76.5479 29.1964 76.4363 29.3046 76.3071 29.3881C76.1778 29.4717 76.0334 29.529 75.882 29.5567C75.7306 29.5845 75.5752 29.5821 75.4247 29.5498C75.2742 29.5175 75.1316 29.4559 75.0049 29.3684C74.8783 29.281 74.77 29.1694 74.6865 29.0402L74.4273 28.6392C74.2585 28.3782 74.2004 28.0608 74.2656 27.7569C74.3308 27.453 74.5141 27.1875 74.7752 27.0187C75.0362 26.8499 75.3535 26.7918 75.6574 26.857C75.9613 26.9222 76.2269 27.1055 76.3957 27.3666L76.655 27.7675ZM20.9671 35.2564L13.8255 46.5429C13.6594 46.8056 13.3957 46.9915 13.0924 47.0597C12.7892 47.1279 12.4713 47.0729 12.2086 46.9067C11.946 46.7405 11.7601 46.4768 11.6919 46.1736C11.6237 45.8704 11.6787 45.5525 11.8449 45.2898L18.9865 34.0039C19.1527 33.7412 19.4164 33.5553 19.7196 33.4871C20.0228 33.4189 20.3407 33.4739 20.6034 33.6401C20.866 33.8063 21.0519 34.07 21.1201 34.3732C21.1884 34.6764 21.1333 34.9943 20.9671 35.257V35.2564ZM86.523 43.2912C86.6053 43.4212 86.6611 43.5662 86.6874 43.7178C86.7136 43.8695 86.7098 44.0248 86.676 44.175C86.6422 44.3251 86.5792 44.4671 86.4905 44.5929C86.4019 44.7187 86.2893 44.8258 86.1592 44.9081C86.0292 44.9903 85.8842 45.0462 85.7326 45.0725C85.5809 45.0987 85.4256 45.0948 85.2755 45.061C85.1253 45.0273 84.9833 44.9642 84.8575 44.8756C84.7317 44.7869 84.6246 44.6743 84.5423 44.5443L77.4 33.257C77.2338 32.9943 77.1787 32.6764 77.247 32.3732C77.3152 32.07 77.5011 31.8063 77.7637 31.6401C78.0264 31.4739 78.3443 31.4189 78.6475 31.4871C78.9507 31.5553 79.2144 31.7412 79.3806 32.0039L86.523 43.2912Z" fill="#0066B2"/>
</svg>
