<svg width="100" height="100" viewBox="0 0 100 100" fill="none" xmlns="http://www.w3.org/2000/svg">
<path d="M76.9221 66.0938C74.2346 65.6094 71.844 64.7656 69.7658 63.5781C67.344 62.25 65.3596 60.5 63.8596 58.375C63.0315 57.2031 62.3908 55.9531 61.8596 54.6406C65.5002 51.25 68.3752 46.4844 70.1408 41.2656C73.7815 40.4688 76.6408 37.4375 77.094 33.6719C77.3752 31.3125 76.6877 28.9844 75.2658 27.1719C75.2658 27.0625 75.2815 26.9531 75.2815 26.8438C75.2502 12.0313 63.9221 0 50.0002 0C36.0627 0 24.7346 12.0312 24.7346 26.8281V27.1719C23.2909 29.0061 22.6335 31.338 22.9065 33.6562C23.3596 37.4219 26.2033 40.4688 29.844 41.2656C31.6096 46.5 34.5002 51.2813 38.1565 54.6719C37.7502 55.6563 37.3127 56.5938 36.8127 57.4219C35.4221 59.625 33.7346 61.3594 31.6721 62.7344C29.3283 64.3281 26.4377 65.4531 23.1877 66.0781C22.469 66.1719 5.42209 68.6875 6.50022 98.5312C6.53147 99.3594 7.20334 100 8.01584 100H91.969C92.7815 100 93.4533 99.3594 93.4846 98.5469C94.6096 68.6875 77.5627 66.1719 76.9221 66.0938ZM64.0783 63.1719C65.219 64.2344 66.4846 65.1719 67.8752 65.9844L60.4377 80.4688L52.3127 73.4062L64.0783 63.1719ZM74.0627 33.2969C73.844 35.1719 72.719 36.75 71.1565 37.6562C71.7658 35.0312 72.094 32.3594 72.094 29.75C72.094 29.2031 72.0627 28.6875 72.0315 28.1719C73.5158 29.4219 74.2971 31.3438 74.0627 33.2969ZM50.0002 3.03125C61.5627 3.03125 71.0783 12.5469 72.1252 24.6406C71.9533 24.5625 71.7658 24.5156 71.594 24.4375C69.594 13.6562 61.4221 6.73438 50.0002 6.73438C38.5783 6.73438 30.4065 13.6719 28.3908 24.4531C28.219 24.5156 28.0471 24.5625 27.8752 24.6406C28.9065 12.5469 38.4377 3.03125 50.0002 3.03125ZM67.4065 20.9219C52.3283 27.2656 44.594 18.3281 44.2658 17.9375C44.1176 17.7638 43.933 17.6248 43.7251 17.5303C43.5172 17.4358 43.2911 17.3881 43.0627 17.3906C42.594 17.4062 42.1565 17.625 41.8908 18C39.1721 21.7031 35.9377 23.6562 31.5783 24.2031C33.594 15.375 40.4846 9.75 50.0158 9.75C58.2815 9.76562 64.5783 14.0156 67.4065 20.9219ZM25.9377 33.2969C25.7033 31.3438 26.4846 29.4219 27.9846 28.1875C27.9533 28.7031 27.9221 29.2344 27.9221 29.7656C27.9221 32.375 28.2502 35.0469 28.844 37.6719C27.2815 36.75 26.1565 35.1719 25.9377 33.2969ZM30.9377 29.7656C30.9377 28.9219 30.9846 28.1094 31.0627 27.2969C36.094 26.8594 40.0315 24.8906 43.2346 21.1562C46.344 23.8438 54.9377 29.3125 68.344 23.7969C68.7971 25.6562 69.0627 27.6406 69.0627 29.7656C69.0627 32.8906 68.5315 36.1562 67.5783 39.2812C66.6252 40.75 64.8752 42.4375 61.8283 42.7188C60.9533 42.7969 60.0471 42.75 59.094 42.5938C58.9846 41.625 58.4065 40.7812 57.5315 40.4688L53.6721 39.0469C53.0315 38.8125 52.3127 38.875 51.7033 39.2344C51.0158 39.6406 50.5471 40.375 50.4221 41.2188L50.0627 43.5781C49.9377 44.3906 50.1565 45.1875 50.6565 45.7656C51.094 46.2812 51.7033 46.5781 52.3596 46.5938L56.4065 46.6875H56.4533C57.2658 46.6875 58.0002 46.2344 58.469 45.5469C59.3127 45.6875 60.1252 45.7812 60.9221 45.7812C61.2971 45.7812 61.6721 45.7656 62.0471 45.7344C63.2346 45.625 64.2815 45.3594 65.2033 44.9844C61.7658 51.6562 56.2971 56.7031 49.969 56.7031C46.7033 56.7031 43.6565 55.3438 41.0002 53.125L40.969 53.0938C34.9533 48.0156 30.9377 38.4062 30.9377 29.7656ZM56.0315 43.4375V43.4531L56.0002 43.625L53.1408 43.5625L53.3596 42.1406L56.0783 43.1406L56.0315 43.4375ZM50.0002 59.7344C53.4065 59.7344 56.5627 58.5781 59.3908 56.625C59.9533 57.8438 60.6096 59.0156 61.3908 60.125C61.594 60.4062 61.8283 60.6719 62.0471 60.9375L50.0315 71.3906L38.0315 60.9531C38.5158 60.3437 38.9846 59.7031 39.4221 59.0156C39.8752 58.2656 40.2815 57.4688 40.6565 56.6406C43.4533 58.5781 46.6096 59.7344 50.0002 59.7344ZM35.9533 63.1719L47.719 73.4062L39.594 80.4688L32.1565 65.9844C32.5627 65.75 33.0002 65.5156 33.3752 65.25C34.2815 64.6406 35.1408 63.9219 35.9533 63.1719ZM9.50022 96.9688C9.07834 71.4062 22.9846 69.1719 23.6721 69.0781C25.7658 68.6719 27.6721 68.0781 29.4377 67.3438L37.7658 83.5781C37.8938 83.825 38.0864 84.0324 38.3231 84.1782C38.5597 84.3241 38.8316 84.4029 39.1096 84.4062C39.469 84.4062 39.8283 84.2812 40.1096 84.0312L50.0158 75.4219L59.9221 84.0312C60.2033 84.2656 60.5471 84.4062 60.9221 84.4062C61.0158 84.4062 61.1096 84.3906 61.2033 84.375C61.6565 84.2812 62.0471 84 62.2658 83.5781L70.594 67.3594C72.3752 68.125 74.3127 68.7031 76.4533 69.0938C76.594 69.1094 90.9377 71.25 90.5002 96.9688H9.50022Z" fill="#0066B2"/>
</svg>
