<svg width="100" height="100" viewBox="0 0 100 100" fill="none" xmlns="http://www.w3.org/2000/svg">
<path d="M51.0313 13.0156C43.6917 13.0156 36.517 15.1921 30.4144 19.2697C24.3118 23.3473 19.5554 29.143 16.7467 35.9239C13.938 42.7047 13.2031 50.1662 14.6349 57.3647C16.0668 64.5632 19.6011 71.1754 24.791 76.3653C29.9808 81.5551 36.5931 85.0895 43.7916 86.5213C50.9901 87.9532 58.4516 87.2183 65.2324 84.4096C72.0133 81.6009 77.809 76.8445 81.8866 70.7419C85.9642 64.6393 88.1406 57.4645 88.1406 50.125C88.1324 40.2855 84.22 30.8514 77.2624 23.8938C70.3049 16.9363 60.8707 13.0239 51.0313 13.0156ZM51.0313 84.8906C44.1553 84.8906 37.4337 82.8517 31.7165 79.0316C25.9993 75.2115 21.5433 69.7818 18.912 63.4292C16.2807 57.0766 15.5922 50.0864 16.9337 43.3426C18.2751 36.5987 21.5862 30.4041 26.4483 25.542C31.3103 20.6799 37.505 17.3688 44.2488 16.0274C50.9927 14.6859 57.9829 15.3744 64.3355 18.0058C70.6881 20.6371 76.1177 25.0931 79.9378 30.8103C83.7579 36.5274 85.7969 43.249 85.7969 50.125C85.7886 59.3429 82.1232 68.1808 75.6051 74.6989C69.0871 81.2169 60.2491 84.8823 51.0313 84.8906Z" fill="#0066B2"/>
<path d="M51.4374 23.4375C48.2579 23.3088 45.098 23.9914 42.2551 25.4211C39.4123 26.8507 36.98 28.9803 35.1874 31.6094C33.1718 35.1719 31.578 39.2657 34.578 42.4532C37.5312 45.25 42.3905 44.9375 44.0937 39.5157C44.6457 37.6243 45.5937 35.8719 46.8749 34.375C48.578 32.4063 53.9374 32.2969 55.8905 34.375C56.4206 34.8655 56.8381 35.465 57.1144 36.1322C57.3906 36.7995 57.5191 37.5187 57.4909 38.2403C57.4627 38.9619 57.2785 39.6688 56.951 40.3125C56.6234 40.9561 56.1604 41.5212 55.5937 41.9688C52.4687 45.0938 47.5624 48.375 45.953 52.5938C44.3437 56.8125 44.3905 63.7657 50.3124 63.7032C51.578 63.7739 52.8221 63.3536 53.7856 62.5299C54.749 61.7062 55.3575 60.5425 55.4843 59.2813C56.0312 57.0625 55.9687 56.2969 57.328 54.7032C59.453 52.4219 63.9374 48.7032 64.8749 47.625C75.3593 37.0313 65.1249 22.7032 51.4374 23.4375ZM65.7343 42.5C63.5312 46.6719 59.3749 48.9219 55.4999 53.125C53.8437 55.0938 53.7499 56.25 53.1249 58.8125C53.1158 59.1727 53.0327 59.5272 52.8807 59.8538C52.7287 60.1805 52.5111 60.4724 52.2414 60.7113C51.9717 60.9502 51.6557 61.1311 51.3131 61.2426C50.9705 61.3541 50.6086 61.3938 50.2499 61.3594C44.8437 61.0313 47.7343 52.4532 50.2499 50.1875C52.578 47.4532 57.3437 44.3907 59.078 41.2344C61.8749 36.1094 57.203 30.1563 51.5155 30.4844C45.7187 30.4844 43.703 33.6094 41.9374 38.7344C40.8749 42.3125 38.0937 42.3438 36.3437 40.7344C34.2655 38.4219 35.828 35.3907 37.2499 32.7813C41.4687 25.7657 52.5155 23.9063 59.6562 27.3907C65.3437 29.875 68.578 36.9219 65.7343 42.5ZM50.6249 64.4375C42.2655 64.5469 42.2499 76.9375 50.6249 76.9375C58.9999 76.9375 58.8749 64.5625 50.6249 64.4375ZM50.6249 74.5469C45.3593 74.6719 45.3593 66.7344 50.6249 66.7344C55.8905 66.7344 55.7343 74.6094 50.6249 74.5469Z" fill="#0066B2"/>
<path d="M51.0313 5.20312C42.1466 5.20312 33.4614 7.83775 26.074 12.7738C18.6866 17.7099 12.9289 24.7257 9.52887 32.9341C6.12884 41.1425 5.23924 50.1748 6.97256 58.8888C8.70588 67.6028 12.9843 75.6071 19.2667 81.8896C25.5491 88.172 33.5535 92.4504 42.2674 94.1837C50.9814 95.917 60.0137 95.0274 68.2221 91.6274C76.4305 88.2274 83.4464 82.4696 88.3824 75.0823C93.3185 67.6949 95.9531 59.0097 95.9531 50.125C95.9366 38.2161 91.1985 26.7996 82.7776 18.3787C74.3567 9.9578 62.9402 5.21966 51.0313 5.20312ZM51.0313 92.7031C42.6101 92.7031 34.3781 90.206 27.3761 85.5274C20.3742 80.8489 14.9169 74.1991 11.6942 66.4189C8.47157 58.6388 7.62839 50.0778 9.27127 41.8184C10.9142 33.5591 14.9693 25.9724 20.924 20.0177C26.8786 14.0631 34.4653 10.0079 42.7247 8.365C50.984 6.72212 59.5451 7.5653 67.3252 10.7879C75.1053 14.0106 81.7551 19.4679 86.4337 26.4699C91.1122 33.4718 93.6094 41.7038 93.6094 50.125C93.597 61.4136 89.1071 72.2363 81.1248 80.2186C73.1426 88.2008 62.3199 92.6907 51.0313 92.7031Z" fill="#0066B2"/>
</svg>
