<svg width="100" height="100" viewBox="0 0 100 100" fill="none" xmlns="http://www.w3.org/2000/svg">
<path d="M51.0313 13.0156C43.6917 13.0156 36.517 15.1921 30.4144 19.2697C24.3118 23.3473 19.5554 29.143 16.7467 35.9239C13.938 42.7047 13.2031 50.1662 14.6349 57.3647C16.0668 64.5632 19.6011 71.1754 24.791 76.3653C29.9808 81.5551 36.5931 85.0895 43.7916 86.5213C50.9901 87.9532 58.4516 87.2183 65.2324 84.4096C72.0133 81.6009 77.809 76.8445 81.8866 70.7419C85.9642 64.6393 88.1406 57.4645 88.1406 50.125C88.1324 40.2855 84.22 30.8514 77.2624 23.8938C70.3049 16.9363 60.8707 13.0239 51.0313 13.0156ZM51.0313 84.8906C44.1553 84.8906 37.4337 82.8517 31.7165 79.0316C25.9993 75.2115 21.5433 69.7818 18.912 63.4292C16.2807 57.0766 15.5922 50.0864 16.9337 43.3426C18.2751 36.5987 21.5862 30.4041 26.4483 25.542C31.3103 20.6799 37.505 17.3688 44.2488 16.0274C50.9927 14.6859 57.9829 15.3744 64.3355 18.0058C70.6881 20.6371 76.1177 25.0931 79.9378 30.8103C83.7579 36.5274 85.7969 43.249 85.7969 50.125C85.7886 59.3429 82.1232 68.1808 75.6051 74.6989C69.0871 81.2169 60.2491 84.8823 51.0313 84.8906Z" fill="white"/>
<path d="M51 30C45.0449 30 40.2 34.8136 40.2 40.7303C40.2 46.647 45.0449 51.4606 51 51.4606C56.9551 51.4606 61.8 46.647 61.8 40.7303C61.8 34.8136 56.9551 30 51 30ZM51 49.0761C46.3682 49.0761 42.6 45.3322 42.6 40.7303C42.6 36.1284 46.3682 32.3845 51 32.3845C55.6318 32.3845 59.4 36.1284 59.4 40.7303C59.4 45.3322 55.6318 49.0761 51 49.0761ZM64.4373 58.4707C61.4805 55.4878 57.5607 53.8451 53.4 53.8451H48.6C44.4394 53.8451 40.5195 55.4878 37.5627 58.4707C34.6204 61.4389 33 65.357 33 69.5034C33 70.1618 33.5373 70.6957 34.2 70.6957H67.8C68.4627 70.6957 69 70.1618 69 69.5034C69 65.357 67.3796 61.4389 64.4373 58.4707ZM35.4528 68.3111C36.054 61.5482 41.7209 56.2296 48.6 56.2296H53.4C60.2791 56.2296 65.946 61.5482 66.5472 68.3111H35.4528Z" fill="white"/>
<path d="M51.0313 5.20312C42.1466 5.20312 33.4614 7.83775 26.074 12.7738C18.6866 17.7099 12.9289 24.7257 9.52887 32.9341C6.12884 41.1425 5.23924 50.1748 6.97256 58.8888C8.70588 67.6028 12.9843 75.6071 19.2667 81.8896C25.5491 88.172 33.5535 92.4504 42.2674 94.1837C50.9814 95.917 60.0137 95.0274 68.2221 91.6274C76.4305 88.2274 83.4464 82.4696 88.3824 75.0823C93.3185 67.6949 95.9531 59.0097 95.9531 50.125C95.9366 38.2161 91.1985 26.7996 82.7776 18.3787C74.3567 9.9578 62.9402 5.21966 51.0313 5.20312ZM51.0313 92.7031C42.6101 92.7031 34.3781 90.206 27.3761 85.5274C20.3742 80.8489 14.9169 74.1991 11.6942 66.4189C8.47157 58.6388 7.62839 50.0778 9.27127 41.8184C10.9142 33.5591 14.9693 25.9724 20.924 20.0177C26.8786 14.0631 34.4653 10.0079 42.7247 8.365C50.984 6.72212 59.5451 7.5653 67.3252 10.7879C75.1053 14.0106 81.7551 19.4679 86.4337 26.4699C91.1122 33.4718 93.6094 41.7038 93.6094 50.125C93.597 61.4136 89.1071 72.2363 81.1248 80.2186C73.1426 88.2008 62.3199 92.6907 51.0313 92.7031Z" fill="white"/>
</svg>
