<svg width="90" height="91" viewBox="0 0 90 91" fill="none" xmlns="http://www.w3.org/2000/svg">
<path d="M45.0313 8.01562C37.6917 8.01562 30.517 10.1921 24.4144 14.2697C18.3118 18.3473 13.5554 24.143 10.7467 30.9239C7.93796 37.7047 7.20307 45.1662 8.63494 52.3647C10.0668 59.5632 13.6011 66.1754 18.791 71.3653C23.9808 76.5551 30.5931 80.0895 37.7916 81.5213C44.9901 82.9532 52.4516 82.2183 59.2324 79.4096C66.0133 76.6009 71.809 71.8445 75.8866 65.7419C79.9642 59.6393 82.1406 52.4645 82.1406 45.125C82.1324 35.2855 78.22 25.8514 71.2624 18.8938C64.3049 11.9363 54.8707 8.0239 45.0313 8.01562ZM45.0313 79.8906C38.1553 79.8906 31.4337 77.8517 25.7165 74.0316C19.9993 70.2115 15.5433 64.7818 12.912 58.4292C10.2807 52.0766 9.59222 45.0864 10.9337 38.3426C12.2751 31.5987 15.5862 25.4041 20.4483 20.542C25.3103 15.6799 31.505 12.3688 38.2488 11.0274C44.9927 9.68595 51.9829 10.3744 58.3355 13.0058C64.6881 15.6371 70.1177 20.0931 73.9378 25.8103C77.7579 31.5274 79.7969 38.249 79.7969 45.125C79.7886 54.3429 76.1232 63.1808 69.6051 69.6989C63.0871 76.2169 54.2491 79.8824 45.0313 79.8906Z" fill="#DC052D"/>
<path d="M45 25C39.0449 25 34.2 29.8136 34.2 35.7303C34.2 41.647 39.0449 46.4606 45 46.4606C50.9551 46.4606 55.8 41.647 55.8 35.7303C55.8 29.8136 50.9551 25 45 25ZM45 44.0761C40.3682 44.0761 36.6 40.3322 36.6 35.7303C36.6 31.1284 40.3682 27.3845 45 27.3845C49.6318 27.3845 53.4 31.1284 53.4 35.7303C53.4 40.3322 49.6318 44.0761 45 44.0761ZM58.4373 53.4707C55.4805 50.4878 51.5607 48.8451 47.4 48.8451H42.6C38.4394 48.8451 34.5195 50.4878 31.5627 53.4707C28.6204 56.4389 27 60.357 27 64.5034C27 65.1618 27.5373 65.6957 28.2 65.6957H61.8C62.4627 65.6957 63 65.1618 63 64.5034C63 60.357 61.3796 56.4389 58.4373 53.4707ZM29.4528 63.3111C30.054 56.5482 35.7209 51.2296 42.6 51.2296H47.4C54.2791 51.2296 59.946 56.5482 60.5472 63.3111H29.4528Z" fill="#DC052D"/>
<path d="M45.0313 0.203125C36.1466 0.203125 27.4614 2.83775 20.074 7.77383C12.6866 12.7099 6.9289 19.7257 3.52887 27.9341C0.128839 36.1425 -0.760764 45.1748 0.972556 53.8888C2.70588 62.6028 6.98427 70.6071 13.2667 76.8896C19.5491 83.172 27.5535 87.4504 36.2674 89.1837C44.9814 90.917 54.0137 90.0274 62.2221 86.6274C70.4305 83.2274 77.4464 77.4696 82.3824 70.0823C87.3185 62.6949 89.9531 54.0097 89.9531 45.125C89.9366 33.2161 85.1985 21.7996 76.7776 13.3787C68.3567 4.9578 56.9402 0.219659 45.0313 0.203125ZM45.0313 87.7031C36.6101 87.7031 28.3781 85.206 21.3761 80.5274C14.3742 75.8489 8.91685 69.1991 5.69421 61.4189C2.47157 53.6388 1.62839 45.0778 3.27127 36.8184C4.91416 28.5591 8.96933 20.9724 14.924 15.0177C20.8786 9.06306 28.4653 5.00789 36.7247 3.365C44.984 1.72212 53.5451 2.5653 61.3252 5.78794C69.1053 9.01058 75.7551 14.4679 80.4337 21.4699C85.1122 28.4718 87.6094 36.7038 87.6094 45.125C87.597 56.4136 83.1071 67.2363 75.1248 75.2186C67.1426 83.2008 56.3199 87.6907 45.0313 87.7031Z" fill="#DC052D"/>
</svg>
