<svg width="100" height="100" viewBox="0 0 100 100" fill="none" xmlns="http://www.w3.org/2000/svg">
<path d="M51.0313 13.0156C43.6917 13.0156 36.517 15.1921 30.4144 19.2697C24.3118 23.3473 19.5554 29.143 16.7467 35.9239C13.938 42.7047 13.2031 50.1662 14.6349 57.3647C16.0668 64.5632 19.6011 71.1754 24.791 76.3653C29.9808 81.5551 36.5931 85.0895 43.7916 86.5213C50.9901 87.9532 58.4516 87.2183 65.2324 84.4096C72.0133 81.6009 77.809 76.8445 81.8866 70.7419C85.9642 64.6393 88.1406 57.4645 88.1406 50.125C88.1324 40.2855 84.22 30.8514 77.2624 23.8938C70.3049 16.9363 60.8707 13.0239 51.0313 13.0156ZM51.0313 84.8906C44.1553 84.8906 37.4337 82.8517 31.7165 79.0316C25.9993 75.2115 21.5433 69.7818 18.912 63.4292C16.2807 57.0766 15.5922 50.0864 16.9337 43.3426C18.2751 36.5987 21.5862 30.4041 26.4483 25.542C31.3103 20.6799 37.505 17.3688 44.2488 16.0274C50.9927 14.6859 57.9829 15.3744 64.3355 18.0058C70.6881 20.6371 76.1177 25.0931 79.9378 30.8103C83.7579 36.5274 85.7969 43.249 85.7969 50.125C85.7886 59.3429 82.1232 68.1808 75.6051 74.6989C69.0871 81.2169 60.2491 84.8823 51.0313 84.8906Z" fill="white"/>
<path d="M51.0313 5.20312C42.1466 5.20312 33.4614 7.83775 26.074 12.7738C18.6866 17.7099 12.9289 24.7257 9.52887 32.9341C6.12884 41.1425 5.23924 50.1748 6.97256 58.8888C8.70588 67.6028 12.9843 75.6071 19.2667 81.8896C25.5491 88.172 33.5535 92.4504 42.2674 94.1837C50.9814 95.917 60.0137 95.0274 68.2221 91.6274C76.4305 88.2274 83.4464 82.4696 88.3824 75.0823C93.3185 67.6949 95.9531 59.0097 95.9531 50.125C95.9366 38.2161 91.1985 26.7996 82.7776 18.3787C74.3567 9.9578 62.9402 5.21966 51.0313 5.20312ZM51.0313 92.7031C42.6101 92.7031 34.3781 90.206 27.3761 85.5274C20.3742 80.8489 14.9169 74.1991 11.6942 66.4189C8.47157 58.6388 7.62839 50.0778 9.27127 41.8184C10.9142 33.5591 14.9693 25.9724 20.924 20.0177C26.8786 14.0631 34.4653 10.0079 42.7247 8.365C50.984 6.72212 59.5451 7.5653 67.3252 10.7879C75.1053 14.0106 81.7551 19.4679 86.4337 26.4699C91.1122 33.4718 93.6094 41.7038 93.6094 50.125C93.597 61.4136 89.1071 72.2363 81.1248 80.2186C73.1426 88.2008 62.3199 92.6907 51.0313 92.7031Z" fill="white"/>
<path d="M72.7301 56.2861C72.7301 55.04 71.5747 53.9713 69.3736 53.1667C69.4597 52.9481 69.5027 52.7148 69.5003 52.4799V48.4267C69.5059 48.2129 69.4726 47.9999 69.4022 47.7979C71.4259 47.0416 72.7146 46.0089 72.7252 44.699V40.5788C72.6745 34.4741 45.3409 34.4733 45.2902 40.5788V43.5167C43.3013 41.9635 40.8504 41.1197 38.327 41.1193C23.2329 41.7399 23.2158 63.2648 38.327 63.8928C40.9558 63.8949 43.5035 62.9829 45.5338 61.3131C46.125 62.4603 47.8127 63.3466 50.0784 63.9623C52.9997 64.6796 55.9994 65.0276 59.0073 64.9983C62.708 64.9427 72.2052 64.4684 72.7227 60.4137C72.7203 60.3613 72.7244 56.336 72.7301 56.2861ZM71.0915 56.273C71.0784 56.7579 70.098 57.5952 67.4039 58.3008C61.9958 59.6483 53.6941 59.7031 48.5052 57.5813C48.6756 57.2403 48.8287 56.891 48.9639 56.5347C49.7955 56.6835 50.6401 56.8159 51.4864 56.8912C54.3449 57.1726 57.224 57.1728 60.0825 56.892C62.892 56.605 66.3115 55.968 68.2869 54.5289C70.4529 55.2215 71.0776 55.9549 71.0915 56.273ZM51.2256 60.1242C52.0572 60.3041 52.9533 60.4504 53.8904 60.5674V63.049C52.9946 62.9336 52.1053 62.7734 51.2256 62.569V60.1242ZM55.5257 60.7374C56.3924 60.8078 57.2853 60.8495 58.1904 60.8666V63.3507C57.2458 63.3333 56.3575 63.2894 55.5257 63.2191V60.7374ZM59.8258 60.8666C60.7151 60.8515 61.6038 60.8087 62.4905 60.7383V63.2191C61.6587 63.2883 60.7702 63.3319 59.8249 63.3499L59.8258 60.8666ZM64.1258 60.5682C65.0198 60.4598 65.9087 60.3125 66.7898 60.1267V62.569C65.9104 62.7734 65.0213 62.9336 64.1258 63.049V60.5682ZM62.4905 45.0293V47.5167C61.6587 47.5859 60.7702 47.6295 59.8249 47.6475V45.161C60.7146 45.145 61.6036 45.1006 62.4905 45.0293ZM67.8675 52.5208C67.8462 52.8478 67.2452 53.5559 65.2003 54.2297V51.8168C66.134 51.5639 67.0303 51.1889 67.8658 50.7015C67.8675 50.7129 67.8609 52.5118 67.8675 52.5208ZM52.3008 55.3131V52.8356C53.1681 52.9064 54.0561 52.95 54.9648 52.9664V55.4472C54.0756 55.4312 53.1871 55.3864 52.3008 55.3131ZM49.4406 54.9582C49.617 54.1662 49.708 53.3575 49.7121 52.5461C50.0277 52.5944 50.345 52.6361 50.6655 52.6769V55.1446C50.2559 55.0914 49.8475 55.0292 49.4406 54.9582ZM56.6001 52.9754C57.4897 52.9605 58.3787 52.918 59.2657 52.8478V55.3139C58.3788 55.3871 57.4898 55.4316 56.6001 55.4472V52.9754ZM60.901 52.6778C61.795 52.5694 62.6838 52.4221 63.5649 52.2362V54.6769C62.6853 54.8804 61.7959 55.0386 60.9002 55.1512L60.901 52.6778ZM64.1258 47.3466V44.8642C65.02 44.7539 65.9089 44.6041 66.7898 44.4153V46.8666C65.9104 47.071 65.0213 47.2312 64.1258 47.3466ZM58.1896 47.6483C57.2455 47.6309 56.3575 47.587 55.5257 47.5167V45.0293C56.4006 45.1005 57.2926 45.1438 58.1904 45.1602L58.1896 47.6483ZM53.8904 47.3466C52.9946 47.2312 52.1053 47.071 51.2256 46.8666V44.4153C52.0653 44.5968 52.9566 44.7481 53.8904 44.865V47.3466ZM49.5903 46.4096C47.8446 45.8249 46.9247 45.1585 46.9247 44.6941V42.8658C47.7598 43.3601 48.6559 43.7433 49.5903 44.0056V46.4096ZM50.0809 48.2599C55.9168 49.6489 61.9962 49.6581 67.8364 48.2869C67.8556 48.3261 67.8654 48.3692 67.865 48.4128C67.8429 48.8462 66.8568 49.7227 64.179 50.4104C59.387 51.492 54.4324 51.6474 49.5821 50.8683C49.4316 49.8192 49.134 48.7966 48.6982 47.8307C49.1267 47.9876 49.5952 48.1283 50.0809 48.2599ZM68.4251 46.4096V44.0056C69.3595 43.7433 70.2556 43.3601 71.0907 42.8658V44.6941C71.0907 45.1585 70.1716 45.8249 68.4251 46.4096ZM59.0081 37.6213C66.8249 37.6213 71.0899 39.5755 71.0899 40.5788C71.0899 41.5821 66.8258 43.5363 59.0081 43.5363C51.1904 43.5363 46.9255 41.5821 46.9255 40.5788C46.9255 39.5755 51.1904 37.6213 59.0081 37.6213ZM38.327 62.2575C35.7417 62.2545 33.2633 61.2261 31.4353 59.398C29.6073 57.5698 28.5792 55.0913 28.5764 52.506C29.1119 39.569 47.5445 39.5739 48.0784 52.506C48.0754 55.0914 47.047 57.5699 45.2189 59.398C43.3908 61.2261 40.9123 62.2545 38.327 62.2575ZM46.928 60.4055C46.9288 60.3859 46.932 59.9623 46.9304 59.9427C47.1929 59.641 47.4393 59.3258 47.6688 58.9983C48.29 59.2839 48.9324 59.5209 49.5903 59.7072V62.1111C47.8552 61.5306 46.9386 60.8699 46.928 60.4055ZM68.4251 62.1119V59.7072C69.3588 59.4546 70.2551 59.0799 71.0907 58.5927V60.3965C71.0907 60.8609 70.1716 61.5273 68.4251 62.1119Z" fill="white"/>
<path d="M38.3197 47.9459C38.566 47.9452 38.8099 47.9931 39.0377 48.0868C39.2654 48.1805 39.4724 48.3181 39.6469 48.4919C39.8214 48.6656 39.96 48.872 40.0546 49.0994C40.1493 49.3267 40.1983 49.5704 40.1987 49.8167C40.1987 50.0335 40.2849 50.2415 40.4382 50.3948C40.5915 50.5482 40.7995 50.6343 41.0164 50.6343C41.2332 50.6343 41.4412 50.5482 41.5945 50.3948C41.7479 50.2415 41.834 50.0335 41.834 49.8167C41.8322 49.0302 41.566 48.2673 41.0783 47.6503C40.5905 47.0334 39.9095 46.5984 39.1447 46.4152V44.9598C39.1447 44.7429 39.0586 44.5349 38.9053 44.3816C38.7519 44.2282 38.5439 44.1421 38.3271 44.1421C38.1102 44.1421 37.9023 44.2282 37.7489 44.3816C37.5956 44.5349 37.5094 44.7429 37.5094 44.9598V46.4152C36.6745 46.6144 35.9419 47.1134 35.4506 47.8172C34.9594 48.5211 34.7437 49.3808 34.8446 50.2332C34.9455 51.0856 35.3559 51.8712 35.9979 52.4409C36.6399 53.0107 37.4687 53.3248 38.3271 53.3236C38.6973 53.3235 39.0592 53.4331 39.3671 53.6386C39.675 53.8442 39.915 54.1365 40.0568 54.4784C40.1986 54.8204 40.2358 55.1968 40.1637 55.5599C40.0915 55.923 39.9134 56.2566 39.6516 56.5184C39.3899 56.7802 39.0564 56.9586 38.6933 57.0309C38.3303 57.1031 37.9539 57.0661 37.6118 56.9245C37.2698 56.7828 36.9774 56.543 36.7718 56.2352C36.5661 55.9273 36.4563 55.5655 36.4563 55.1952C36.4563 54.9784 36.3701 54.7704 36.2168 54.6171C36.0634 54.4637 35.8555 54.3776 35.6386 54.3776C35.4218 54.3776 35.2138 54.4637 35.0604 54.6171C34.9071 54.7704 34.8209 54.9784 34.8209 55.1952C34.8227 55.9816 35.0888 56.7445 35.5764 57.3614C36.064 57.9783 36.7448 58.4133 37.5094 58.5967V60.0522C37.5094 60.269 37.5956 60.477 37.7489 60.6303C37.9023 60.7837 38.1102 60.8698 38.3271 60.8698C38.5439 60.8698 38.7519 60.7837 38.9053 60.6303C39.0586 60.477 39.1447 60.269 39.1447 60.0522V58.5967C39.9804 58.3982 40.714 57.8994 41.206 57.1954C41.6979 56.4913 41.914 55.6309 41.813 54.7779C41.7121 53.925 41.3012 53.1388 40.6585 52.569C40.0157 51.9992 39.186 51.6855 38.3271 51.6875C37.8404 51.6742 37.3781 51.4718 37.0382 51.1233C36.6983 50.7747 36.5076 50.3075 36.5065 49.8206C36.5055 49.3338 36.6941 48.8657 37.0325 48.5157C37.3709 48.1657 37.8331 47.9613 38.3197 47.9459Z" fill="white"/>
</svg>
