<svg width="100" height="100" viewBox="0 0 100 100" fill="none" xmlns="http://www.w3.org/2000/svg">
<path d="M51.0312 13.0156C43.6917 13.0156 36.517 15.1921 30.4144 19.2697C24.3118 23.3473 19.5554 29.143 16.7467 35.9239C13.9379 42.7047 13.203 50.1662 14.6349 57.3647C16.0668 64.5632 19.6011 71.1754 24.791 76.3653C29.9808 81.5551 36.5931 85.0895 43.7916 86.5213C50.9901 87.9532 58.4515 87.2183 65.2324 84.4096C72.0132 81.6009 77.8089 76.8445 81.8866 70.7419C85.9642 64.6393 88.1406 57.4645 88.1406 50.125C88.1323 40.2855 84.22 30.8514 77.2624 23.8938C70.3048 16.9363 60.8707 13.0239 51.0312 13.0156ZM51.0312 84.8906C44.1553 84.8906 37.4337 82.8517 31.7165 79.0316C25.9993 75.2115 21.5433 69.7818 18.912 63.4292C16.2807 57.0766 15.5922 50.0864 16.9336 43.3426C18.2751 36.5987 21.5862 30.4041 26.4482 25.542C31.3103 20.6799 37.5049 17.3688 44.2488 16.0274C50.9927 14.6859 57.9829 15.3744 64.3355 18.0058C70.6881 20.6371 76.1177 25.0931 79.9378 30.8103C83.7579 36.5274 85.7969 43.249 85.7969 50.125C85.7886 59.3429 82.1231 68.1808 75.6051 74.6989C69.0871 81.2169 60.2491 84.8824 51.0312 84.8906Z" fill="white"/>
<path d="M51.4375 23.4375C48.258 23.3088 45.0981 23.9914 42.2552 25.421C39.4124 26.8506 36.9801 28.9803 35.1875 31.6094C33.1719 35.1719 31.5781 39.2656 34.5781 42.4531C37.5312 45.25 42.3906 44.9375 44.0937 39.5156C44.6458 37.6242 45.5938 35.8719 46.875 34.375C48.5781 32.4063 53.9375 32.2969 55.8906 34.375C56.4207 34.8655 56.8382 35.465 57.1145 36.1322C57.3907 36.7994 57.5192 37.5186 57.491 38.2402C57.4628 38.9619 57.2786 39.6688 56.951 40.3125C56.6235 40.9561 56.1605 41.5212 55.5937 41.9688C52.4687 45.0938 47.5625 48.375 45.9531 52.5937C44.3437 56.8125 44.3906 63.7656 50.3125 63.7031C51.5781 63.7739 52.8222 63.3536 53.7856 62.5299C54.7491 61.7061 55.3576 60.5425 55.4844 59.2812C56.0312 57.0625 55.9687 56.2969 57.3281 54.7031C59.4531 52.4219 63.9375 48.7031 64.875 47.625C75.3594 37.0312 65.125 22.7031 51.4375 23.4375ZM65.7344 42.5C63.5312 46.6719 59.375 48.9219 55.5 53.125C53.8437 55.0937 53.75 56.25 53.125 58.8125C53.1159 59.1727 53.0328 59.5271 52.8808 59.8538C52.7288 60.1805 52.5112 60.4724 52.2415 60.7113C51.9718 60.9502 51.6558 61.131 51.3132 61.2425C50.9705 61.354 50.6086 61.3938 50.25 61.3594C44.8437 61.0313 47.7344 52.4531 50.25 50.1875C52.5781 47.4531 57.3437 44.3906 59.0781 41.2344C61.875 36.1094 57.2031 30.1563 51.5156 30.4844C45.7187 30.4844 43.7031 33.6094 41.9375 38.7344C40.875 42.3125 38.0937 42.3437 36.3437 40.7344C34.2656 38.4219 35.8281 35.3906 37.25 32.7812C41.4687 25.7656 52.5156 23.9063 59.6562 27.3906C65.3437 29.875 68.5781 36.9219 65.7344 42.5ZM50.625 64.4375C42.2656 64.5469 42.25 76.9375 50.625 76.9375C59 76.9375 58.875 64.5625 50.625 64.4375ZM50.625 74.5469C45.3594 74.6719 45.3594 66.7344 50.625 66.7344C55.8906 66.7344 55.7344 74.6094 50.625 74.5469Z" fill="white"/>
<path d="M51.0312 5.20312C42.1465 5.20312 33.4614 7.83775 26.074 12.7738C18.6866 17.7099 12.9289 24.7257 9.52885 32.9341C6.12882 41.1425 5.23921 50.1748 6.97253 58.8888C8.70585 67.6028 12.9842 75.6071 19.2667 81.8896C25.5491 88.172 33.5534 92.4504 42.2674 94.1837C50.9814 95.917 60.0137 95.0274 68.2221 91.6274C76.4305 88.2274 83.4463 82.4696 88.3824 75.0823C93.3185 67.6949 95.9531 59.0097 95.9531 50.125C95.9366 38.2161 91.1984 26.7996 82.7775 18.3787C74.3566 9.9578 62.9402 5.21966 51.0312 5.20312ZM51.0312 92.7031C42.6101 92.7031 34.378 90.206 27.3761 85.5274C20.3742 80.8489 14.9168 74.1991 11.6942 66.4189C8.47155 58.6388 7.62836 50.0778 9.27125 41.8184C10.9141 33.5591 14.9693 25.9724 20.924 20.0177C26.8786 14.0631 34.4653 10.0079 42.7247 8.365C50.984 6.72212 59.5451 7.5653 67.3252 10.7879C75.1053 14.0106 81.7551 19.4679 86.4337 26.4699C91.1122 33.4718 93.6094 41.7038 93.6094 50.125C93.597 61.4136 89.1071 72.2363 81.1248 80.2186C73.1426 88.2008 62.3199 92.6907 51.0312 92.7031Z" fill="white"/>
</svg>
