<svg width="130" height="130" viewBox="0 0 130 130" fill="none" xmlns="http://www.w3.org/2000/svg">
<path d="M97.5013 126.953H64.0302C63.7776 126.953 63.525 126.847 63.2724 126.636C63.0198 126.424 62.8514 126.149 62.7672 125.811L61.5041 111.973C61.5041 111.803 61.5252 111.634 61.5673 111.465C61.6094 111.296 61.7146 111.126 61.883 110.957L63.7776 109.053L60.3674 104.482C60.2832 104.398 60.22 104.25 60.1779 104.038C60.1358 103.826 60.1148 103.636 60.1148 103.467C60.199 103.298 60.3042 103.128 60.4305 102.959C60.5568 102.79 60.7042 102.663 60.8726 102.578L70.9771 98.2617C71.1455 98.1771 71.3139 98.1348 71.4823 98.1348C71.6507 98.1348 71.8191 98.1771 71.9875 98.2617L73.6295 98.8965C73.6295 98.8965 73.6505 98.8965 73.6926 98.8965C73.7347 98.8965 73.7979 98.9388 73.8821 99.0234C73.8821 99.0234 73.9031 99.0234 73.9452 99.0234C73.9873 99.0234 74.0505 99.0658 74.1347 99.1504C74.1347 99.1504 74.1558 99.1504 74.1979 99.1504C74.24 99.1504 74.261 99.1504 74.261 99.1504L74.5136 99.2773C74.5136 99.2773 74.5347 99.2773 74.5768 99.2773C74.6189 99.2773 74.6399 99.2773 74.6399 99.2773C74.7241 99.362 74.7873 99.4043 74.8294 99.4043C74.8715 99.4043 74.9346 99.4043 75.0188 99.4043C75.103 99.4889 75.2083 99.5524 75.3346 99.5947C75.4609 99.637 75.6083 99.7005 75.7767 99.7852L76.5345 100.166C76.5345 100.166 76.5556 100.166 76.5977 100.166C76.6398 100.166 76.6608 100.166 76.6608 100.166C79.0185 101.182 82.1341 102.515 86.0074 104.165C89.8808 105.815 92.5332 106.979 93.9647 107.656C96.575 109.01 98.1328 111.253 98.638 114.385C99.1432 117.516 99.1432 121.325 98.638 125.811C98.638 126.149 98.5328 126.424 98.3223 126.636C98.1118 126.847 97.8381 126.953 97.5013 126.953ZM65.167 124.414H96.2382C96.6592 120.098 96.5961 116.818 96.0488 114.575C95.5014 112.332 94.4278 110.788 92.828 109.941C91.5649 109.349 89.1019 108.27 85.4391 106.704C81.7762 105.138 78.5554 103.763 75.7767 102.578C75.7767 102.578 75.7346 102.578 75.6504 102.578L74.7662 102.197C74.7662 102.197 74.7662 102.155 74.7662 102.07C74.5978 102.07 74.4505 102.049 74.3242 102.007C74.1979 101.965 74.0926 101.901 74.0084 101.816C74.0084 101.816 73.9873 101.816 73.9452 101.816C73.9031 101.816 73.8821 101.816 73.8821 101.816C73.8821 101.732 73.861 101.689 73.8189 101.689C73.7768 101.689 73.7558 101.689 73.7558 101.689C73.7558 101.689 73.7137 101.689 73.6295 101.689C73.5453 101.689 73.5032 101.647 73.5032 101.562H73.2506C73.1664 101.478 73.1032 101.436 73.0611 101.436C73.019 101.436 72.9558 101.393 72.8716 101.309C72.8716 101.309 72.8506 101.309 72.8085 101.309C72.7664 101.309 72.7453 101.309 72.7453 101.309C72.7453 101.309 72.7243 101.309 72.6822 101.309C72.6401 101.309 72.619 101.309 72.619 101.309L71.6086 100.801C71.6086 100.801 71.5875 100.801 71.5454 100.801C71.5033 100.801 71.4823 100.801 71.4823 100.801L63.3987 104.355L66.43 108.291C66.5985 108.545 66.6827 108.82 66.6827 109.116C66.6827 109.412 66.5564 109.688 66.3037 109.941L64.0302 112.354L65.167 124.414ZM67.4405 113.115C67.2721 113.115 67.1037 113.073 66.9353 112.988C66.7669 112.904 66.5985 112.777 66.43 112.607L64.4092 109.814L60.3674 104.482C60.2832 104.398 60.22 104.25 60.1779 104.038C60.1358 103.826 60.1148 103.636 60.1148 103.467C60.199 103.298 60.3042 103.128 60.4305 102.959C60.5568 102.79 60.7042 102.663 60.8726 102.578L70.9771 98.2617C71.1455 98.1771 71.3139 98.1348 71.4823 98.1348C71.6507 98.1348 71.8191 98.1771 71.9875 98.2617L73.6295 98.8965L74.261 99.1504L74.8925 99.5312L76.2819 100.039L76.6608 100.166C76.9134 100.251 77.1029 100.42 77.2292 100.674C77.3555 100.928 77.4186 101.182 77.4186 101.436C77.4186 101.605 77.3976 101.753 77.3555 101.88C77.3134 102.007 77.2502 102.113 77.166 102.197L68.4509 112.734C68.2825 112.819 68.1141 112.904 67.9457 112.988C67.7773 113.073 67.6089 113.115 67.4405 113.115ZM63.3987 104.355L67.5668 109.814L74.1347 101.943L71.6086 100.801C71.6086 100.801 71.5875 100.801 71.5454 100.801C71.5033 100.801 71.4823 100.801 71.4823 100.801L63.3987 104.355ZM64.0302 126.953H58.7254C58.4728 126.953 58.2833 126.911 58.157 126.826C58.0307 126.742 57.8834 126.657 57.715 126.572C57.6307 126.403 57.5465 126.234 57.4623 126.064C57.3781 125.895 57.3781 125.726 57.4623 125.557L58.7254 112.354L56.4519 109.941C56.1993 109.772 56.073 109.518 56.073 109.18C56.073 108.841 56.1572 108.545 56.3256 108.291L60.3674 103.086C60.4516 102.917 60.5989 102.79 60.8094 102.705C61.02 102.62 61.2094 102.578 61.3778 102.578C61.5462 102.578 61.7146 102.62 61.883 102.705C62.0514 102.79 62.2199 102.917 62.3883 103.086L66.43 108.291C66.5985 108.545 66.6827 108.841 66.6827 109.18C66.6827 109.518 66.5564 109.772 66.3037 109.941L64.0302 112.354L65.2933 125.557C65.3775 125.726 65.3775 125.895 65.2933 126.064C65.2091 126.234 65.1249 126.403 65.0407 126.572C64.8723 126.657 64.7249 126.742 64.5986 126.826C64.4723 126.911 64.2829 126.953 64.0302 126.953ZM60.1148 124.414H62.6409L61.5041 111.973C61.5041 111.803 61.5252 111.634 61.5673 111.465C61.6094 111.296 61.7146 111.126 61.883 110.957L63.7776 109.053L61.3778 105.879L58.978 108.926L60.8726 110.957C61.041 111.042 61.1463 111.19 61.1884 111.401C61.2305 111.613 61.2515 111.803 61.2515 111.973L60.1148 124.414ZM61.3778 105.117C61.2936 105.117 61.2094 105.096 61.1252 105.054C61.041 105.011 60.9568 104.99 60.8726 104.99L50.7681 100.547C50.5155 100.462 50.3261 100.314 50.1998 100.103C50.0734 99.891 50.0103 99.6582 50.0103 99.4043V90.7715C50.0103 90.6022 50.0313 90.4541 50.0734 90.3271C50.1156 90.2002 50.2208 90.0521 50.3892 89.8828H50.5155C50.5997 89.7135 50.7471 89.6077 50.9576 89.5654C51.1681 89.5231 51.3576 89.502 51.526 89.502C51.6944 89.502 51.8628 89.5443 52.0312 89.6289C52.1996 89.7135 52.3259 89.8405 52.4101 90.0098C54.5994 93.0566 56.5782 94.7282 58.3465 95.0244C60.1148 95.3206 61.041 95.4264 61.1252 95.3418C61.2936 95.3418 61.4199 95.3418 61.5041 95.3418C61.5883 95.3418 61.6725 95.3418 61.7567 95.3418C61.7567 95.4264 62.6619 95.3206 64.4723 95.0244C66.2827 94.7282 68.2404 93.0566 70.3455 90.0098C70.5139 89.8405 70.6823 89.7135 70.8507 89.6289C71.0192 89.5443 71.1876 89.502 71.356 89.502C71.6086 89.502 71.8191 89.5443 71.9875 89.6289C72.1559 89.7135 72.3243 89.8405 72.4927 90.0098V90.1367C72.5769 90.2214 72.6401 90.3271 72.6822 90.4541C72.7243 90.5811 72.7453 90.7292 72.7453 90.8984V99.4043C72.7453 99.6582 72.6822 99.891 72.5559 100.103C72.4296 100.314 72.2401 100.462 71.9875 100.547L61.883 104.99C61.7988 104.99 61.7146 105.011 61.6304 105.054C61.5462 105.096 61.462 105.117 61.3778 105.117ZM52.5364 98.5156L61.3778 102.451L70.2192 98.5156V94.0723C68.1983 96.1035 66.3458 97.2673 64.6618 97.5635C62.9777 97.8597 61.883 97.9655 61.3778 97.8809C60.8726 97.9655 59.7779 97.8597 58.0939 97.5635C56.4098 97.2673 54.5573 96.1035 52.5364 94.0723V98.5156ZM60.4937 98.0078C59.5674 98.0078 58.157 97.627 56.2624 96.8652C54.3678 96.1035 52.4101 94.2839 50.3892 91.4062C49.884 90.7292 49.3788 89.9674 48.8735 89.1211C48.3683 88.2747 47.9052 87.3861 47.4842 86.4551C47.3158 86.5397 47.1474 86.6032 46.979 86.6455C46.8105 86.6878 46.6421 86.709 46.4737 86.709C45.5475 86.6243 44.7265 86.0742 44.0108 85.0586C43.295 84.043 42.6004 82.5195 41.9267 80.4883C41.3373 78.9648 41.0215 77.6953 40.9794 76.6797C40.9373 75.6641 41.1689 74.9447 41.6741 74.5215C42.0109 74.1829 42.453 74.0348 43.0003 74.0771C43.5476 74.1195 44.1581 74.3099 44.8318 74.6484C44.8318 74.7331 44.8739 74.7966 44.9581 74.8389C45.0423 74.8812 45.0844 74.9447 45.0844 75.0293L45.5896 75.6641L46.8526 68.6816C46.9369 68.4277 47.0632 68.195 47.2316 67.9834C47.4 67.7718 47.6526 67.666 47.9894 67.666C49.3367 67.4967 50.5787 66.7985 51.7154 65.5713C52.8522 64.3441 53.6311 63.4342 54.0521 62.8418C54.1363 62.5879 54.2626 62.4186 54.431 62.334C54.5994 62.2494 54.8099 62.207 55.0625 62.207C55.2309 62.207 55.4204 62.2494 55.6309 62.334C55.8414 62.4186 55.9888 62.5456 56.073 62.7148C56.6624 63.4766 57.5465 64.0267 58.7254 64.3652C59.9043 64.7038 60.7884 64.873 61.3778 64.873C61.9672 64.873 62.8303 64.7038 63.9671 64.3652C65.1038 64.0267 65.9669 63.4766 66.5564 62.7148C66.7248 62.5456 66.8932 62.4186 67.0616 62.334C67.23 62.2494 67.4405 62.207 67.6931 62.207C67.9457 62.207 68.1562 62.2494 68.3246 62.334C68.493 62.4186 68.6193 62.5879 68.7036 62.8418C68.7036 62.8418 69.293 63.6035 70.4718 65.127C71.6507 66.6504 73.0822 67.4967 74.7662 67.666C75.0188 67.7507 75.2504 67.8776 75.4609 68.0469C75.6714 68.2161 75.7767 68.4277 75.7767 68.6816L77.166 75.6641L77.545 75.0293C77.6292 74.9447 77.6923 74.8812 77.7344 74.8389C77.7765 74.7966 77.8397 74.7331 77.9239 74.6484C78.5975 74.2253 79.1869 73.9925 79.6922 73.9502C80.1974 73.9079 80.6605 74.056 81.0815 74.3945C81.5867 74.9023 81.8183 75.6429 81.7762 76.6162C81.7341 77.5895 81.4183 78.8379 80.8289 80.3613C80.1553 82.4772 79.4606 84.0218 78.7449 84.9951C78.0291 85.9684 77.2081 86.4974 76.2819 86.582C76.1135 86.582 75.9451 86.582 75.7767 86.582C75.6083 86.582 75.4399 86.5397 75.2715 86.4551C74.8504 87.3861 74.3873 88.2747 73.8821 89.1211C73.3769 89.9674 72.8716 90.7292 72.3664 91.4062C70.0087 94.7917 67.7352 96.7383 65.5459 97.2461C63.3566 97.7539 61.9672 97.9655 61.3778 97.8809C61.2936 97.8809 61.1884 97.902 61.0621 97.9443C60.9357 97.9867 60.7463 98.0078 60.4937 98.0078ZM61.3778 95.3418C61.3778 95.3418 61.4199 95.3418 61.5041 95.3418C61.5883 95.3418 61.6304 95.3418 61.6304 95.3418C61.7146 95.3418 62.6409 95.2148 64.4092 94.9609C66.1774 94.707 68.1562 93.0566 70.3455 90.0098C70.935 89.1634 71.5033 88.2324 72.0507 87.2168C72.598 86.2012 73.1243 85.0586 73.6295 83.7891C73.7137 83.6198 73.861 83.4505 74.0715 83.2812C74.2821 83.112 74.5136 83.0273 74.7662 83.0273C75.0188 83.0273 75.2504 83.0908 75.4609 83.2178C75.6714 83.3447 75.8188 83.5352 75.903 83.7891C75.903 83.7891 75.9451 83.8314 76.0293 83.916C76.1135 84.0007 76.1556 84.043 76.1556 84.043C76.324 83.9583 76.5977 83.6409 76.9766 83.0908C77.3555 82.5407 77.8397 81.377 78.4291 79.5996C78.4291 79.5996 78.4291 79.5784 78.4291 79.5361C78.4291 79.4938 78.4291 79.4727 78.4291 79.4727C78.5975 79.0495 78.7449 78.6263 78.8712 78.2031C78.9975 77.7799 79.1027 77.3991 79.1869 77.0605L78.4291 78.2031C78.3449 78.3724 78.1975 78.4993 77.987 78.584C77.7765 78.6686 77.5871 78.7109 77.4186 78.7109H76.1556C75.903 78.7109 75.6504 78.6263 75.3978 78.457C75.1451 78.2878 75.0188 78.0339 75.0188 77.6953L73.5032 69.9512C72.1559 69.6126 70.956 68.9567 69.9035 67.9834C68.8509 67.0101 68.0299 66.1426 67.4405 65.3809C66.3458 66.2272 65.1249 66.7773 63.7776 67.0312C62.4304 67.2852 61.6725 67.4121 61.5041 67.4121C61.4199 67.4121 61.3778 67.4121 61.3778 67.4121C61.3778 67.4121 61.3357 67.4121 61.2515 67.4121C61.0831 67.4121 60.3253 67.2852 58.978 67.0312C57.6307 66.7773 56.4098 66.2272 55.3151 65.3809C54.7257 66.1426 53.9047 67.0101 52.8522 67.9834C51.7996 68.9567 50.5997 69.6126 49.2525 69.9512L47.8631 77.6953C47.7789 78.0339 47.6105 78.2878 47.3579 78.457C47.1053 78.6263 46.8526 78.7109 46.6 78.7109H45.337C45.1686 78.7109 45.0002 78.6686 44.8318 78.584C44.6633 78.4993 44.4949 78.3724 44.3265 78.2031L43.5687 77.1875C43.6529 77.526 43.7582 77.8857 43.8845 78.2666C44.0108 78.6475 44.1581 79.0495 44.3265 79.4727C44.3265 79.4727 44.3265 79.4938 44.3265 79.5361C44.3265 79.5784 44.3686 79.5996 44.4528 79.5996C44.9581 81.377 45.4212 82.5407 45.8422 83.0908C46.2632 83.6409 46.5158 83.9583 46.6 84.043C46.6842 84.043 46.7474 84.0007 46.7895 83.916C46.8316 83.8314 46.8526 83.7891 46.8526 83.7891C47.0211 83.5352 47.2105 83.3447 47.421 83.2178C47.6315 83.0908 47.821 83.0273 47.9894 83.0273C48.242 83.0273 48.4736 83.112 48.6841 83.2812C48.8946 83.4505 49.042 83.6198 49.1262 83.7891C49.6314 84.974 50.1577 86.0954 50.705 87.1533C51.2523 88.2113 51.8207 89.1634 52.4101 90.0098C54.5994 93.0566 56.5782 94.707 58.3465 94.9609C60.1148 95.2148 61.041 95.3418 61.1252 95.3418C61.1252 95.3418 61.1673 95.3418 61.2515 95.3418C61.3357 95.3418 61.3778 95.3418 61.3778 95.3418ZM58.7254 126.953H25.2544C25.0017 126.953 24.7491 126.847 24.4965 126.636C24.2439 126.424 24.0755 126.149 23.9913 125.811C23.5703 121.325 23.6124 117.516 24.1176 114.385C24.6228 111.253 26.1806 109.01 28.7909 107.656C29.1277 107.487 29.4856 107.318 29.8645 107.148C30.2434 106.979 30.6434 106.81 31.0644 106.641C32.9169 105.794 35.2746 104.757 38.1376 103.53C41.0005 102.303 43.6529 101.182 46.0948 100.166C46.3474 100.081 46.6 100.081 46.8526 100.166C47.1053 100.251 47.3158 100.378 47.4842 100.547L49.5051 103.086L55.1888 109.814L56.3256 108.291C56.494 108.122 56.6413 107.995 56.7677 107.91C56.894 107.826 57.0834 107.783 57.336 107.783C57.5044 107.783 57.6728 107.826 57.8413 107.91C58.0097 107.995 58.136 108.079 58.2202 108.164L60.8726 110.957C60.9568 111.126 61.041 111.296 61.1252 111.465C61.2094 111.634 61.2515 111.803 61.2515 111.973L59.8621 125.811C59.8621 126.149 59.7569 126.424 59.5464 126.636C59.3359 126.847 59.0622 126.953 58.7254 126.953ZM26.3911 124.414H57.4623L58.7254 112.354L57.4623 111.084L56.3256 112.607C56.1572 112.777 55.9888 112.904 55.8204 112.988C55.652 113.073 55.4835 113.115 55.3151 113.115C55.1467 113.115 54.9783 113.073 54.8099 112.988C54.6415 112.904 54.4731 112.777 54.3047 112.607L46.2211 102.959C43.8634 103.89 41.3583 104.927 38.7059 106.069C36.0535 107.212 33.8432 108.164 32.0749 108.926C31.7381 109.095 31.3802 109.264 31.0013 109.434C30.6224 109.603 30.2645 109.772 29.9277 109.941C28.0752 110.872 26.9595 112.607 26.5806 115.146C26.2017 117.686 26.1385 120.775 26.3911 124.414ZM77.4186 78.7109H76.2819C75.9451 78.7109 75.6504 78.6051 75.3978 78.3936C75.1451 78.182 75.0188 77.9492 75.0188 77.6953L73.5032 69.9512C72.1559 69.6126 70.956 68.9567 69.9035 67.9834C68.8509 67.0101 68.0299 66.1426 67.4405 65.3809C67.0195 65.7194 66.5353 66.0156 65.988 66.2695C65.4407 66.5234 64.8302 66.735 64.1565 66.9043C63.4829 67.0736 62.8724 67.2005 62.3251 67.2852C61.7778 67.3698 61.5041 67.4121 61.5041 67.4121C61.5041 67.4121 61.4831 67.4121 61.441 67.4121C61.3989 67.4121 61.3778 67.4121 61.3778 67.4121C61.1252 67.4121 60.3463 67.2852 59.0412 67.0312C57.736 66.7773 56.494 66.2272 55.3151 65.3809C54.7257 66.1426 53.9258 67.0101 52.9153 67.9834C51.9049 68.9567 50.6839 69.6126 49.2525 69.9512L47.8631 77.6953C47.7789 77.9492 47.6315 78.182 47.421 78.3936C47.2105 78.6051 46.9369 78.7109 46.6 78.7109H45.4633C45.2107 78.7109 45.0002 78.6686 44.8318 78.584C44.6633 78.4993 44.4949 78.3724 44.3265 78.2031L43.1898 76.4258C43.1056 76.4258 43.0635 76.3835 43.0635 76.2988C43.0635 76.2142 43.0214 76.1719 42.9372 76.1719C42.9372 76.0872 42.7688 75.4102 42.4319 74.1406C42.0951 72.8711 41.8846 71.263 41.8004 69.3164C41.632 66.7773 41.8004 64.4076 42.3056 62.207C42.8109 60.0065 43.6529 58.1022 44.8318 56.4941C46.4316 54.2936 48.6209 52.6221 51.3997 51.4795C54.1784 50.3369 57.5044 49.7656 61.3778 49.7656C65.3354 49.7656 68.7036 50.3369 71.4823 51.4795C74.261 52.6221 76.4503 54.2936 78.0502 56.4941C79.229 58.1022 80.0711 60.0065 80.5763 62.207C81.0815 64.4076 81.2499 66.7773 81.0815 69.3164C80.9131 71.263 80.6605 72.8711 80.3237 74.1406C79.9869 75.4102 79.8185 76.0872 79.8185 76.1719C79.8185 76.2565 79.7974 76.32 79.7553 76.3623C79.7132 76.4046 79.6922 76.4681 79.6922 76.5527L78.4291 78.2031C78.3449 78.3724 78.1975 78.4993 77.987 78.584C77.7765 78.6686 77.5871 78.7109 77.4186 78.7109ZM67.6931 62.0801C67.9457 62.1647 68.1562 62.2494 68.3246 62.334C68.493 62.4186 68.6193 62.5456 68.7036 62.7148C68.7878 62.7148 69.3982 63.4766 70.535 65C71.6717 66.5234 73.0822 67.4121 74.7662 67.666C75.103 67.666 75.3557 67.7718 75.5241 67.9834C75.6925 68.195 75.8188 68.4277 75.903 68.6816L77.166 75.5371L77.545 75.1562C77.7134 74.4792 78.0502 72.2363 78.5554 68.4277C79.0606 64.6191 78.2186 61.1491 76.0293 58.0176C74.5978 56.071 72.6822 54.6322 70.2824 53.7012C67.8826 52.7702 64.9565 52.3047 61.5041 52.3047C58.0518 52.3047 55.1046 52.7913 52.6627 53.7646C50.2208 54.738 48.2841 56.1556 46.8526 58.0176C44.6633 61.1491 43.8213 64.6191 44.3265 68.4277C44.8318 72.2363 45.1686 74.4792 45.337 75.1562L45.7159 75.6641L46.979 68.6816C46.979 68.4277 47.0842 68.195 47.2947 67.9834C47.5052 67.7718 47.7368 67.666 47.9894 67.666C49.4209 67.4967 50.705 66.7985 51.8417 65.5713C52.9785 64.3441 53.7153 63.3919 54.0521 62.7148C54.2205 62.5456 54.3889 62.4186 54.5573 62.334C54.7257 62.2494 54.8941 62.207 55.0625 62.207C55.3151 62.1224 55.5257 62.1436 55.6941 62.2705C55.8625 62.3975 56.0309 62.5456 56.1993 62.7148C56.7887 63.4766 57.6728 64.0055 58.8517 64.3018C60.0306 64.598 60.8726 64.7884 61.3778 64.873C61.9672 64.7884 62.8514 64.598 64.0302 64.3018C65.2091 64.0055 66.0932 63.4766 66.6827 62.7148C66.7669 62.4609 66.8932 62.2917 67.0616 62.207C67.23 62.1224 67.4405 62.0801 67.6931 62.0801ZM55.3151 113.115C55.1467 113.115 54.9783 113.073 54.8099 112.988C54.6415 112.904 54.4731 112.777 54.3047 112.607L47.6105 104.609L45.5896 102.197C45.5054 102.028 45.4212 101.859 45.337 101.689C45.2528 101.52 45.2528 101.309 45.337 101.055C45.4212 100.885 45.5264 100.716 45.6527 100.547C45.7791 100.378 45.9264 100.251 46.0948 100.166L46.4737 100.039L47.8631 99.5312C47.8631 99.4466 47.8631 99.4043 47.8631 99.4043C47.8631 99.4043 47.9052 99.4043 47.9894 99.4043L48.4946 99.1504C48.4946 99.1504 48.5367 99.1504 48.6209 99.1504L50.2629 98.3887L50.7681 98.2617C50.9365 98.1771 51.1049 98.1348 51.2734 98.1348C51.4418 98.1348 51.6102 98.1771 51.7786 98.2617L61.883 102.578C62.0514 102.663 62.1988 102.79 62.3251 102.959C62.4514 103.128 62.5567 103.298 62.6409 103.467C62.7251 103.636 62.7461 103.826 62.704 104.038C62.6619 104.25 62.5567 104.398 62.3883 104.482L58.3465 109.814L56.3256 112.607C56.2414 112.777 56.1151 112.904 55.9467 112.988C55.7783 113.073 55.5678 113.115 55.3151 113.115ZM48.6209 101.943L49.5051 102.959L55.1888 109.814L56.3256 108.291L59.3569 104.355L51.2734 100.801L49.2525 101.562L48.8735 101.816C48.8735 101.816 48.8525 101.816 48.8104 101.816C48.7683 101.816 48.7051 101.816 48.6209 101.816V101.943ZM114.931 126.953H10.3503C10.0135 126.953 9.71874 126.826 9.46613 126.572C9.21352 126.318 9.08722 126.022 9.08722 125.684C9.08722 125.345 9.21352 125.049 9.46613 124.795C9.71874 124.541 10.0135 124.414 10.3503 124.414H114.931C115.268 124.414 115.563 124.541 115.816 124.795C116.068 125.049 116.195 125.345 116.195 125.684C116.195 126.022 116.068 126.318 115.816 126.572C115.563 126.826 115.268 126.953 114.931 126.953ZM5.80326 126.953H3.52976C3.19294 126.953 2.89823 126.826 2.64562 126.572C2.39301 126.318 2.2667 126.022 2.2667 125.684C2.2667 125.345 2.39301 125.049 2.64562 124.795C2.89823 124.541 3.19294 124.414 3.52976 124.414H5.80326C6.14008 124.414 6.43479 124.541 6.68741 124.795C6.94002 125.049 7.06632 125.345 7.06632 125.684C7.06632 126.022 6.94002 126.318 6.68741 126.572C6.43479 126.826 6.14008 126.953 5.80326 126.953ZM31.5696 109.053H1.50887C1.17205 109.053 0.877338 108.947 0.624726 108.735C0.372115 108.524 0.245809 108.249 0.245809 107.91C-0.0910067 104.863 -0.0699558 102.303 0.308962 100.229C0.687879 98.1559 1.76148 96.6536 3.52976 95.7227C4.456 95.2995 6.18218 94.5378 8.7083 93.4375C11.2344 92.3372 13.2553 91.4909 14.771 90.8984C14.771 90.8138 14.792 90.7715 14.8341 90.7715C14.8762 90.7715 14.8973 90.7715 14.8973 90.7715L15.4025 90.6445C15.4867 90.5599 15.5709 90.4964 15.6551 90.4541C15.7393 90.4118 15.8235 90.3906 15.9077 90.3906C15.9919 90.3906 16.0551 90.3695 16.0972 90.3271C16.1393 90.2848 16.2024 90.2637 16.2866 90.2637L16.413 90.1367C16.4972 90.1367 16.5393 90.1367 16.5393 90.1367C16.6235 90.1367 16.6866 90.1156 16.7287 90.0732C16.7708 90.0309 16.7919 90.0098 16.7919 90.0098C16.7919 90.0098 16.834 90.0098 16.9182 90.0098C16.9182 90.0098 16.9392 89.9886 16.9813 89.9463C17.0234 89.904 17.0445 89.8828 17.0445 89.8828V85.4395C16.7919 85.0163 16.5393 84.5931 16.2866 84.1699C16.034 83.7467 15.8235 83.3236 15.6551 82.9004C15.5709 82.9004 15.4867 82.9004 15.4025 82.9004C15.3183 82.9004 15.2341 82.9004 15.1499 82.9004C14.2237 82.8158 13.529 82.3079 13.0658 81.377C12.6027 80.446 12.2028 79.515 11.8659 78.584C11.4449 77.4837 11.2134 76.5739 11.1713 75.8545C11.1292 75.1351 11.3186 74.5638 11.7396 74.1406C11.8238 74.1406 11.887 74.1195 11.9291 74.0771C11.9712 74.0348 11.9922 74.0137 11.9922 74.0137C11.7396 72.7441 11.6344 71.0091 11.6765 68.8086C11.7186 66.6081 12.4133 64.5345 13.7605 62.5879C14.8552 61.1491 16.3287 60.0277 18.1812 59.2236C20.0337 58.4196 22.2651 58.0176 24.8754 58.0176C27.4858 58.0176 29.7172 58.4196 31.5696 59.2236C33.4221 60.0277 34.8957 61.1491 35.9904 62.5879C37.3376 64.5345 38.0323 66.6081 38.0744 68.8086C38.1165 71.0091 37.9691 72.7441 37.6323 74.0137C37.7165 74.0137 37.7797 74.0348 37.8218 74.0771C37.8639 74.1195 37.8849 74.1406 37.8849 74.1406C38.306 74.5638 38.5165 75.1351 38.5165 75.8545C38.5165 76.5739 38.306 77.4837 37.8849 78.584C37.5481 79.515 37.1271 80.446 36.6219 81.377C36.1167 82.3079 35.443 82.8158 34.601 82.9004C34.5168 82.9004 34.4326 82.9004 34.3484 82.9004C34.2642 82.9004 34.18 82.9004 34.0958 82.9004C33.8432 83.3236 33.5905 83.7467 33.3379 84.1699C33.0853 84.5931 32.8327 85.0163 32.5801 85.4395V89.8828H32.7064C32.7064 89.9674 32.7275 90.0098 32.7696 90.0098C32.8117 90.0098 32.8327 90.0098 32.8327 90.0098C32.8327 90.0098 32.8748 90.0098 32.959 90.0098C33.0432 90.0944 33.1064 90.1367 33.1485 90.1367C33.1906 90.1367 33.2537 90.179 33.3379 90.2637H33.4642C33.4642 90.2637 33.4853 90.2637 33.5274 90.2637C33.5695 90.2637 33.5905 90.2637 33.5905 90.2637C33.6747 90.3483 33.7379 90.3906 33.78 90.3906C33.8221 90.3906 33.8432 90.3906 33.8432 90.3906C33.9274 90.3906 33.9695 90.4118 33.9695 90.4541C33.9695 90.4964 34.0116 90.5176 34.0958 90.5176C34.0958 90.5176 34.1168 90.5176 34.1589 90.5176C34.201 90.5176 34.2642 90.5599 34.3484 90.6445L34.7273 90.7715C34.8115 90.7715 34.8536 90.7715 34.8536 90.7715C34.8536 90.7715 34.8957 90.8138 34.9799 90.8984L35.9904 91.2793C37.8428 92.041 39.8216 92.8662 41.9267 93.7549C44.0318 94.6436 45.4633 95.2995 46.2211 95.7227C47.0632 96.1458 47.7578 96.7383 48.3052 97.5C48.8525 98.2617 49.2525 99.235 49.5051 100.42C49.5893 100.589 49.6103 100.758 49.5682 100.928C49.5261 101.097 49.4209 101.266 49.2525 101.436C49.1683 101.52 49.0841 101.605 48.9998 101.689C48.9156 101.774 48.7893 101.859 48.6209 101.943L46.979 102.578C46.979 102.578 46.9369 102.578 46.8526 102.578C44.4107 103.678 41.7794 104.821 38.9585 106.006C36.1377 107.191 33.8432 108.164 32.0749 108.926C31.9907 109.01 31.9065 109.053 31.8223 109.053C31.7381 109.053 31.6539 109.053 31.5696 109.053ZM2.64562 106.514H31.317C33.1695 105.667 35.4851 104.673 38.2639 103.53C41.0426 102.388 43.6529 101.266 46.0948 100.166C46.0948 100.166 46.1159 100.166 46.158 100.166C46.2001 100.166 46.2211 100.166 46.2211 100.166L46.8526 99.9121C46.6842 99.4889 46.4527 99.1081 46.158 98.7695C45.8633 98.431 45.5475 98.1771 45.2107 98.0078C44.4528 97.6693 43.0214 97.0557 40.9163 96.167C38.8112 95.2783 36.8745 94.4531 35.1062 93.6914L34.2221 93.3105C34.1379 93.3105 34.0958 93.2894 34.0958 93.2471C34.0958 93.2048 34.0958 93.1836 34.0958 93.1836L33.8432 93.0566C33.8432 93.0566 33.8221 93.0566 33.78 93.0566C33.7379 93.0566 33.7168 93.0566 33.7168 93.0566L33.4642 92.9297C33.38 92.9297 33.3379 92.9297 33.3379 92.9297C33.3379 92.9297 33.2958 92.9297 33.2116 92.9297C33.2116 92.9297 33.1695 92.9085 33.0853 92.8662C33.0011 92.8239 32.9169 92.7604 32.8327 92.6758C32.8327 92.6758 32.8117 92.6758 32.7696 92.6758C32.7275 92.6758 32.7064 92.6758 32.7064 92.6758H32.5801C32.5801 92.5911 32.559 92.5488 32.5169 92.5488C32.4748 92.5488 32.4538 92.5488 32.4538 92.5488C32.3696 92.5488 32.3064 92.5277 32.2643 92.4854C32.2222 92.443 32.2012 92.4219 32.2012 92.4219C32.117 92.4219 32.0538 92.4219 32.0117 92.4219C31.9696 92.4219 31.9065 92.3796 31.8223 92.2949C31.8223 92.2949 31.8433 92.2949 31.8854 92.2949C31.9275 92.2949 31.9486 92.3372 31.9486 92.4219C31.9486 92.4219 31.9275 92.4007 31.8854 92.3584C31.8433 92.3161 31.8223 92.2949 31.8223 92.2949L31.0644 92.041C30.8118 91.8717 30.6224 91.6813 30.496 91.4697C30.3697 91.2581 30.3066 91.0254 30.3066 90.7715V85.5664C30.2224 85.3971 30.2013 85.2067 30.2434 84.9951C30.2855 84.7835 30.3487 84.5931 30.4329 84.4238C30.7697 83.916 31.1276 83.3236 31.5065 82.6465C31.8854 81.9694 32.2012 81.2923 32.4538 80.6152C32.6222 80.3613 32.7906 80.1497 32.959 79.9805C33.1274 79.8112 33.3379 79.7266 33.5905 79.7266C33.8432 79.7266 34.0537 79.7689 34.2221 79.8535C34.3905 79.9382 34.5168 80.0651 34.601 80.2344C34.7694 80.0651 34.9378 79.79 35.1062 79.4092C35.2746 79.0283 35.443 78.4993 35.6114 77.8223C35.6114 77.8223 35.6114 77.8011 35.6114 77.7588C35.6114 77.7165 35.6114 77.6953 35.6114 77.6953C35.6956 77.526 35.7798 77.3568 35.864 77.1875C35.9482 77.0182 35.9904 76.849 35.9904 76.6797C35.9061 76.6797 35.8219 76.6585 35.7377 76.6162C35.6535 76.5739 35.5693 76.5104 35.4851 76.4258C35.2325 76.2565 35.0641 76.0449 34.9799 75.791C34.8957 75.5371 34.8957 75.2832 34.9799 75.0293C34.9799 75.0293 35.2115 73.7386 35.6746 71.1572C36.1377 68.5758 35.6114 66.2695 34.0958 64.2383C33.2537 63.0534 32.0749 62.1647 30.5592 61.5723C29.0435 60.9798 27.191 60.6836 25.0017 60.6836C22.8124 60.6836 20.96 60.9798 19.4443 61.5723C17.9286 62.1647 16.7498 63.0534 15.9077 64.2383C14.3921 66.3542 13.8658 68.6816 14.3289 71.2207C14.792 73.7598 15.0236 75.0293 15.0236 75.0293C15.1078 75.2832 15.1078 75.5371 15.0236 75.791C14.9394 76.0449 14.771 76.2565 14.5184 76.4258C14.4342 76.5104 14.35 76.5739 14.2658 76.6162C14.1815 76.6585 14.0973 76.6797 14.0131 76.6797C14.0131 76.849 14.0552 77.0182 14.1394 77.1875C14.2237 77.3568 14.3079 77.526 14.3921 77.6953C14.3921 77.6953 14.3921 77.7165 14.3921 77.7588C14.3921 77.8011 14.3921 77.8223 14.3921 77.8223C14.5605 78.4993 14.7289 79.0072 14.8973 79.3457C15.0657 79.6842 15.2341 79.9382 15.4025 80.1074C15.4867 80.0228 15.613 79.9382 15.7814 79.8535C15.9498 79.7689 16.1182 79.7266 16.2866 79.7266C16.5393 79.7266 16.7708 79.8112 16.9813 79.9805C17.1918 80.1497 17.3392 80.3613 17.4234 80.6152C17.7602 81.2923 18.097 81.9694 18.4338 82.6465C18.7707 83.3236 19.1496 83.916 19.5706 84.4238C19.6548 84.5931 19.718 84.7835 19.7601 84.9951C19.8022 85.2067 19.7811 85.3971 19.6969 85.5664V90.7715C19.6969 91.0254 19.6337 91.2581 19.5074 91.4697C19.3811 91.6813 19.1917 91.8294 18.9391 91.9141L18.6865 92.168C18.6865 92.168 18.6654 92.168 18.6233 92.168C18.5812 92.168 18.5602 92.168 18.5602 92.168L18.1812 92.2949C18.097 92.3796 18.0339 92.4219 17.9918 92.4219C17.9497 92.4219 17.8865 92.4219 17.8023 92.4219C17.8023 92.4219 17.8023 92.443 17.8023 92.4854C17.8023 92.5277 17.8023 92.5488 17.8023 92.5488C17.7181 92.5488 17.655 92.57 17.6129 92.6123C17.5708 92.6546 17.5076 92.6758 17.4234 92.6758H17.2971C17.2129 92.6758 17.1708 92.6758 17.1708 92.6758C17.1708 92.6758 17.1708 92.7181 17.1708 92.8027C17.0866 92.8027 17.0445 92.8027 17.0445 92.8027C17.0445 92.8027 17.0024 92.8451 16.9182 92.9297C16.9182 92.9297 16.8761 92.9508 16.7919 92.9932C16.7077 93.0355 16.6235 93.0566 16.5393 93.0566L16.1603 93.1836L15.9077 93.3105C15.9077 93.3105 15.8867 93.3105 15.8446 93.3105C15.8025 93.3105 15.7814 93.3105 15.7814 93.3105C14.0131 94.0723 11.9501 94.9609 9.59244 95.9766C7.23473 96.9922 5.63486 97.7116 4.79282 98.1348C4.03498 98.3887 3.4245 99.0658 2.96138 100.166C2.49826 101.266 2.39301 103.382 2.64562 106.514ZM121.499 108.672H91.4386C91.3544 108.672 91.2702 108.651 91.186 108.608C91.1018 108.566 91.0176 108.545 90.9334 108.545C89.0809 107.699 86.7653 106.683 83.9865 105.498C81.2078 104.313 78.5975 103.213 76.1556 102.197C76.0714 102.197 76.0293 102.197 76.0293 102.197L75.0188 101.816L74.261 101.436C74.1768 101.436 74.0926 101.393 74.0084 101.309C73.9242 101.224 73.84 101.139 73.7558 101.055C73.6716 100.885 73.5874 100.716 73.5032 100.547C73.419 100.378 73.419 100.208 73.5032 100.039C73.7558 98.8542 74.1347 97.8809 74.6399 97.1191C75.1451 96.3574 75.8609 95.765 76.7871 95.3418C77.545 94.9186 78.9764 94.2627 81.0815 93.374C83.1866 92.4854 85.1654 91.6602 87.0179 90.8984L88.0283 90.5176C88.0283 90.4329 88.0494 90.3906 88.0915 90.3906C88.1336 90.3906 88.1546 90.3906 88.1546 90.3906L88.6599 90.2637C88.6599 90.179 88.6809 90.1367 88.723 90.1367C88.7651 90.1367 88.7862 90.1367 88.7862 90.1367C88.8704 90.1367 88.9335 90.1367 88.9756 90.1367C89.0177 90.1367 89.0388 90.0944 89.0388 90.0098C89.123 90.0098 89.1861 90.0098 89.2282 90.0098C89.2703 90.0098 89.3335 89.9674 89.4177 89.8828C89.4177 89.8828 89.4388 89.8828 89.4809 89.8828C89.523 89.8828 89.544 89.8828 89.544 89.8828L89.6703 89.7559C89.7545 89.7559 89.8177 89.7347 89.8598 89.6924C89.9019 89.6501 89.965 89.6289 90.0492 89.6289C90.0492 89.6289 90.0703 89.6289 90.1124 89.6289C90.1545 89.6289 90.1755 89.6289 90.1755 89.6289C90.1755 89.6289 90.1966 89.6077 90.2387 89.5654C90.2808 89.5231 90.3018 89.502 90.3018 89.502V85.0586C90.0492 84.6354 89.8177 84.2122 89.6072 83.7891C89.3967 83.3659 89.1651 82.9427 88.9125 82.5195C88.8283 82.5195 88.7441 82.5195 88.6599 82.5195C88.5757 82.5195 88.4915 82.5195 88.4073 82.5195C87.5652 82.4349 86.8916 81.9271 86.3864 80.9961C85.8811 80.0651 85.4601 79.1341 85.1233 78.2031C84.7023 77.1029 84.4707 76.193 84.4286 75.4736C84.3865 74.7542 84.576 74.1829 84.997 73.7598C85.0812 73.7598 85.1444 73.7386 85.1865 73.6963C85.2286 73.654 85.2496 73.6328 85.2496 73.6328C84.997 72.3633 84.8917 70.6283 84.9338 68.4277C84.976 66.2272 85.6706 64.1536 87.0179 62.207C88.1125 60.6836 89.5861 59.541 91.4386 58.7793C93.2911 58.0176 95.5225 57.6367 98.1328 57.6367C100.743 57.6367 102.975 58.0387 104.827 58.8428C106.679 59.6468 108.153 60.7682 109.248 62.207C110.595 64.1536 111.29 66.2272 111.332 68.4277C111.374 70.6283 111.269 72.3633 111.016 73.6328C111.016 73.6328 111.037 73.654 111.079 73.6963C111.121 73.7386 111.184 73.7598 111.269 73.7598C111.69 74.1829 111.879 74.7542 111.837 75.4736C111.795 76.193 111.563 77.1029 111.142 78.2031C110.805 79.1341 110.384 80.0651 109.879 80.9961C109.374 81.9271 108.7 82.4349 107.858 82.5195C107.774 82.5195 107.69 82.5195 107.606 82.5195C107.522 82.5195 107.437 82.5195 107.353 82.5195C107.101 82.9427 106.869 83.3659 106.658 83.7891C106.448 84.2122 106.216 84.6354 105.964 85.0586V89.502C105.964 89.502 105.985 89.5231 106.027 89.5654C106.069 89.6077 106.132 89.6289 106.216 89.6289C106.216 89.6289 106.237 89.6289 106.28 89.6289C106.322 89.6289 106.385 89.6712 106.469 89.7559H106.595C106.679 89.8405 106.764 89.8828 106.848 89.8828C106.932 89.8828 107.016 89.9251 107.101 90.0098C107.185 90.0098 107.269 90.0309 107.353 90.0732C107.437 90.1156 107.522 90.1367 107.606 90.1367L108.111 90.3906C109.711 91.0677 111.774 91.9564 114.3 93.0566C116.826 94.1569 118.552 94.9186 119.478 95.3418C121.247 96.2728 122.32 97.7751 122.699 99.8486C123.078 101.922 123.099 104.482 122.762 107.529C122.762 107.868 122.636 108.143 122.384 108.354C122.131 108.566 121.836 108.672 121.499 108.672ZM91.6912 106.133H120.363C120.615 103.001 120.51 100.885 120.047 99.7852C119.584 98.6849 119.015 97.9655 118.342 97.627C117.5 97.2038 115.879 96.4844 113.479 95.4688C111.079 94.4531 108.995 93.5645 107.227 92.8027L106.974 92.6758L106.595 92.5488C106.511 92.4642 106.448 92.4219 106.406 92.4219C106.364 92.4219 106.301 92.3796 106.216 92.2949C106.216 92.2949 106.195 92.2949 106.153 92.2949C106.111 92.2949 106.09 92.2949 106.09 92.2949C106.006 92.2949 105.964 92.2949 105.964 92.2949C105.964 92.2949 105.964 92.2526 105.964 92.168H105.711C105.627 92.0833 105.564 92.041 105.522 92.041C105.48 92.041 105.416 91.9987 105.332 91.9141C105.248 91.9141 105.206 91.9141 105.206 91.9141C105.206 91.9141 105.164 91.9141 105.08 91.9141C105.08 91.9141 105.08 91.8929 105.08 91.8506C105.08 91.8083 105.038 91.7871 104.953 91.7871L104.195 91.4062C103.943 91.3216 103.753 91.1735 103.627 90.9619C103.501 90.7503 103.438 90.5176 103.438 90.2637V85.0586C103.353 84.8893 103.332 84.6989 103.374 84.4873C103.417 84.2757 103.48 84.0853 103.564 83.916C103.985 83.4082 104.364 82.8369 104.701 82.2021C105.038 81.5674 105.374 80.8691 105.711 80.1074C105.795 79.8535 105.943 79.6419 106.153 79.4727C106.364 79.3034 106.595 79.2188 106.848 79.2188C107.016 79.2188 107.185 79.2611 107.353 79.3457C107.522 79.4303 107.648 79.5573 107.732 79.7266C107.9 79.5573 108.069 79.2822 108.237 78.9014C108.406 78.5205 108.574 77.9915 108.742 77.3145C108.742 77.3145 108.742 77.2721 108.742 77.1875C108.827 77.0182 108.89 76.849 108.932 76.6797C108.974 76.5104 109.037 76.3835 109.121 76.2988C109.037 76.2142 108.932 76.1507 108.806 76.1084C108.679 76.0661 108.574 76.0449 108.49 76.0449C108.321 75.8757 108.195 75.6641 108.111 75.4102C108.027 75.1562 108.027 74.9023 108.111 74.6484C108.111 74.5638 108.343 73.252 108.806 70.7129C109.269 68.1738 108.742 65.8464 107.227 63.7305C106.385 62.5456 105.206 61.6569 103.69 61.0645C102.175 60.472 100.322 60.1758 98.1328 60.1758C95.9435 60.1758 94.091 60.472 92.5753 61.0645C91.0597 61.6569 89.8808 62.5456 89.0388 63.7305C87.5231 65.8464 86.9758 68.1738 87.3968 70.7129C87.8178 73.252 88.0704 74.5638 88.1546 74.6484C88.1546 74.9023 88.1336 75.1562 88.0915 75.4102C88.0494 75.6641 87.902 75.8757 87.6494 76.0449C87.5652 76.0449 87.481 76.0661 87.3968 76.1084C87.3126 76.1507 87.2284 76.2142 87.1442 76.2988C87.1442 76.4681 87.1863 76.6374 87.2705 76.8066C87.3547 76.9759 87.3968 77.1029 87.3968 77.1875C87.481 77.2721 87.5231 77.3145 87.5231 77.3145C87.6915 77.9915 87.8599 78.5205 88.0283 78.9014C88.1967 79.2822 88.3652 79.5573 88.5336 79.7266C88.6178 79.5573 88.7441 79.4303 88.9125 79.3457C89.0809 79.2611 89.2493 79.2188 89.4177 79.2188C89.6703 79.2188 89.9019 79.3034 90.1124 79.4727C90.3229 79.6419 90.4703 79.8535 90.5545 80.1074C90.8913 80.8691 91.2281 81.5674 91.5649 82.2021C91.9017 82.8369 92.2806 83.4082 92.7017 83.916C92.7859 84.0853 92.849 84.2757 92.8911 84.4873C92.9332 84.6989 92.9122 84.8893 92.828 85.0586V90.3906C92.828 90.6445 92.7648 90.8773 92.6385 91.0889C92.5122 91.3005 92.3227 91.4486 92.0701 91.5332L91.3123 91.9141C91.2281 91.9141 91.186 91.9141 91.186 91.9141C91.186 91.9141 91.1649 91.9141 91.1228 91.9141C91.0807 91.9141 91.0176 91.9564 90.9334 92.041C90.8492 92.041 90.786 92.041 90.7439 92.041C90.7018 92.041 90.6808 92.0833 90.6808 92.168C90.6808 92.168 90.6597 92.168 90.6176 92.168C90.5755 92.168 90.5545 92.168 90.5545 92.168H90.4281C90.4281 92.2526 90.4071 92.2949 90.365 92.2949C90.3229 92.2949 90.3018 92.2949 90.3018 92.2949H90.1755C90.0913 92.3796 89.9861 92.443 89.8598 92.4854C89.7335 92.5277 89.6282 92.5488 89.544 92.5488L89.2914 92.6758L89.0388 92.8027C88.9546 92.8027 88.9125 92.8027 88.9125 92.8027L88.0283 93.1836C86.1758 93.9453 84.1971 94.7705 82.092 95.6592C79.9869 96.5479 78.5975 97.2038 77.9239 97.627C77.5871 97.7962 77.2713 98.0078 76.9766 98.2617C76.6819 98.5156 76.4503 98.9388 76.2819 99.5312L76.7871 99.7852C76.8713 99.7852 76.9134 99.7852 76.9134 99.7852C76.9134 99.7852 76.9555 99.7852 77.0397 99.7852C79.4816 100.801 82.0709 101.901 84.8075 103.086C87.5442 104.271 89.8387 105.286 91.6912 106.133ZM121.247 78.8379H112.658C112.321 78.8379 112.026 78.7109 111.774 78.457C111.521 78.2031 111.395 77.9069 111.395 77.5684C111.395 77.2298 111.521 76.9336 111.774 76.6797C112.026 76.4258 112.321 76.2988 112.658 76.2988H119.984V54.7168H103.69C103.438 54.7168 103.185 54.6322 102.932 54.4629C102.68 54.2936 102.511 54.0397 102.427 53.7012C102.09 52.2624 101.585 50.7601 100.912 49.1943C100.238 47.6286 99.4801 46.0417 98.638 44.4336C98.4696 44.1797 98.4065 43.9046 98.4486 43.6084C98.4907 43.3122 98.5959 43.0794 98.7643 42.9102L110.258 31.3574L95.3541 16.25L83.8602 27.8027C83.6076 28.0566 83.355 28.1836 83.1024 28.1836C82.8498 28.1836 82.5972 28.1413 82.3446 28.0566C80.9973 27.2949 79.5658 26.5967 78.0502 25.9619C76.5345 25.3271 74.8504 24.7135 72.9979 24.1211C72.7453 24.0365 72.5348 23.8883 72.3664 23.6768C72.198 23.4652 72.1138 23.2324 72.1138 22.9785V6.47461H50.6418V22.9785C50.6418 23.2324 50.5576 23.4652 50.3892 23.6768C50.2208 23.8883 49.9682 24.0365 49.6314 24.1211C48.1999 24.5443 46.7474 25.0944 45.2738 25.7715C43.8003 26.4486 42.3056 27.168 40.79 27.9297L40.4111 28.0566C40.1584 28.2259 39.8848 28.2894 39.5901 28.2471C39.2954 28.2048 39.0638 28.0566 38.8954 27.8027L27.4016 16.25L20.96 22.5977L12.3712 31.3574L23.865 42.9102C24.1176 43.0794 24.2439 43.3122 24.2439 43.6084C24.2439 43.9046 24.2018 44.1797 24.1176 44.4336C23.3598 45.7878 22.6651 47.2266 22.0336 48.75C21.402 50.2734 20.7916 51.9661 20.2021 53.8281C20.1179 54.082 19.9706 54.2936 19.7601 54.4629C19.5495 54.6322 19.318 54.7168 19.0654 54.7168H2.64562V76.2988H10.3503C10.6871 76.2988 10.9818 76.4258 11.2344 76.6797C11.487 76.9336 11.6133 77.2298 11.6133 77.5684C11.6133 77.9069 11.487 78.2031 11.2344 78.457C10.9818 78.7109 10.6871 78.8379 10.3503 78.8379H1.38256C1.04575 78.8379 0.751032 78.7109 0.49842 78.457C0.245809 78.2031 0.119503 77.9069 0.119503 77.5684V53.4473C0.119503 53.1087 0.245809 52.8125 0.49842 52.5586C0.751032 52.3047 1.04575 52.1777 1.38256 52.1777H18.0549C18.6444 50.6543 19.1917 49.2155 19.6969 47.8613C20.2021 46.5072 20.7916 45.2376 21.4652 44.0527L9.71874 32.2461C9.46613 31.9922 9.33983 31.696 9.33983 31.3574C9.33983 31.0189 9.46613 30.7227 9.71874 30.4688L19.1917 20.8203L26.5174 13.584C26.77 13.3301 27.0647 13.2031 27.4016 13.2031C27.7384 13.2031 28.0331 13.3301 28.2857 13.584L40.0321 25.3906C41.3794 24.7135 42.7267 24.0788 44.0739 23.4863C45.4212 22.8939 46.7684 22.3861 48.1157 21.9629V5.20508C48.1157 4.86654 48.242 4.57031 48.4946 4.31641C48.7472 4.0625 49.042 3.93555 49.3788 3.93555H73.3769C73.7137 3.93555 74.0084 4.0625 74.261 4.31641C74.5136 4.57031 74.6399 4.86654 74.6399 5.20508V21.9629C76.1556 22.4707 77.5871 22.9997 78.9343 23.5498C80.2816 24.0999 81.5446 24.7135 82.7235 25.3906L94.4699 13.584C94.5541 13.4147 94.6804 13.3089 94.8489 13.2666C95.0173 13.2243 95.1857 13.2031 95.3541 13.2031C95.5225 13.2031 95.6909 13.2243 95.8593 13.2666C96.0277 13.3089 96.154 13.4147 96.2382 13.584L113.037 30.4688C113.289 30.7227 113.416 31.0189 113.416 31.3574C113.416 31.696 113.289 31.9922 113.037 32.2461L101.29 44.0527C101.964 45.4915 102.596 46.8669 103.185 48.1787C103.774 49.4906 104.28 50.8236 104.701 52.1777H121.373C121.71 52.1777 122.005 52.3047 122.257 52.5586C122.51 52.8125 122.636 53.1087 122.636 53.4473V77.5684C122.552 77.9069 122.405 78.2031 122.194 78.457C121.984 78.7109 121.668 78.8379 121.247 78.8379ZM93.8384 60.6836C93.5016 60.6836 93.2279 60.5778 93.0174 60.3662C92.8069 60.1546 92.6596 59.8796 92.5753 59.541C92.5753 59.3717 92.5543 59.1813 92.5122 58.9697C92.4701 58.7581 92.4069 58.5677 92.3227 58.3984C92.3227 58.0599 92.4069 57.7425 92.5753 57.4463C92.7438 57.1501 92.9964 56.9596 93.3332 56.875C93.67 56.7904 93.9858 56.8538 94.2805 57.0654C94.5752 57.277 94.7646 57.5521 94.8489 57.8906C94.8489 58.0599 94.8699 58.2503 94.912 58.4619C94.9541 58.6735 95.0173 58.9062 95.1015 59.1602C95.1857 59.4987 95.1225 59.8161 94.912 60.1123C94.7015 60.4085 94.4278 60.599 94.091 60.6836C94.0068 60.6836 93.9437 60.6836 93.9016 60.6836C93.8595 60.6836 93.8384 60.6836 93.8384 60.6836ZM30.5592 54.4629C30.5592 54.4629 30.5171 54.4629 30.4329 54.4629C30.3487 54.4629 30.2645 54.4629 30.1803 54.4629C29.8435 54.2936 29.5909 54.0609 29.4224 53.7646C29.254 53.4684 29.254 53.151 29.4224 52.8125C29.5909 52.3893 29.7593 51.9661 29.9277 51.543C30.0961 51.1198 30.2645 50.6966 30.4329 50.2734C30.6013 49.9349 30.8539 49.7233 31.1907 49.6387C31.5275 49.554 31.8644 49.554 32.2012 49.6387C32.538 49.8079 32.7485 50.0619 32.8327 50.4004C32.9169 50.7389 32.9169 51.0775 32.8327 51.416C32.5801 51.7546 32.3906 52.1143 32.2643 52.4951C32.138 52.876 31.9907 53.278 31.8223 53.7012C31.7381 53.9551 31.5696 54.1455 31.317 54.2725C31.0644 54.3994 30.8118 54.4629 30.5592 54.4629ZM92.1964 54.4629C91.9438 54.4629 91.6912 54.3994 91.4386 54.2725C91.186 54.1455 91.0176 53.9551 90.9334 53.7012C90.765 53.278 90.6176 52.876 90.4913 52.4951C90.365 52.1143 90.1755 51.7546 89.9229 51.416C89.8387 51.0775 89.8387 50.7389 89.9229 50.4004C90.0071 50.0619 90.2176 49.8079 90.5545 49.6387C90.8913 49.554 91.2281 49.554 91.5649 49.6387C91.9017 49.7233 92.1543 49.9349 92.3227 50.2734C92.4911 50.6966 92.6596 51.1198 92.828 51.543C92.9964 51.9661 93.1648 52.3893 93.3332 52.8125C93.4174 53.0664 93.3963 53.3626 93.27 53.7012C93.1437 54.0397 92.9122 54.2936 92.5753 54.4629C92.4911 54.4629 92.428 54.4629 92.3859 54.4629C92.3438 54.4629 92.2806 54.4629 92.1964 54.4629ZM34.2221 47.7344C34.0537 47.7344 33.9063 47.7132 33.78 47.6709C33.6537 47.6286 33.5484 47.5651 33.4642 47.4805C33.2116 47.2266 33.0432 46.9303 32.959 46.5918C32.8748 46.2533 32.9169 45.957 33.0853 45.7031C33.3379 45.2799 33.6116 44.8991 33.9063 44.5605C34.201 44.222 34.4747 43.8835 34.7273 43.5449C34.9799 43.291 35.2746 43.1429 35.6114 43.1006C35.9482 43.0583 36.243 43.1217 36.4956 43.291C36.7482 43.5449 36.8955 43.8411 36.9376 44.1797C36.9797 44.5182 36.9166 44.8145 36.7482 45.0684C36.4956 45.4069 36.243 45.7454 35.9904 46.084C35.7377 46.4225 35.4851 46.7611 35.2325 47.0996C35.1483 47.2689 35.001 47.417 34.7904 47.5439C34.5799 47.6709 34.3905 47.7344 34.2221 47.7344ZM88.5336 47.6074C88.3652 47.6074 88.1967 47.5651 88.0283 47.4805C87.8599 47.3958 87.6915 47.2689 87.5231 47.0996C87.2705 46.7611 87.0389 46.4225 86.8284 46.084C86.6179 45.7454 86.3864 45.4069 86.1338 45.0684C85.8811 44.8145 85.7759 44.5182 85.818 44.1797C85.8601 43.8411 86.0074 43.5449 86.2601 43.291C86.5127 43.1217 86.8284 43.0583 87.2074 43.1006C87.5863 43.1429 87.8599 43.291 88.0283 43.5449C88.281 43.8835 88.5546 44.2432 88.8493 44.624C89.144 45.0049 89.4177 45.3646 89.6703 45.7031C89.8387 45.957 89.9019 46.2533 89.8598 46.5918C89.8177 46.9303 89.6282 47.2266 89.2914 47.4805C89.2072 47.5651 89.1019 47.6074 88.9756 47.6074C88.8493 47.6074 88.702 47.6074 88.5336 47.6074ZM39.148 41.8945C38.9796 41.8945 38.8322 41.8522 38.7059 41.7676C38.5796 41.6829 38.4323 41.5983 38.2639 41.5137C38.0112 41.2598 37.906 40.9424 37.9481 40.5615C37.9902 40.1807 38.1376 39.8633 38.3902 39.6094C38.6428 39.3555 38.9585 39.0804 39.3375 38.7842C39.7164 38.488 40.0742 38.2129 40.4111 37.959C40.6637 37.7051 40.9584 37.5993 41.2952 37.6416C41.632 37.6839 41.9267 37.8744 42.1793 38.2129C42.3477 38.4668 42.4109 38.763 42.3688 39.1016C42.3267 39.4401 42.1793 39.7363 41.9267 39.9902C41.5899 40.2441 41.2531 40.498 40.9163 40.752C40.5795 41.0059 40.2847 41.2598 40.0321 41.5137C39.9479 41.6829 39.8216 41.7887 39.6532 41.8311C39.4848 41.8734 39.3164 41.8945 39.148 41.8945ZM83.4813 41.8945C83.3971 41.8945 83.2708 41.8734 83.1024 41.8311C82.934 41.7887 82.8077 41.6829 82.7235 41.5137C82.3867 41.2598 82.0709 41.0059 81.7762 40.752C81.4815 40.498 81.1657 40.2441 80.8289 39.9902C80.4921 39.7363 80.3026 39.4401 80.2605 39.1016C80.2184 38.763 80.3237 38.4668 80.5763 38.2129C80.7447 37.8744 81.0184 37.6839 81.3973 37.6416C81.7762 37.5993 82.092 37.7051 82.3446 37.959C82.6814 38.2129 83.0182 38.488 83.355 38.7842C83.6918 39.0804 84.0287 39.3555 84.3655 39.6094C84.6181 39.8633 84.7444 40.1595 84.7444 40.498C84.7444 40.8366 84.6181 41.1751 84.3655 41.5137C84.2813 41.5983 84.176 41.6829 84.0497 41.7676C83.9234 41.8522 83.7339 41.8945 83.4813 41.8945ZM45.4633 37.4512C45.2107 37.4512 44.9791 37.3877 44.7686 37.2607C44.5581 37.1338 44.4107 36.9434 44.3265 36.6895C44.1581 36.4355 44.116 36.1393 44.2002 35.8008C44.2844 35.4622 44.4949 35.2083 44.8318 35.0391C45.2528 34.7852 45.6527 34.5736 46.0317 34.4043C46.4106 34.235 46.8105 34.0234 47.2316 33.7695C47.5684 33.6849 47.8841 33.7061 48.1789 33.833C48.4736 33.96 48.7051 34.1504 48.8735 34.4043C49.042 34.7428 49.063 35.0814 48.9367 35.4199C48.8104 35.7585 48.5788 36.0124 48.242 36.1816C47.9052 36.3509 47.5473 36.5202 47.1684 36.6895C46.7895 36.8587 46.4316 37.028 46.0948 37.1973C45.9264 37.2819 45.8001 37.3454 45.7159 37.3877C45.6317 37.43 45.5475 37.4512 45.4633 37.4512ZM77.2923 37.3242C77.2081 37.3242 77.1029 37.3242 76.9766 37.3242C76.8503 37.3242 76.745 37.2819 76.6608 37.1973C76.324 37.028 75.9661 36.8587 75.5872 36.6895C75.2083 36.5202 74.8504 36.3086 74.5136 36.0547C74.1768 35.9701 73.9452 35.7585 73.8189 35.4199C73.6926 35.0814 73.7137 34.7428 73.8821 34.4043C73.9663 34.0658 74.1768 33.8542 74.5136 33.7695C74.8504 33.6849 75.1872 33.6849 75.5241 33.7695C75.9451 33.9388 76.3451 34.1292 76.724 34.3408C77.1029 34.5524 77.5029 34.7852 77.9239 35.0391C78.1765 35.2083 78.3659 35.4622 78.4922 35.8008C78.6186 36.1393 78.5975 36.4355 78.4291 36.6895C78.2607 36.9434 78.0923 37.1126 77.9239 37.1973C77.7555 37.2819 77.545 37.3242 77.2923 37.3242ZM52.5364 34.5312C52.2838 34.5312 52.0312 34.4466 51.7786 34.2773C51.526 34.1081 51.3576 33.8542 51.2734 33.5156C51.1891 33.1771 51.2313 32.8597 51.3997 32.5635C51.5681 32.2673 51.8207 32.0768 52.1575 31.9922C52.5785 31.8229 52.9995 31.696 53.4206 31.6113C53.8416 31.5267 54.3047 31.4421 54.8099 31.3574C55.1467 31.2728 55.4414 31.3363 55.6941 31.5479C55.9467 31.7594 56.1151 32.0345 56.1993 32.373C56.2835 32.7116 56.2414 33.029 56.073 33.3252C55.9046 33.6214 55.652 33.8119 55.3151 33.8965C54.8941 33.8965 54.4731 33.96 54.0521 34.0869C53.6311 34.2139 53.2521 34.3197 52.9153 34.4043C52.8311 34.4043 52.768 34.4255 52.7259 34.4678C52.6838 34.5101 52.6206 34.5312 52.5364 34.5312ZM70.2192 34.4043C70.135 34.4043 70.0719 34.4043 70.0298 34.4043C69.9877 34.4043 69.9245 34.4043 69.8403 34.4043C69.5035 34.3197 69.1246 34.235 68.7036 34.1504C68.2825 34.0658 67.8615 33.9811 67.4405 33.8965C67.1037 33.8119 66.8511 33.6214 66.6827 33.3252C66.5143 33.029 66.43 32.7116 66.43 32.373C66.5143 32.0345 66.7037 31.7594 66.9984 31.5479C67.2931 31.3363 67.6089 31.2728 67.9457 31.3574C68.3667 31.4421 68.8088 31.5267 69.2719 31.6113C69.735 31.696 70.1771 31.8229 70.5981 31.9922C70.935 32.0768 71.1876 32.2673 71.356 32.5635C71.5244 32.8597 71.5665 33.1771 71.4823 33.5156C71.3981 33.7695 71.2297 33.9811 70.9771 34.1504C70.7244 34.3197 70.4718 34.4043 70.2192 34.4043ZM60.1148 33.2617C59.7779 33.2617 59.4832 33.1559 59.2306 32.9443C58.978 32.7327 58.8517 32.4577 58.8517 32.1191C58.8517 31.696 58.957 31.3574 59.1675 31.1035C59.378 30.8496 59.6516 30.7227 59.9885 30.7227C60.4937 30.7227 60.9568 30.7227 61.3778 30.7227C61.7988 30.7227 62.2199 30.7227 62.6409 30.7227C63.0619 30.7227 63.3777 30.8496 63.5882 31.1035C63.7987 31.3574 63.9039 31.696 63.9039 32.1191C63.9039 32.4577 63.7776 32.7327 63.525 32.9443C63.2724 33.1559 62.9777 33.2617 62.6409 33.2617C62.2199 33.2617 61.7988 33.2617 61.3778 33.2617C60.9568 33.2617 60.5358 33.2617 60.1148 33.2617ZM28.9172 60.6836C28.833 60.6836 28.7699 60.6836 28.7278 60.6836C28.6857 60.6836 28.6646 60.6836 28.6646 60.6836C28.3278 60.599 28.0541 60.4085 27.8436 60.1123C27.6331 59.8161 27.57 59.4987 27.6542 59.1602C27.6542 58.9909 27.6752 58.8005 27.7173 58.5889C27.7594 58.3773 27.8226 58.1445 27.9068 57.8906C27.991 57.5521 28.1804 57.2982 28.4752 57.1289C28.7699 56.9596 29.0856 56.875 29.4224 56.875C29.7593 56.9596 30.0119 57.1501 30.1803 57.4463C30.3487 57.7425 30.3908 58.0599 30.3066 58.3984C30.3066 58.6523 30.2855 58.8639 30.2434 59.0332C30.2013 59.2025 30.1382 59.4141 30.054 59.668C30.054 59.9219 29.9277 60.1546 29.6751 60.3662C29.4224 60.5778 29.1698 60.6836 28.9172 60.6836Z" fill="#DC052D"/>
</svg>
