<svg width="130" height="130" viewBox="0 0 130 130" fill="none" xmlns="http://www.w3.org/2000/svg">
<path d="M33.1002 129.238H14.9121C14.5753 129.238 14.2806 129.111 14.028 128.857C13.7754 128.604 13.6491 128.307 13.6491 127.969V76.6797H8.09163C7.83902 76.6797 7.62851 76.6162 7.4601 76.4893C7.29169 76.3623 7.12328 76.2142 6.95488 76.0449C6.87067 75.791 6.82857 75.5583 6.82857 75.3467C6.82857 75.1351 6.91277 74.9447 7.08118 74.7754L22.9957 49.6387C23.0799 49.4694 23.2062 49.3213 23.3746 49.1943C23.543 49.0674 23.7535 49.0039 24.0062 49.0039C24.2588 49.0039 24.4693 49.0462 24.6377 49.1309C24.8061 49.2155 24.9324 49.3848 25.0166 49.6387L40.9311 74.7754C41.0995 74.9447 41.1838 75.1351 41.1838 75.3467C41.1838 75.5583 41.1416 75.791 41.0574 76.0449C40.889 76.2142 40.7206 76.3623 40.5522 76.4893C40.3838 76.6162 40.1733 76.6797 39.9207 76.6797H34.3632V127.969C34.3632 128.307 34.2369 128.604 33.9843 128.857C33.7317 129.111 33.437 129.238 33.1002 129.238ZM16.1752 126.699H31.8371V75.4102C31.8371 75.0716 31.9634 74.7754 32.216 74.5215C32.4686 74.2676 32.7634 74.1406 33.1002 74.1406H37.6472L24.0062 52.6855L10.3651 74.1406H14.9121C15.249 74.1406 15.5437 74.2676 15.7963 74.5215C16.0489 74.7754 16.1752 75.0716 16.1752 75.4102V126.699ZM74.0233 129.238H55.8352C55.4984 129.238 55.2037 129.111 54.9511 128.857C54.6985 128.604 54.5722 128.307 54.5722 127.969V46.9727H49.0147C48.7621 46.9727 48.5516 46.9092 48.3832 46.7822C48.2148 46.6553 48.0464 46.5072 47.878 46.3379C47.7938 46.084 47.7517 45.8512 47.7517 45.6396C47.7517 45.4281 47.8359 45.2376 48.0043 45.0684L63.9188 19.9316C64.003 19.7624 64.1293 19.6143 64.2977 19.4873C64.4661 19.3604 64.6766 19.2969 64.9292 19.2969C65.1819 19.2969 65.3924 19.3392 65.5608 19.4238C65.7292 19.5085 65.8555 19.6777 65.9397 19.9316L81.8542 45.0684C82.0226 45.2376 82.1068 45.4281 82.1068 45.6396C82.1068 45.8512 82.0647 46.084 81.9805 46.3379C81.8121 46.5072 81.6437 46.6553 81.4753 46.7822C81.3069 46.9092 81.0964 46.9727 80.8438 46.9727H75.2863V127.969C75.2863 128.307 75.16 128.604 74.9074 128.857C74.6548 129.111 74.3601 129.238 74.0233 129.238ZM57.0983 126.699H72.7602V45.7031C72.7602 45.3646 72.8865 45.0684 73.1391 44.8145C73.3917 44.5605 73.6864 44.4336 74.0233 44.4336H78.5703L64.9292 22.9785L51.2882 44.4336H55.8352C56.172 44.4336 56.4668 44.5605 56.7194 44.8145C56.972 45.0684 57.0983 45.3646 57.0983 45.7031V126.699ZM114.946 129.238H96.7583C96.4215 129.238 96.1268 129.111 95.8742 128.857C95.6216 128.604 95.4952 128.307 95.4952 127.969V67.5391H89.9378C89.6852 67.5391 89.4747 67.4756 89.3063 67.3486C89.1379 67.2217 88.9694 67.0736 88.801 66.9043C88.7168 66.6504 88.6747 66.4176 88.6747 66.2061C88.6747 65.9945 88.7589 65.804 88.9273 65.6348L104.842 40.498C104.926 40.3288 105.052 40.1807 105.221 40.0537C105.389 39.9268 105.6 39.8633 105.852 39.8633C106.105 39.8633 106.315 39.9056 106.484 39.9902C106.652 40.0749 106.779 40.2441 106.863 40.498L122.777 65.6348C122.946 65.804 123.03 65.9945 123.03 66.2061C123.03 66.4176 122.988 66.6504 122.904 66.9043C122.819 67.0736 122.672 67.2217 122.462 67.3486C122.251 67.4756 122.019 67.5391 121.767 67.5391H116.209V127.969C116.209 128.307 116.083 128.604 115.83 128.857C115.578 129.111 115.283 129.238 114.946 129.238ZM98.0214 126.699H113.683V66.2695C113.683 65.931 113.81 65.6348 114.062 65.3809C114.315 65.127 114.61 65 114.946 65H119.493L105.852 43.5449L92.2113 65H96.7583C97.0951 65 97.3898 65.127 97.6424 65.3809C97.8951 65.6348 98.0214 65.931 98.0214 66.2695V126.699ZM99.7896 27.9297C99.6212 27.9297 99.4949 27.9085 99.4107 27.8662C99.3265 27.8239 99.2423 27.8027 99.1581 27.8027L98.0214 27.168C97.6845 27.0833 97.474 26.8717 97.3898 26.5332C97.3056 26.1947 97.3477 25.8561 97.5161 25.5176C97.6845 25.179 97.9161 24.9674 98.2108 24.8828C98.5055 24.7982 98.8213 24.8405 99.1581 25.0098L100.295 25.5176C100.632 25.6869 100.863 25.9408 100.99 26.2793C101.116 26.6178 101.095 26.9141 100.926 27.168C100.758 27.4219 100.569 27.6123 100.358 27.7393C100.148 27.8662 99.958 27.9297 99.7896 27.9297ZM93.8533 24.8828C93.6849 24.8828 93.5586 24.8828 93.4743 24.8828C93.3901 24.8828 93.3059 24.8405 93.2217 24.7559L90.8219 23.6133C90.4851 23.444 90.2746 23.1901 90.1904 22.8516C90.1062 22.513 90.1483 22.1745 90.3167 21.8359C90.4851 21.582 90.7167 21.3916 91.0114 21.2646C91.3061 21.1377 91.6219 21.1589 91.9587 21.3281L94.3585 22.5977C94.6953 22.6823 94.9269 22.8939 95.0532 23.2324C95.1795 23.571 95.1584 23.9095 94.99 24.248C94.8216 24.502 94.6322 24.6712 94.4216 24.7559C94.2111 24.8405 94.0217 24.8828 93.8533 24.8828ZM86.6538 21.3281C86.4854 21.3281 86.3591 21.307 86.2749 21.2646C86.1907 21.2223 86.1065 21.2012 86.0223 21.2012L83.6225 19.9316C83.2857 19.7624 83.0752 19.5296 82.991 19.2334C82.9068 18.9372 82.9489 18.6198 83.1173 18.2812C83.2857 17.9427 83.5172 17.71 83.812 17.583C84.1067 17.4561 84.4224 17.4772 84.7593 17.6465L87.1591 18.916C87.4959 19.0853 87.7274 19.3392 87.8537 19.6777C87.98 20.0163 87.959 20.3125 87.7906 20.5664C87.6222 20.8203 87.4327 21.0107 87.2222 21.1377C87.0117 21.2646 86.8222 21.3281 86.6538 21.3281ZM79.3281 17.6465C79.2439 17.6465 79.1597 17.6465 79.0755 17.6465C78.9913 17.6465 78.9071 17.6042 78.8229 17.5195L76.4231 16.377C76.0863 16.2077 75.8757 15.9538 75.7915 15.6152C75.7073 15.2767 75.7494 14.9381 75.9178 14.5996C76.0021 14.2611 76.2126 14.0495 76.5494 13.9648C76.8862 13.8802 77.223 13.9225 77.5598 14.0918L79.9596 15.2344C80.2964 15.4036 80.507 15.6576 80.5912 15.9961C80.6754 16.3346 80.6333 16.6732 80.4649 17.0117C80.3807 17.181 80.2333 17.3291 80.0228 17.4561C79.8123 17.583 79.5807 17.6465 79.3281 17.6465ZM72.1287 14.0918C72.0445 14.0918 71.9603 14.0706 71.8761 14.0283C71.7919 13.986 71.7076 13.9648 71.6234 13.9648L70.4867 13.3301C70.1499 13.1608 69.9183 12.9281 69.792 12.6318C69.6657 12.3356 69.6868 12.0182 69.8552 11.6797C70.0236 11.3411 70.2762 11.1084 70.613 10.9814C70.9498 10.8545 71.2866 10.8756 71.6234 11.0449L72.7602 11.6797C73.097 11.849 73.3075 12.0817 73.3917 12.3779C73.4759 12.6742 73.4338 12.9915 73.2654 13.3301C73.1812 13.584 73.0339 13.7744 72.8233 13.9014C72.6128 14.0283 72.3813 14.0918 72.1287 14.0918ZM125.177 22.3438C124.924 22.3438 124.693 22.2803 124.482 22.1533C124.272 22.0264 124.125 21.8359 124.04 21.582C123.872 21.2435 123.851 20.9049 123.977 20.5664C124.104 20.2279 124.335 20.0163 124.672 19.9316L125.809 19.4238C126.145 19.2546 126.461 19.2334 126.756 19.3604C127.051 19.4873 127.282 19.7201 127.451 20.0586C127.619 20.3971 127.64 20.7145 127.514 21.0107C127.387 21.307 127.156 21.5397 126.819 21.709L125.682 22.2168C125.598 22.3014 125.514 22.3438 125.43 22.3438C125.346 22.3438 125.261 22.3438 125.177 22.3438ZM117.978 25.5176C117.725 25.5176 117.494 25.4541 117.283 25.3271C117.072 25.2002 116.925 25.0098 116.841 24.7559C116.673 24.4173 116.651 24.0999 116.778 23.8037C116.904 23.5075 117.136 23.2747 117.472 23.1055L119.872 22.0898C120.209 21.9206 120.525 21.8994 120.82 22.0264C121.114 22.1533 121.346 22.3861 121.514 22.7246C121.683 22.9785 121.704 23.2747 121.577 23.6133C121.451 23.9518 121.22 24.2057 120.883 24.375L118.483 25.3906C118.399 25.4753 118.314 25.5176 118.23 25.5176C118.146 25.5176 118.062 25.5176 117.978 25.5176ZM112.041 28.1836C111.873 28.1836 111.683 28.1201 111.473 27.9932C111.262 27.8662 111.073 27.6758 110.905 27.4219C110.82 27.0833 110.82 26.7448 110.905 26.4062C110.989 26.0677 111.199 25.8561 111.536 25.7715L112.673 25.2637C113.01 25.0944 113.346 25.0732 113.683 25.2002C114.02 25.3271 114.273 25.5599 114.441 25.8984C114.525 26.237 114.504 26.5544 114.378 26.8506C114.252 27.1468 114.062 27.3796 113.81 27.5488L112.547 28.0566C112.462 28.1413 112.378 28.1836 112.294 28.1836C112.21 28.1836 112.126 28.1836 112.041 28.1836ZM17.1856 39.4824C17.1856 39.4824 17.1435 39.4824 17.0593 39.4824L15.7963 39.3555C15.4595 39.2708 15.1858 39.1016 14.9753 38.8477C14.7648 38.5938 14.6595 38.2975 14.6595 37.959C14.7437 37.5358 14.9121 37.2184 15.1648 37.0068C15.4174 36.7952 15.7121 36.7318 16.0489 36.8164L17.312 36.9434C17.6488 36.9434 17.9435 37.0703 18.1961 37.3242C18.4487 37.5781 18.5329 37.9167 18.4487 38.3398C18.4487 38.5938 18.3224 38.8477 18.0698 39.1016C17.8172 39.3555 17.5225 39.4824 17.1856 39.4824ZM10.6177 38.7207C10.6177 38.7207 10.5967 38.7207 10.5546 38.7207C10.5125 38.7207 10.4914 38.7207 10.4914 38.7207L7.83902 38.4668C7.5022 38.4668 7.20749 38.3187 6.95488 38.0225C6.70226 37.7262 6.61806 37.4089 6.70226 37.0703C6.70226 36.7318 6.82857 36.4567 7.08118 36.2451C7.33379 36.0335 7.67061 35.9277 8.09163 35.9277L10.7441 36.1816C11.0809 36.2663 11.3545 36.4355 11.565 36.6895C11.7755 36.9434 11.8808 37.2396 11.8808 37.5781C11.7966 37.9167 11.6492 38.1917 11.4387 38.4033C11.2282 38.6149 10.9546 38.7207 10.6177 38.7207ZM2.53417 37.959C2.53417 37.959 2.51312 37.959 2.47102 37.959C2.42892 37.959 2.40787 37.959 2.40787 37.959L1.14481 37.832C0.807993 37.832 0.534331 37.6839 0.323821 37.3877C0.113311 37.0915 0.00805664 36.7741 0.00805664 36.4355C0.00805664 36.097 0.155413 35.8219 0.450127 35.6104C0.744841 35.3988 1.06061 35.293 1.39742 35.293L2.66048 35.4199C2.99729 35.4199 3.27096 35.568 3.48147 35.8643C3.69198 36.1605 3.79723 36.4779 3.79723 36.8164C3.79723 37.1549 3.67092 37.43 3.41831 37.6416C3.1657 37.8532 2.87099 37.959 2.53417 37.959ZM58.3613 15.1074C58.1929 15.1074 58.0245 15.0651 57.8561 14.9805C57.6877 14.8958 57.5193 14.7689 57.3509 14.5996C57.1825 14.3457 57.1193 14.0495 57.1614 13.7109C57.2035 13.3724 57.3509 13.0762 57.6035 12.8223L58.6139 12.0605C58.9508 11.8913 59.2876 11.8278 59.6244 11.8701C59.9612 11.9124 60.2138 12.1029 60.3822 12.4414C60.6348 12.6953 60.7401 12.9915 60.698 13.3301C60.6559 13.6686 60.4664 13.9648 60.1296 14.2188L59.1192 14.8535C59.035 14.9381 58.9297 15.0016 58.8034 15.0439C58.6771 15.0863 58.5297 15.1074 58.3613 15.1074ZM34.4895 32.5C34.3211 32.5 34.1527 32.4577 33.9843 32.373C33.8159 32.2884 33.6475 32.1615 33.4791 31.9922C33.3107 31.6536 33.2475 31.3151 33.2896 30.9766C33.3317 30.638 33.4791 30.3841 33.7317 30.2148L35.7526 28.6914C36.0052 28.5221 36.321 28.4587 36.6999 28.501C37.0788 28.5433 37.3525 28.6914 37.5209 28.9453C37.7735 29.2839 37.8577 29.6224 37.7735 29.9609C37.6893 30.2995 37.5209 30.5534 37.2683 30.7227L35.2474 32.2461C35.1632 32.3307 35.0579 32.3942 34.9316 32.4365C34.8053 32.4788 34.6579 32.5 34.4895 32.5ZM40.5522 28.1836C40.2996 28.1836 40.0891 28.1413 39.9207 28.0566C39.7523 27.972 39.5839 27.8451 39.4155 27.6758C39.2471 27.3372 39.1839 26.9987 39.226 26.6602C39.2681 26.3216 39.4576 26.0677 39.7944 25.8984L41.689 24.375C42.0258 24.2057 42.3626 24.1423 42.6994 24.1846C43.0362 24.2269 43.2888 24.375 43.4573 24.6289C43.7099 24.9674 43.8151 25.306 43.773 25.6445C43.7309 25.9831 43.5415 26.237 43.2046 26.4062L41.1838 27.9297C41.0995 28.0143 40.9943 28.0778 40.868 28.1201C40.7417 28.1624 40.6364 28.1836 40.5522 28.1836ZM46.4886 23.8672C46.236 23.8672 46.0255 23.8249 45.8571 23.7402C45.6887 23.6556 45.5624 23.4863 45.4781 23.2324C45.2255 22.9785 45.1203 22.6823 45.1624 22.3438C45.2045 22.0052 45.3939 21.709 45.7308 21.4551L47.7517 20.0586C48.0043 19.8893 48.299 19.8258 48.6358 19.8682C48.9726 19.9105 49.2673 20.0586 49.5199 20.3125C49.6883 20.651 49.7515 20.9896 49.7094 21.3281C49.6673 21.6667 49.4778 21.9206 49.141 22.0898L47.2464 23.6133C47.078 23.6979 46.9307 23.7614 46.8044 23.8037C46.6781 23.846 46.5728 23.8672 46.4886 23.8672ZM52.425 19.5508C52.2566 19.5508 52.0671 19.5085 51.8566 19.4238C51.6461 19.3392 51.4987 19.1699 51.4145 18.916C51.1619 18.6621 51.0777 18.3659 51.1619 18.0273C51.2461 17.6888 51.4145 17.3926 51.6671 17.1387L53.688 15.7422C53.9406 15.5729 54.2353 15.5094 54.5722 15.5518C54.909 15.5941 55.2037 15.7422 55.4563 15.9961C55.6247 16.3346 55.6879 16.6732 55.6458 17.0117C55.6037 17.3503 55.4563 17.6042 55.2037 17.7734L53.1828 19.2969C53.0144 19.3815 52.8881 19.445 52.8039 19.4873C52.7197 19.5296 52.5934 19.5508 52.425 19.5508ZM29.5636 36.0547C29.311 36.0547 29.1005 36.0124 28.9321 35.9277C28.7637 35.8431 28.6374 35.7161 28.5532 35.5469C28.3006 35.293 28.2164 34.9967 28.3006 34.6582C28.3848 34.3197 28.5532 34.0234 28.8058 33.7695L29.8162 33.0078C30.0688 32.8385 30.3846 32.7751 30.7635 32.8174C31.1424 32.8597 31.4161 33.0501 31.5845 33.3887C31.7529 33.6426 31.8161 33.9388 31.774 34.2773C31.7319 34.6159 31.5845 34.9121 31.3319 35.166L30.3214 35.8008C30.153 35.8854 30.0057 35.9489 29.8794 35.9912C29.7531 36.0335 29.6478 36.0547 29.5636 36.0547ZM24.0062 46.9727C21.8169 46.9727 19.9223 46.1686 18.3224 44.5605C16.7225 42.9525 15.9226 41.0482 15.9226 38.8477C15.9226 38.6784 15.9226 38.5303 15.9226 38.4033C15.9226 38.2764 15.9226 38.1706 15.9226 38.0859C16.1752 35.9701 17.0593 34.2139 18.575 32.8174C20.0907 31.4209 21.9011 30.7227 24.0062 30.7227C25.2692 30.7227 26.4902 31.0189 27.669 31.6113C28.8479 32.2038 29.8162 33.0501 30.5741 34.1504C31.0793 34.8275 31.4582 35.568 31.7108 36.3721C31.9634 37.1761 32.0897 38.0013 32.0897 38.8477C32.0897 41.0482 31.2898 42.9525 29.6899 44.5605C28.09 46.1686 26.1955 46.9727 24.0062 46.9727ZM24.0062 33.2617C22.5747 33.2617 21.3327 33.7484 20.2801 34.7217C19.2276 35.695 18.6171 36.901 18.4487 38.3398C18.4487 38.4245 18.4487 38.5091 18.4487 38.5938C18.4487 38.6784 18.4487 38.763 18.4487 38.8477C18.4487 40.3711 18.996 41.6829 20.0907 42.7832C21.1853 43.8835 22.4905 44.4336 24.0062 44.4336C25.5218 44.4336 26.827 43.8835 27.9216 42.7832C29.0163 41.6829 29.5636 40.3711 29.5636 38.8477C29.5636 38.2552 29.4794 37.6839 29.311 37.1338C29.1426 36.5837 28.89 36.0547 28.5532 35.5469C27.9637 34.8698 27.2901 34.3197 26.5323 33.8965C25.7744 33.4733 24.9324 33.2617 24.0062 33.2617ZM105.852 37.832C103.663 37.832 101.768 37.028 100.169 35.4199C98.5687 33.8119 97.7687 31.9076 97.7687 29.707C97.7687 29.1146 97.8319 28.501 97.9582 27.8662C98.0845 27.2314 98.3161 26.6178 98.6529 26.0254C99.3265 24.6712 100.316 23.5921 101.621 22.7881C102.926 21.984 104.337 21.582 105.852 21.582C107.452 21.582 108.926 22.0264 110.273 22.915C111.62 23.8037 112.589 24.9674 113.178 26.4062C113.431 26.9141 113.62 27.443 113.746 27.9932C113.873 28.5433 113.936 29.1146 113.936 29.707C113.936 31.9076 113.136 33.8119 111.536 35.4199C109.936 37.028 108.042 37.832 105.852 37.832ZM105.852 24.1211C104.758 24.1211 103.768 24.3962 102.884 24.9463C102 25.4964 101.347 26.237 100.926 27.168C100.674 27.5911 100.505 28.0143 100.421 28.4375C100.337 28.8607 100.295 29.2839 100.295 29.707C100.295 31.2305 100.842 32.5423 101.937 33.6426C103.031 34.7428 104.337 35.293 105.852 35.293C107.368 35.293 108.673 34.7428 109.768 33.6426C110.862 32.5423 111.41 31.2305 111.41 29.707C111.41 29.2839 111.368 28.8818 111.283 28.501C111.199 28.1201 111.073 27.7604 110.905 27.4219C110.484 26.4062 109.81 25.6022 108.884 25.0098C107.957 24.4173 106.947 24.1211 105.852 24.1211ZM64.9292 17.2656C63.6662 17.2656 62.4452 16.9694 61.2664 16.377C60.0875 15.7845 59.1192 14.9381 58.3613 13.8379C57.8561 13.1608 57.4772 12.4202 57.2246 11.6162C56.972 10.8122 56.8457 9.98698 56.8457 9.14062C56.8457 6.9401 57.6456 5.0358 59.2455 3.42773C60.8454 1.81966 62.7399 1.01562 64.9292 1.01562C67.1185 1.01562 69.0131 1.81966 70.613 3.42773C72.2129 5.0358 73.0128 6.9401 73.0128 9.14062C73.0128 9.73307 72.9497 10.3467 72.8233 10.9814C72.697 11.6162 72.4655 12.2298 72.1287 12.8223C71.455 14.1764 70.4656 15.2555 69.1605 16.0596C67.8553 16.8636 66.4449 17.2656 64.9292 17.2656ZM64.9292 3.55469C63.4136 3.55469 62.1084 4.10482 61.0138 5.20508C59.9191 6.30534 59.3718 7.61719 59.3718 9.14062C59.3718 9.73307 59.456 10.3044 59.6244 10.8545C59.7928 11.4046 60.0454 11.9336 60.3822 12.4414C60.9717 13.1185 61.6453 13.6686 62.4031 14.0918C63.161 14.515 64.003 14.7266 64.9292 14.7266C66.0239 14.7266 67.0133 14.4515 67.8974 13.9014C68.7816 13.3512 69.4341 12.6107 69.8552 11.6797C70.1078 11.2565 70.2762 10.8333 70.3604 10.4102C70.4446 9.98698 70.4867 9.5638 70.4867 9.14062C70.4867 7.61719 69.9394 6.30534 68.8447 5.20508C67.7501 4.10482 66.4449 3.55469 64.9292 3.55469ZM63.7925 128.096C63.6241 128.096 63.4557 128.075 63.2873 128.032C63.1189 127.99 62.9925 127.884 62.9083 127.715C62.6557 127.461 62.5294 127.165 62.5294 126.826C62.5294 126.488 62.6557 126.191 62.9083 125.938L73.1391 115.654C73.3917 115.4 73.6864 115.273 74.0233 115.273C74.3601 115.273 74.6548 115.4 74.9074 115.654C75.16 115.908 75.2863 116.204 75.2863 116.543C75.2863 116.882 75.16 117.178 74.9074 117.432L64.6766 127.715C64.5924 127.799 64.4661 127.884 64.2977 127.969C64.1293 128.053 63.9609 128.096 63.7925 128.096ZM55.8352 124.668C55.6668 124.668 55.4984 124.647 55.33 124.604C55.1616 124.562 55.0353 124.456 54.9511 124.287C54.6985 124.033 54.5722 123.737 54.5722 123.398C54.5722 123.06 54.6985 122.764 54.9511 122.51L73.1391 104.229C73.3917 103.975 73.6864 103.848 74.0233 103.848C74.3601 103.848 74.6548 103.975 74.9074 104.229C75.16 104.482 75.2863 104.779 75.2863 105.117C75.2863 105.456 75.16 105.752 74.9074 106.006L56.7194 124.287C56.6352 124.372 56.5089 124.456 56.3404 124.541C56.172 124.626 56.0036 124.668 55.8352 124.668ZM55.8352 113.242C55.6668 113.242 55.4984 113.221 55.33 113.179C55.1616 113.136 55.0353 113.031 54.9511 112.861C54.6985 112.607 54.5722 112.311 54.5722 111.973C54.5722 111.634 54.6985 111.338 54.9511 111.084L73.1391 92.8027C73.3917 92.5488 73.6864 92.4219 74.0233 92.4219C74.3601 92.4219 74.6548 92.5488 74.9074 92.8027C75.16 93.0566 75.2863 93.3529 75.2863 93.6914C75.2863 94.0299 75.16 94.3262 74.9074 94.5801L56.7194 112.861C56.6352 112.946 56.5089 113.031 56.3404 113.115C56.172 113.2 56.0036 113.242 55.8352 113.242ZM55.8352 101.816C55.6668 101.816 55.4984 101.795 55.33 101.753C55.1616 101.711 55.0353 101.605 54.9511 101.436C54.6985 101.182 54.5722 100.885 54.5722 100.547C54.5722 100.208 54.6985 99.9121 54.9511 99.6582L73.1391 81.377C73.3917 81.123 73.6864 80.9961 74.0233 80.9961C74.3601 80.9961 74.6548 81.123 74.9074 81.377C75.16 81.6309 75.2863 81.9271 75.2863 82.2656C75.2863 82.6042 75.16 82.9004 74.9074 83.1543L56.7194 101.436C56.6352 101.52 56.5089 101.605 56.3404 101.689C56.172 101.774 56.0036 101.816 55.8352 101.816ZM56.972 89.248C56.8036 89.248 56.6352 89.2269 56.4668 89.1846C56.2983 89.1423 56.172 89.0365 56.0878 88.8672C55.8352 88.6133 55.7089 88.3171 55.7089 87.9785C55.7089 87.64 55.8352 87.3438 56.0878 87.0898L73.1391 69.9512C73.3917 69.6973 73.6864 69.5703 74.0233 69.5703C74.3601 69.5703 74.6548 69.6973 74.9074 69.9512C75.16 70.2051 75.2863 70.5013 75.2863 70.8398C75.2863 71.1784 75.16 71.4746 74.9074 71.7285L57.8561 88.8672C57.7719 88.9518 57.6456 89.0365 57.4772 89.1211C57.3088 89.2057 57.1404 89.248 56.972 89.248ZM55.8352 78.9648C55.6668 78.9648 55.4984 78.9437 55.33 78.9014C55.1616 78.8591 55.0353 78.7533 54.9511 78.584C54.6985 78.3301 54.5722 78.0339 54.5722 77.6953C54.5722 77.3568 54.6985 77.0605 54.9511 76.8066L73.1391 58.5254C73.3917 58.2715 73.6864 58.1445 74.0233 58.1445C74.3601 58.1445 74.6548 58.2715 74.9074 58.5254C75.16 58.7793 75.2863 59.0755 75.2863 59.4141C75.2863 59.7526 75.16 60.0488 74.9074 60.3027L56.7194 78.584C56.6352 78.6686 56.5089 78.7533 56.3404 78.8379C56.172 78.9225 56.0036 78.9648 55.8352 78.9648ZM55.8352 67.5391C55.6668 67.5391 55.4984 67.5179 55.33 67.4756C55.1616 67.4333 55.0353 67.3275 54.9511 67.1582C54.6985 66.9043 54.5722 66.6081 54.5722 66.2695C54.5722 65.931 54.6985 65.6348 54.9511 65.3809L73.1391 47.0996C73.3917 46.8457 73.6864 46.7188 74.0233 46.7188C74.3601 46.7188 74.6548 46.8457 74.9074 47.0996C75.16 47.3535 75.2863 47.6497 75.2863 47.9883C75.2863 48.3268 75.16 48.623 74.9074 48.877L56.7194 67.1582C56.6352 67.2428 56.5089 67.3275 56.3404 67.4121C56.172 67.4967 56.0036 67.5391 55.8352 67.5391ZM55.8352 56.1133C55.6668 56.1133 55.4984 56.0921 55.33 56.0498C55.1616 56.0075 55.0353 55.9017 54.9511 55.7324C54.6985 55.4785 54.5722 55.1823 54.5722 54.8438C54.5722 54.5052 54.6985 54.209 54.9511 53.9551L73.1391 35.6738C73.3917 35.4199 73.6864 35.293 74.0233 35.293C74.3601 35.293 74.6548 35.4199 74.9074 35.6738C75.16 35.9277 75.2863 36.224 75.2863 36.5625C75.2863 36.901 75.16 37.1973 74.9074 37.4512L56.7194 55.7324C56.6352 55.8171 56.5089 55.9017 56.3404 55.9863C56.172 56.071 56.0036 56.1133 55.8352 56.1133ZM53.5617 46.9727C53.3933 46.9727 53.2249 46.9515 53.0565 46.9092C52.8881 46.8669 52.7618 46.7611 52.6776 46.5918C52.425 46.3379 52.2987 46.0417 52.2987 45.7031C52.2987 45.3646 52.425 45.0684 52.6776 44.8145L68.5921 28.8184C68.8447 28.5645 69.1394 28.4375 69.4762 28.4375C69.8131 28.4375 70.1078 28.5645 70.3604 28.8184C70.613 29.0723 70.7393 29.3685 70.7393 29.707C70.7393 30.0456 70.613 30.3418 70.3604 30.5957L54.4459 46.5918C54.3617 46.6764 54.2353 46.7611 54.0669 46.8457C53.8985 46.9303 53.7301 46.9727 53.5617 46.9727ZM126.44 129.238H10.3651C10.0283 129.238 9.7336 129.111 9.48099 128.857C9.22838 128.604 9.10207 128.307 9.10207 127.969C9.10207 127.63 9.22838 127.334 9.48099 127.08C9.7336 126.826 10.0283 126.699 10.3651 126.699H126.44C126.777 126.699 127.072 126.826 127.324 127.08C127.577 127.334 127.703 127.63 127.703 127.969C127.703 128.307 127.577 128.604 127.324 128.857C127.072 129.111 126.777 129.238 126.44 129.238ZM3.54462 129.238H1.27111C0.934299 129.238 0.639586 129.111 0.386974 128.857C0.134362 128.604 0.00805664 128.307 0.00805664 127.969C0.00805664 127.63 0.134362 127.334 0.386974 127.08C0.639586 126.826 0.934299 126.699 1.27111 126.699H3.54462C3.88143 126.699 4.17615 126.826 4.42876 127.08C4.68137 127.334 4.80768 127.63 4.80768 127.969C4.80768 128.307 4.68137 128.604 4.42876 128.857C4.17615 129.111 3.88143 129.238 3.54462 129.238Z" fill="#DC052D"/>
</svg>
