<svg width="130" height="130" viewBox="0 0 130 130" fill="none" xmlns="http://www.w3.org/2000/svg">
<path d="M47.5634 126.699C47.3949 126.699 47.2476 126.678 47.1213 126.636C46.995 126.593 46.8476 126.53 46.6792 126.445C43.7321 124.076 40.8691 121.663 38.0904 119.209C35.3959 116.67 32.8277 114.067 30.3858 111.401C27.9438 108.735 25.6282 105.964 23.4389 103.086C21.2496 100.293 19.1866 97.4154 17.25 94.4531C14.2186 89.7135 11.5662 84.8047 9.29269 79.7266C7.01919 74.6484 5.1667 69.4434 3.73524 64.1113C1.20912 55.0553 -0.0328879 47.5863 0.009214 41.7041C0.0513159 35.8219 0.0723669 32.7116 0.0723669 32.373C0.0723669 32.1191 0.198673 31.8864 0.451284 31.6748C0.703896 31.4632 0.998609 31.3574 1.33542 31.3574C5.2088 31.3574 8.91377 30.9766 12.4503 30.2148C15.9869 29.4531 19.3551 28.3529 22.5548 26.9141C25.1651 25.7292 27.6281 24.3327 29.9437 22.7246C32.2593 21.1165 34.4275 19.2969 36.4484 17.2656C39.9008 13.7956 42.4059 10.5794 43.9636 7.61719C45.5214 4.65495 46.3003 3.13151 46.3003 3.04688C46.4687 2.79297 46.6582 2.60254 46.8687 2.47559C47.0792 2.34863 47.3107 2.28516 47.5634 2.28516C47.816 2.28516 48.0475 2.34863 48.258 2.47559C48.4685 2.60254 48.6159 2.79297 48.7001 3.04688C48.7001 3.13151 49.479 4.63379 51.0368 7.55371C52.5945 10.4736 55.0996 13.7109 58.552 17.2656C60.5728 19.2969 62.7621 21.1165 65.1199 22.7246C67.4776 24.3327 69.9195 25.7292 72.4456 26.9141C75.6453 28.3529 79.0345 29.4531 82.6132 30.2148C86.1919 30.9766 89.8758 31.3574 93.665 31.3574C94.0018 31.3574 94.2965 31.4632 94.5491 31.6748C94.8017 31.8864 94.928 32.1191 94.928 32.373C95.0122 32.7116 95.0333 36.224 94.9912 42.9102C94.9491 49.5964 93.3281 58.0176 90.1284 68.1738C90.0442 68.3431 89.9389 68.4912 89.8126 68.6182C89.6863 68.7451 89.5811 68.8509 89.4969 68.9355C89.3285 69.0202 89.1601 69.0625 88.9917 69.0625C88.8232 69.0625 88.6548 69.0202 88.4864 68.9355C86.9708 68.3431 85.4551 67.8988 83.9394 67.6025C82.4238 67.3063 80.866 67.1159 79.2661 67.0312C79.0977 67.0312 78.9503 67.0312 78.824 67.0312C78.6977 67.0312 78.5083 67.0312 78.2557 67.0312C74.3823 67.0312 70.7194 67.793 67.2671 69.3164C63.8989 70.7552 60.9307 72.7653 58.3625 75.3467C55.7943 77.9281 53.7523 80.9538 52.2367 84.4238C50.8052 87.8939 50.0895 91.5755 50.0895 95.4688C50.0895 97.5 50.2789 99.4889 50.6578 101.436C51.0368 103.382 51.6472 105.286 52.4893 107.148C53.2471 108.757 54.1313 110.28 55.1417 111.719C56.1521 113.158 57.2889 114.512 58.552 115.781C58.6362 115.866 58.7204 115.993 58.8046 116.162C58.8888 116.331 58.9309 116.501 58.9309 116.67C58.9309 116.839 58.8888 117.008 58.8046 117.178C58.7204 117.347 58.6362 117.474 58.552 117.559C56.9521 119.082 55.2891 120.584 53.5629 122.065C51.8367 123.547 50.0474 125.007 48.1949 126.445C48.1107 126.53 48.0054 126.593 47.8791 126.636C47.7528 126.678 47.6476 126.699 47.5634 126.699ZM2.47218 33.7695C2.38797 35.5469 2.47218 39.1016 2.72479 44.4336C2.9774 49.7656 4.11415 56.1133 6.13505 63.4766C7.65072 68.724 9.52425 73.8232 11.7557 78.7744C13.9871 83.7256 16.5763 88.5286 19.5235 93.1836C21.2917 95.9766 23.2284 98.7272 25.3335 101.436C27.4386 104.144 29.649 106.789 31.9646 109.37C34.2802 111.951 36.7432 114.427 39.3535 116.797C41.9638 119.251 44.7004 121.579 47.5634 123.779C48.9948 122.679 50.4052 121.515 51.7946 120.288C53.184 119.061 54.5523 117.855 55.8995 116.67C54.7207 115.4 53.6471 114.046 52.6787 112.607C51.7104 111.169 50.8894 109.688 50.2158 108.164C49.3737 106.133 48.7212 104.059 48.258 101.943C47.7949 99.8275 47.5634 97.6693 47.5634 95.4688C47.5634 91.237 48.3633 87.2168 49.9632 83.4082C51.563 79.6842 53.7523 76.4046 56.5311 73.5693C59.3098 70.7341 62.5937 68.5124 66.3829 66.9043C70.0879 65.2962 74.0876 64.4922 78.382 64.4922C78.5504 64.4922 78.7188 64.4922 78.8872 64.4922C79.0556 64.4922 79.224 64.4922 79.3924 64.4922C80.8239 64.5768 82.2764 64.7461 83.75 65C85.2235 65.2539 86.676 65.6348 88.1075 66.1426C89.539 61.2337 90.5705 56.748 91.202 52.6855C91.8335 48.623 92.2335 45.2376 92.4019 42.5293C92.5703 40.498 92.6545 38.7419 92.6545 37.2607C92.6545 35.7796 92.6124 34.6159 92.5282 33.7695C83.6868 33.6003 76.34 31.9287 70.4878 28.7549C64.6357 25.5811 60.0255 22.3014 56.6574 18.916C54.2997 16.5462 52.363 14.2399 50.8473 11.9971C49.3316 9.75423 48.1949 7.91341 47.437 6.47461C46.7634 7.91341 45.6688 9.75423 44.1531 11.9971C42.6374 14.2399 40.6586 16.5462 38.2167 18.916C34.9328 22.2168 30.3647 25.4753 24.5125 28.6914C18.6604 31.9076 11.3136 33.6003 2.47218 33.7695ZM47.5634 112.1C47.3949 112.1 47.2476 112.078 47.1213 112.036C46.995 111.994 46.8476 111.93 46.6792 111.846C42.1322 108.206 37.9852 104.355 34.2381 100.293C30.491 96.2305 27.186 91.9564 24.3231 87.4707C21.9654 83.8314 19.9234 80.0651 18.1972 76.1719C16.4711 72.2786 15.0607 68.3008 13.966 64.2383C12.0293 57.2982 11.082 51.5853 11.1241 47.0996C11.1662 42.6139 11.1873 40.2865 11.1873 40.1172C11.1873 39.7786 11.3136 39.5036 11.5662 39.292C11.8188 39.0804 12.1135 38.9746 12.4503 38.9746C19.0182 38.9746 24.4704 38.0225 28.8069 36.1182C33.1434 34.2139 36.5326 32.2884 38.9746 30.3418C41.5849 28.2259 43.4795 26.2793 44.6583 24.502C45.8372 22.7246 46.4266 21.7936 46.4266 21.709C46.5108 21.5397 46.6582 21.3916 46.8687 21.2646C47.0792 21.1377 47.3107 21.0742 47.5634 21.0742C47.816 21.0742 48.0265 21.1377 48.1949 21.2646C48.3633 21.3916 48.5317 21.5397 48.7001 21.709C48.7001 21.7936 49.2895 22.7246 50.4684 24.502C51.6472 26.2793 53.5418 28.2259 56.1521 30.3418C58.5099 32.2884 61.878 34.2139 66.2566 36.1182C70.6352 38.0225 76.1085 38.9746 82.6764 38.9746C83.0132 38.9746 83.2868 39.0804 83.4973 39.292C83.7079 39.5036 83.8552 39.7786 83.9394 40.1172C83.9394 40.2865 83.9394 42.8044 83.9394 47.6709C83.9394 52.5374 82.8027 58.6947 80.5292 66.1426C80.445 66.3965 80.2976 66.6081 80.0871 66.7773C79.8766 66.9466 79.6029 67.0312 79.2661 67.0312C79.1819 67.0312 79.0556 67.0312 78.8872 67.0312C78.7188 67.0312 78.5504 67.0312 78.382 67.0312C74.5086 67.0312 70.8457 67.7507 67.3934 69.1895C63.941 70.7129 60.9307 72.7653 58.3625 75.3467C55.7943 77.9281 53.7944 80.9538 52.363 84.4238C50.8473 87.8092 50.0895 91.4909 50.0895 95.4688C50.0895 97.5 50.3 99.4889 50.721 101.436C51.142 103.382 51.7735 105.244 52.6156 107.021C52.6998 107.275 52.7208 107.55 52.6787 107.847C52.6366 108.143 52.4893 108.376 52.2367 108.545C51.6472 109.053 51.0157 109.582 50.3421 110.132C49.6684 110.682 48.9948 111.211 48.3212 111.719C48.237 111.888 48.1107 111.994 47.9423 112.036C47.7739 112.078 47.6476 112.1 47.5634 112.1ZM13.5871 41.5137C13.5029 42.9525 13.566 45.6608 13.7765 49.6387C13.9871 53.6165 14.8501 58.3138 16.3658 63.7305C17.4605 67.6237 18.8498 71.4534 20.5339 75.2197C22.218 78.986 24.1968 82.6042 26.4703 86.0742C29.1648 90.3906 32.2803 94.4743 35.8169 98.3252C39.3535 102.176 43.269 105.794 47.5634 109.18C47.9002 108.841 48.2791 108.524 48.7001 108.228C49.1211 107.931 49.5 107.614 49.8369 107.275C49.079 105.413 48.5106 103.488 48.1317 101.499C47.7528 99.5101 47.5634 97.5 47.5634 95.4688C47.5634 91.237 48.3633 87.2168 49.9632 83.4082C51.563 79.6842 53.7523 76.4046 56.5311 73.5693C59.3098 70.7341 62.5937 68.5124 66.3829 66.9043C70.0879 65.2962 74.0876 64.4922 78.382 64.4922C79.9818 58.9062 80.9081 54.0397 81.1607 49.8926C81.4133 45.7454 81.4975 42.9525 81.4133 41.5137C74.7612 41.3444 69.2248 40.2653 64.8041 38.2764C60.3834 36.2874 56.91 34.2773 54.3839 32.2461C52.6156 30.8073 51.1841 29.432 50.0895 28.1201C48.9948 26.8083 48.1528 25.6869 47.5634 24.7559C46.9739 25.6869 46.1108 26.8083 44.9741 28.1201C43.8373 29.432 42.3848 30.8073 40.6165 32.2461C38.0904 34.2773 34.617 36.2874 30.1963 38.2764C25.7756 40.2653 20.2392 41.3444 13.5871 41.5137ZM78.382 126.445C78.2136 126.445 78.0872 126.445 78.003 126.445C77.9188 126.445 77.8346 126.445 77.7504 126.445C77.3294 126.445 77.0136 126.318 76.8031 126.064C76.5926 125.811 76.4874 125.514 76.4874 125.176C76.4874 124.837 76.6137 124.541 76.8663 124.287C77.1189 124.033 77.4136 123.906 77.7504 123.906C78.1715 123.906 78.5714 123.906 78.9503 123.906C79.3293 123.906 79.7292 123.906 80.1502 123.906C80.4871 123.822 80.7818 123.906 81.0344 124.16C81.287 124.414 81.4133 124.71 81.4133 125.049C81.4975 125.387 81.4133 125.684 81.1607 125.938C80.9081 126.191 80.6134 126.361 80.2766 126.445C79.9397 126.445 79.624 126.445 79.3293 126.445C79.0345 126.445 78.7188 126.445 78.382 126.445ZM72.8245 125.938C72.8245 125.938 72.8035 125.938 72.7614 125.938C72.7193 125.938 72.6561 125.938 72.5719 125.938C72.1509 125.853 71.7299 125.768 71.3088 125.684C70.8878 125.599 70.4668 125.472 70.0458 125.303C69.709 125.218 69.4564 125.028 69.2879 124.731C69.1195 124.435 69.0774 124.118 69.1616 123.779C69.2458 123.441 69.4564 123.187 69.7932 123.018C70.13 122.848 70.4668 122.806 70.8036 122.891C71.1404 122.975 71.4983 123.06 71.8772 123.145C72.2561 123.229 72.6561 123.314 73.0771 123.398C73.4139 123.483 73.6876 123.674 73.8981 123.97C74.1086 124.266 74.1718 124.583 74.0876 124.922C74.0034 125.176 73.856 125.409 73.6455 125.62C73.435 125.832 73.1613 125.938 72.8245 125.938ZM85.0762 125.684C84.8236 125.684 84.5709 125.578 84.3183 125.366C84.0657 125.155 83.8973 124.922 83.8131 124.668C83.8131 124.329 83.8973 124.012 84.0657 123.716C84.2341 123.42 84.4867 123.229 84.8236 123.145C85.1604 123.06 85.5182 122.954 85.8972 122.827C86.2761 122.7 86.676 122.594 87.0971 122.51C87.4339 122.425 87.7496 122.467 88.0444 122.637C88.3391 122.806 88.5285 123.018 88.6127 123.271C88.7811 123.61 88.7811 123.949 88.6127 124.287C88.4443 124.626 88.1917 124.837 87.8549 124.922C87.4339 125.091 87.0129 125.218 86.5918 125.303C86.1708 125.387 85.7498 125.472 85.3288 125.557C85.3288 125.641 85.3077 125.684 85.2656 125.684C85.2235 125.684 85.1604 125.684 85.0762 125.684ZM65.7514 123.652C65.6672 123.652 65.583 123.631 65.4988 123.589C65.4146 123.547 65.3304 123.525 65.2462 123.525C64.8251 123.356 64.4252 123.166 64.0463 122.954C63.6673 122.743 63.3095 122.51 62.9727 122.256C62.6358 122.087 62.4253 121.833 62.3411 121.494C62.2569 121.156 62.299 120.859 62.4674 120.605C62.6358 120.267 62.8885 120.055 63.2253 119.971C63.5621 119.886 63.8989 119.928 64.2357 120.098C64.5725 120.352 64.9093 120.563 65.2462 120.732C65.583 120.902 65.9198 121.071 66.2566 121.24C66.5934 121.41 66.825 121.642 66.9513 121.938C67.0776 122.235 67.0565 122.552 66.8881 122.891C66.8039 123.145 66.6566 123.335 66.4461 123.462C66.2356 123.589 66.004 123.652 65.7514 123.652ZM92.023 123.018C91.8546 123.018 91.6651 122.975 91.4546 122.891C91.2441 122.806 91.0546 122.637 90.8862 122.383C90.7178 122.044 90.6968 121.706 90.8231 121.367C90.9494 121.029 91.181 120.775 91.5178 120.605C91.8546 120.436 92.1914 120.267 92.5282 120.098C92.865 119.928 93.2018 119.717 93.5387 119.463C93.7913 119.294 94.086 119.251 94.4228 119.336C94.7596 119.421 95.0543 119.59 95.3069 119.844C95.4753 120.098 95.5174 120.415 95.4332 120.796C95.349 121.177 95.1806 121.452 94.928 121.621C94.507 121.79 94.1281 122.002 93.7913 122.256C93.4545 122.51 93.0755 122.721 92.6545 122.891C92.5703 122.975 92.4651 123.018 92.3388 123.018C92.2124 123.018 92.1072 123.018 92.023 123.018ZM59.5624 119.59C59.394 119.59 59.2466 119.569 59.1203 119.526C58.994 119.484 58.8467 119.421 58.6783 119.336C58.4257 119.082 58.1309 118.807 57.7941 118.511C57.4573 118.215 57.1205 117.939 56.7837 117.686C56.5311 117.432 56.4048 117.114 56.4048 116.733C56.4048 116.353 56.5311 116.035 56.7837 115.781C57.0363 115.527 57.331 115.4 57.6678 115.4C58.0046 115.4 58.2993 115.527 58.552 115.781C58.8046 116.035 59.0993 116.31 59.4361 116.606C59.7729 116.903 60.0676 117.178 60.3202 117.432C60.5728 117.601 60.7202 117.876 60.7623 118.257C60.8044 118.638 60.7413 118.955 60.5728 119.209C60.4044 119.378 60.236 119.484 60.0676 119.526C59.8992 119.569 59.7308 119.59 59.5624 119.59ZM98.0857 118.828C97.9173 118.828 97.7489 118.786 97.5804 118.701C97.412 118.617 97.2857 118.49 97.2015 118.32C96.9489 118.066 96.8226 117.77 96.8226 117.432C96.8226 117.093 96.991 116.797 97.3278 116.543C97.5804 116.289 97.8541 116.014 98.1488 115.718C98.4435 115.422 98.7172 115.146 98.9698 114.893C99.2224 114.639 99.5171 114.512 99.854 114.512C100.191 114.512 100.485 114.639 100.738 114.893C100.991 115.062 101.117 115.337 101.117 115.718C101.117 116.099 101.033 116.416 100.864 116.67C100.528 117.008 100.212 117.326 99.9171 117.622C99.6224 117.918 99.3066 118.193 98.9698 118.447C98.8856 118.532 98.7593 118.617 98.5909 118.701C98.4225 118.786 98.2541 118.828 98.0857 118.828ZM54.5102 114.258C54.2576 114.258 54.0471 114.215 53.8786 114.131C53.7102 114.046 53.5839 113.919 53.4997 113.75C53.2471 113.411 52.9945 113.052 52.7419 112.671C52.4893 112.29 52.2367 111.93 51.9841 111.592C51.8156 111.253 51.7735 110.915 51.8577 110.576C51.942 110.238 52.1525 109.984 52.4893 109.814C52.7419 109.645 53.0366 109.603 53.3734 109.688C53.7102 109.772 53.9628 109.941 54.1313 110.195C54.3839 110.534 54.6154 110.872 54.8259 111.211C55.0364 111.549 55.268 111.888 55.5206 112.227C55.689 112.48 55.7522 112.777 55.7101 113.115C55.668 113.454 55.5206 113.75 55.268 114.004C55.0996 114.089 54.9522 114.152 54.8259 114.194C54.6996 114.237 54.5944 114.258 54.5102 114.258ZM103.012 113.242C102.843 113.242 102.696 113.221 102.57 113.179C102.443 113.136 102.338 113.073 102.254 112.988C102.001 112.819 101.833 112.565 101.749 112.227C101.664 111.888 101.706 111.549 101.875 111.211C102.127 110.872 102.359 110.534 102.57 110.195C102.78 109.857 102.969 109.518 103.138 109.18C103.306 108.926 103.559 108.735 103.896 108.608C104.233 108.481 104.569 108.503 104.906 108.672C105.159 108.841 105.348 109.095 105.475 109.434C105.601 109.772 105.58 110.111 105.411 110.449C105.159 110.788 104.927 111.147 104.717 111.528C104.506 111.909 104.275 112.269 104.022 112.607C103.938 112.777 103.79 112.925 103.58 113.052C103.369 113.179 103.18 113.242 103.012 113.242ZM50.8473 107.656C50.5947 107.656 50.3631 107.593 50.1526 107.466C49.9421 107.339 49.7948 107.148 49.7105 106.895C49.5421 106.471 49.3948 106.069 49.2685 105.688C49.1422 105.308 48.9948 104.906 48.8264 104.482C48.7422 104.144 48.7843 103.826 48.9527 103.53C49.1211 103.234 49.3737 103.001 49.7105 102.832C50.0474 102.747 50.3631 102.79 50.6578 102.959C50.9526 103.128 51.142 103.382 51.2262 103.721C51.3946 104.059 51.542 104.419 51.6683 104.8C51.7946 105.181 51.8998 105.583 51.9841 106.006C52.1525 106.344 52.1735 106.662 52.0472 106.958C51.9209 107.254 51.6893 107.487 51.3525 107.656C51.2683 107.656 51.1841 107.656 51.0999 107.656C51.0157 107.656 50.9315 107.656 50.8473 107.656ZM106.296 106.514C106.211 106.514 106.127 106.514 106.043 106.514C105.959 106.514 105.875 106.471 105.79 106.387C105.538 106.302 105.327 106.09 105.159 105.752C104.99 105.413 104.948 105.117 105.032 104.863C105.201 104.44 105.327 104.038 105.411 103.657C105.496 103.276 105.622 102.917 105.79 102.578C105.875 102.24 106.064 101.965 106.359 101.753C106.653 101.541 106.969 101.478 107.306 101.562C107.643 101.647 107.895 101.859 108.064 102.197C108.232 102.536 108.274 102.874 108.19 103.213C108.106 103.636 108.001 104.038 107.874 104.419C107.748 104.8 107.601 105.202 107.432 105.625C107.348 105.879 107.201 106.09 106.99 106.26C106.78 106.429 106.548 106.514 106.296 106.514ZM49.079 100.547C48.7422 100.547 48.4475 100.441 48.1949 100.229C47.9423 100.018 47.816 99.7428 47.816 99.4043C47.7318 98.9811 47.6686 98.5579 47.6265 98.1348C47.5844 97.7116 47.5634 97.2461 47.5634 96.7383C47.5634 96.3997 47.6686 96.1035 47.8791 95.8496C48.0896 95.5957 48.3633 95.4688 48.7001 95.4688C49.1211 95.4688 49.4579 95.5745 49.7105 95.7861C49.9632 95.9977 50.0895 96.3151 50.0895 96.7383C50.0895 97.0768 50.1105 97.4577 50.1526 97.8809C50.1947 98.304 50.2158 98.6849 50.2158 99.0234C50.3 99.362 50.2368 99.6794 50.0263 99.9756C49.8158 100.272 49.5421 100.42 49.2053 100.42C49.2053 100.505 49.1843 100.547 49.1422 100.547C49.1001 100.547 49.079 100.547 49.079 100.547ZM107.811 99.2773C107.811 99.2773 107.79 99.2773 107.748 99.2773C107.706 99.2773 107.685 99.2773 107.685 99.2773C107.348 99.1927 107.074 99.0234 106.864 98.7695C106.653 98.5156 106.548 98.2194 106.548 97.8809C106.548 97.4577 106.569 97.0557 106.611 96.6748C106.653 96.2939 106.674 95.8919 106.674 95.4688C106.674 95.0456 106.78 94.7282 106.99 94.5166C107.201 94.305 107.517 94.1992 107.938 94.1992C108.274 94.1992 108.569 94.305 108.822 94.5166C109.074 94.7282 109.201 95.0456 109.201 95.4688C109.201 95.8919 109.18 96.3151 109.137 96.7383C109.095 97.1615 109.074 97.5846 109.074 98.0078C109.074 98.3464 108.948 98.6426 108.695 98.8965C108.443 99.1504 108.148 99.2773 107.811 99.2773ZM49.079 93.0566C48.9948 93.0566 48.9527 93.0566 48.9527 93.0566C48.9527 93.0566 48.9106 93.0566 48.8264 93.0566C48.4896 93.0566 48.2159 92.9085 48.0054 92.6123C47.7949 92.3161 47.7318 91.9987 47.816 91.6602C47.816 91.237 47.8581 90.8138 47.9423 90.3906C48.0265 89.9674 48.1107 89.5443 48.1949 89.1211C48.2791 88.7826 48.4685 88.5075 48.7633 88.2959C49.058 88.0843 49.3737 88.0208 49.7105 88.1055C50.0474 88.1901 50.321 88.3805 50.5315 88.6768C50.742 88.973 50.8052 89.2904 50.721 89.6289C50.6368 89.9674 50.5526 90.3271 50.4684 90.708C50.3842 91.0889 50.3421 91.4909 50.3421 91.9141C50.2579 92.2526 50.0895 92.5277 49.8369 92.7393C49.5842 92.9508 49.3316 93.0566 49.079 93.0566ZM107.432 91.7871C107.18 91.7871 106.927 91.6813 106.674 91.4697C106.422 91.2581 106.296 90.9831 106.296 90.6445C106.211 90.306 106.127 89.9251 106.043 89.502C105.959 89.0788 105.875 88.6979 105.79 88.3594C105.706 88.0208 105.748 87.7034 105.917 87.4072C106.085 87.111 106.338 86.9206 106.674 86.8359C107.011 86.7513 107.327 86.7936 107.622 86.9629C107.916 87.1322 108.106 87.3861 108.19 87.7246C108.274 88.1478 108.359 88.571 108.443 88.9941C108.527 89.4173 108.611 89.8405 108.695 90.2637C108.78 90.6022 108.716 90.9196 108.506 91.2158C108.295 91.512 108.022 91.6602 107.685 91.6602C107.685 91.7448 107.664 91.7871 107.622 91.7871C107.58 91.7871 107.517 91.7871 107.432 91.7871ZM50.8473 85.8203C50.7631 85.8203 50.6789 85.8203 50.5947 85.8203C50.5105 85.8203 50.4263 85.778 50.3421 85.6934C50.0895 85.6087 49.879 85.3971 49.7105 85.0586C49.5421 84.7201 49.5421 84.3815 49.7105 84.043C49.879 83.7044 50.0474 83.3236 50.2158 82.9004C50.3842 82.4772 50.5526 82.0964 50.721 81.7578C50.8894 81.4193 51.142 81.1865 51.4788 81.0596C51.8156 80.9326 52.1525 80.9538 52.4893 81.123C52.7419 81.2923 52.9313 81.5462 53.0577 81.8848C53.184 82.2233 53.1629 82.5618 52.9945 82.9004C52.8261 83.2389 52.6577 83.5775 52.4893 83.916C52.3209 84.2546 52.1946 84.6354 52.1104 85.0586C51.942 85.3125 51.7525 85.5029 51.542 85.6299C51.3315 85.7568 51.0999 85.8203 50.8473 85.8203ZM105.285 84.6777C105.117 84.6777 104.927 84.5931 104.717 84.4238C104.506 84.2546 104.317 84.0853 104.148 83.916C103.98 83.4928 103.812 83.112 103.643 82.7734C103.475 82.4349 103.306 82.0964 103.138 81.7578C102.969 81.4193 102.927 81.0807 103.012 80.7422C103.096 80.4036 103.306 80.1497 103.643 79.9805C103.896 79.8112 104.19 79.7689 104.527 79.8535C104.864 79.9382 105.117 80.1497 105.285 80.4883C105.538 80.9115 105.748 81.3135 105.917 81.6943C106.085 82.0752 106.296 82.4349 106.548 82.7734C106.632 83.112 106.611 83.4505 106.485 83.7891C106.359 84.1276 106.169 84.3815 105.917 84.5508C105.748 84.5508 105.622 84.5719 105.538 84.6143C105.454 84.6566 105.369 84.6777 105.285 84.6777ZM54.3839 79.3457C54.2997 79.3457 54.1944 79.3245 54.0681 79.2822C53.9418 79.2399 53.8365 79.1764 53.7523 79.0918C53.4155 78.8379 53.2261 78.5417 53.184 78.2031C53.1419 77.8646 53.205 77.5684 53.3734 77.3145C53.626 76.9759 53.8997 76.6374 54.1944 76.2988C54.4891 75.9603 54.7628 75.6217 55.0154 75.2832C55.268 75.0293 55.5627 74.8812 55.8995 74.8389C56.2364 74.7966 56.5311 74.9023 56.7837 75.1562C57.0363 75.3255 57.1836 75.6006 57.2257 75.9814C57.2678 76.3623 57.1626 76.6797 56.91 76.9336C56.6574 77.2721 56.4048 77.5895 56.1521 77.8857C55.8995 78.182 55.689 78.4993 55.5206 78.8379C55.3522 79.0072 55.1838 79.1341 55.0154 79.2188C54.847 79.3034 54.6365 79.3457 54.3839 79.3457ZM101.496 78.3301C101.328 78.3301 101.159 78.2878 100.991 78.2031C100.822 78.1185 100.654 77.9915 100.485 77.8223C100.233 77.4837 99.9803 77.1663 99.7276 76.8701C99.475 76.5739 99.2224 76.2988 98.9698 76.0449C98.7172 75.791 98.5909 75.4736 98.5909 75.0928C98.5909 74.7119 98.7172 74.3945 98.9698 74.1406C99.2224 73.9714 99.5382 73.8867 99.9171 73.8867C100.296 73.8867 100.57 74.0137 100.738 74.2676C101.075 74.6061 101.391 74.9235 101.685 75.2197C101.98 75.5159 102.254 75.8333 102.506 76.1719C102.675 76.4258 102.738 76.7432 102.696 77.124C102.654 77.5049 102.506 77.7799 102.254 77.9492C102.17 78.0339 102.043 78.1185 101.875 78.2031C101.706 78.2878 101.58 78.3301 101.496 78.3301ZM59.4361 73.8867C59.2677 73.8867 59.0993 73.8444 58.9309 73.7598C58.7625 73.6751 58.6362 73.5482 58.552 73.3789C58.2993 73.125 58.1941 72.8288 58.2362 72.4902C58.2783 72.1517 58.4257 71.8555 58.6783 71.6016C59.0151 71.3477 59.3519 71.0938 59.6887 70.8398C60.0255 70.5859 60.3623 70.332 60.6992 70.0781C61.036 69.9089 61.3728 69.8454 61.7096 69.8877C62.0464 69.93 62.299 70.0781 62.4674 70.332C62.72 70.6706 62.8043 71.0091 62.72 71.3477C62.6358 71.6862 62.4674 71.9401 62.2148 72.1094C61.878 72.3633 61.5412 72.6172 61.2044 72.8711C60.8676 73.125 60.5728 73.3789 60.3202 73.6328C60.1518 73.7174 60.0045 73.7809 59.8782 73.8232C59.7519 73.8656 59.6045 73.8867 59.4361 73.8867ZM96.1911 73.125C96.0227 73.125 95.8753 73.1038 95.749 73.0615C95.6227 73.0192 95.5174 72.9557 95.4332 72.8711C95.0964 72.6172 94.7596 72.3633 94.4228 72.1094C94.086 71.8555 93.7492 71.6439 93.4124 71.4746C93.1597 71.3053 92.9913 71.0514 92.9071 70.7129C92.8229 70.3743 92.865 70.0358 93.0334 69.6973C93.286 69.4434 93.5808 69.2741 93.9176 69.1895C94.2544 69.1048 94.5491 69.1471 94.8017 69.3164C95.2227 69.5703 95.6017 69.8242 95.9385 70.0781C96.2753 70.332 96.6121 70.5859 96.9489 70.8398C97.2015 71.0091 97.3489 71.2842 97.391 71.665C97.4331 72.0459 97.3699 72.3633 97.2015 72.6172C97.0331 72.7865 96.8647 72.9134 96.6963 72.998C96.5279 73.0827 96.3595 73.125 96.1911 73.125ZM65.7514 69.9512C65.4988 69.9512 65.2672 69.8877 65.0567 69.7607C64.8462 69.6338 64.6988 69.4434 64.6146 69.1895C64.4462 68.8509 64.4252 68.5124 64.5515 68.1738C64.6778 67.8353 64.9093 67.5814 65.2462 67.4121C65.583 67.2428 65.9619 67.0736 66.3829 66.9043C66.8039 66.735 67.1828 66.5658 67.5197 66.3965C67.8565 66.3118 68.1933 66.333 68.5301 66.46C68.8669 66.5869 69.0774 66.8197 69.1616 67.1582C69.33 67.4967 69.33 67.8353 69.1616 68.1738C68.9932 68.5124 68.7406 68.724 68.4038 68.8086C68.067 68.9779 67.7091 69.126 67.3302 69.2529C66.9513 69.3799 66.5934 69.528 66.2566 69.6973C66.1724 69.7819 66.0882 69.8454 66.004 69.8877C65.9198 69.93 65.8356 69.9512 65.7514 69.9512ZM89.7495 69.3164C89.6653 69.3164 89.5811 69.3164 89.4969 69.3164C89.4127 69.3164 89.3285 69.2741 89.2443 69.1895C89.1601 69.1895 89.0338 69.1471 88.8653 69.0625C88.6969 68.9779 88.5706 68.9355 88.4864 68.9355C88.2338 68.8509 87.9812 68.7663 87.7286 68.6816C87.476 68.597 87.2655 68.5124 87.0971 68.4277C86.7602 68.2585 86.5076 68.0257 86.3392 67.7295C86.1708 67.4333 86.1287 67.1159 86.2129 66.7773C86.3813 66.4388 86.6129 66.1849 86.9076 66.0156C87.2023 65.8464 87.5181 65.8464 87.8549 66.0156C88.1075 66.1003 88.3601 66.1849 88.6127 66.2695C88.8653 66.3542 89.118 66.4388 89.3706 66.5234C89.539 66.6081 89.6863 66.6716 89.8126 66.7139C89.9389 66.7562 90.0863 66.8197 90.2547 66.9043C90.5915 66.9889 90.8231 67.2005 90.9494 67.5391C91.0757 67.8776 91.0546 68.2161 90.8862 68.5547C90.802 68.8086 90.6547 68.999 90.4442 69.126C90.2337 69.2529 90.0021 69.3164 89.7495 69.3164ZM72.8245 67.5391C72.4877 67.5391 72.214 67.4544 72.0035 67.2852C71.793 67.1159 71.6457 66.862 71.5614 66.5234C71.4772 66.1849 71.5404 65.8675 71.7509 65.5713C71.9614 65.2751 72.2351 65.0846 72.5719 65C72.9929 65 73.4139 64.9577 73.835 64.873C74.256 64.7884 74.677 64.7038 75.098 64.6191C75.4348 64.6191 75.7506 64.7249 76.0453 64.9365C76.34 65.1481 76.4874 65.4232 76.4874 65.7617C76.4874 66.1003 76.3821 66.4176 76.1716 66.7139C75.9611 67.0101 75.6874 67.1582 75.3506 67.1582C74.9296 67.2428 74.5296 67.3063 74.1507 67.3486C73.7718 67.3909 73.3718 67.4544 72.9508 67.5391C72.9508 67.5391 72.9298 67.5391 72.8877 67.5391C72.8456 67.5391 72.8245 67.5391 72.8245 67.5391ZM82.6764 67.4121C82.5922 67.4121 82.5501 67.4121 82.5501 67.4121C82.5501 67.4121 82.5079 67.3698 82.4238 67.2852C82.0869 67.2852 81.708 67.264 81.287 67.2217C80.866 67.1794 80.4871 67.1159 80.1502 67.0312C79.7292 67.0312 79.4135 66.9043 79.2029 66.6504C78.9924 66.3965 78.8872 66.1003 78.8872 65.7617C78.8872 65.4232 79.0345 65.127 79.3293 64.873C79.624 64.6191 79.9397 64.4922 80.2766 64.4922C80.6976 64.5768 81.1186 64.6403 81.5396 64.6826C81.9606 64.7249 82.3816 64.7461 82.8027 64.7461C83.1395 64.8307 83.4131 65.0212 83.6237 65.3174C83.8342 65.6136 83.9394 65.931 83.9394 66.2695C83.8552 66.6081 83.6868 66.8831 83.4342 67.0947C83.1816 67.3063 82.929 67.4121 82.6764 67.4121ZM78.382 118.447C72.0667 118.447 66.6776 116.204 62.2148 111.719C57.752 107.233 55.5206 101.816 55.5206 95.4688C55.5206 89.1211 57.752 83.7044 62.2148 79.2188C66.6776 74.7331 72.0667 72.4902 78.382 72.4902C84.6973 72.4902 90.0863 74.7331 94.5491 79.2188C99.0119 83.7044 101.243 89.1211 101.243 95.4688C101.243 101.816 99.0119 107.233 94.5491 111.719C90.0863 116.204 84.6973 118.447 78.382 118.447ZM78.382 75.0293C72.7403 75.0293 67.9407 77.0182 63.9831 80.9961C60.0255 84.974 58.0467 89.7982 58.0467 95.4688C58.0467 101.139 60.0255 105.964 63.9831 109.941C67.9407 113.919 72.7403 115.908 78.382 115.908C83.9394 115.908 88.718 113.919 92.7177 109.941C96.7174 105.964 98.7172 101.139 98.7172 95.4688C98.7172 89.7982 96.7174 84.974 92.7177 80.9961C88.718 77.0182 83.9394 75.0293 78.382 75.0293ZM72.6982 107.021C72.5298 107.021 72.3614 107 72.193 106.958C72.0246 106.916 71.8983 106.81 71.8141 106.641L63.8568 98.6426C63.6042 98.3887 63.4779 98.0924 63.4779 97.7539C63.4779 97.4154 63.6042 97.1191 63.8568 96.8652C64.1094 96.6113 64.4041 96.4844 64.7409 96.4844C65.0778 96.4844 65.3725 96.6113 65.6251 96.8652L72.6982 103.975L90.0021 86.582C90.2547 86.3281 90.5494 86.2012 90.8862 86.2012C91.2231 86.2012 91.5178 86.3281 91.7704 86.582C92.023 86.8359 92.1493 87.1322 92.1493 87.4707C92.1493 87.8092 92.023 88.1055 91.7704 88.3594L73.5823 106.641C73.4139 106.725 73.2666 106.81 73.1403 106.895C73.014 106.979 72.8666 107.021 72.6982 107.021Z" fill="#DC052D"/>
</svg>
