<svg width="130" height="130" viewBox="0 0 130 130" fill="none" xmlns="http://www.w3.org/2000/svg">
<path d="M76.8019 102.07C76.8019 102.07 76.7598 102.07 76.6756 102.07C76.5914 102.07 76.5493 102.07 76.5493 102.07C76.2966 101.986 73.8758 101.118 69.2867 99.4678C64.6976 97.8174 61.3505 95.2995 59.2454 91.9141C59.077 91.5755 59.0348 91.237 59.119 90.8984C59.2033 90.5599 59.3717 90.306 59.6243 90.1367C59.9611 89.9674 60.2979 89.9251 60.6347 90.0098C60.9715 90.0944 61.2241 90.2637 61.3926 90.5176C63.245 93.4798 66.3185 95.7227 70.6129 97.2461C74.9073 98.7695 77.0966 99.5736 77.1808 99.6582C77.5176 99.7428 77.7702 99.9333 77.9386 100.229C78.107 100.526 78.1491 100.843 78.0649 101.182C77.9807 101.436 77.8334 101.647 77.6228 101.816C77.4123 101.986 77.1387 102.07 76.8019 102.07ZM6.95475 102.07C6.87055 102.07 6.78635 102.07 6.70214 102.07C6.61794 102.07 6.53373 102.07 6.44953 102.07C6.28112 101.901 6.11272 101.711 5.94431 101.499C5.7759 101.287 5.6917 101.055 5.6917 100.801C5.7759 98.7695 5.98641 96.5479 6.32322 94.1357C6.66004 91.7236 7.12316 89.1211 7.71259 86.3281C7.71259 86.2435 7.71259 86.18 7.71259 86.1377C7.71259 86.0954 7.71259 86.0319 7.71259 85.9473C7.79679 85.6934 7.9652 85.4818 8.21781 85.3125C8.47042 85.1432 8.72303 85.0586 8.97565 85.0586H14.4068C14.5752 85.0586 14.7436 85.0798 14.912 85.1221C15.0804 85.1644 15.2488 85.2702 15.4172 85.4395C15.5014 85.6087 15.5646 85.778 15.6067 85.9473C15.6488 86.1165 15.6699 86.2858 15.6699 86.4551C15.5014 87.8092 15.2067 89.1423 14.7857 90.4541C14.3647 91.7659 13.8174 93.099 13.1437 94.4531C12.0491 96.6536 10.9123 98.4098 9.73348 99.7217C8.55463 101.034 7.9231 101.732 7.83889 101.816C7.75469 101.901 7.62838 101.965 7.45998 102.007C7.29157 102.049 7.12316 102.07 6.95475 102.07ZM9.98609 87.5977C9.64928 89.2904 9.35456 90.9408 9.10195 92.5488C8.84934 94.1569 8.63883 95.7227 8.47042 97.2461C8.89144 96.6536 9.29141 96.04 9.67033 95.4053C10.0492 94.7705 10.4492 94.0723 10.8702 93.3105C11.3755 92.3796 11.7965 91.4274 12.1333 90.4541C12.4701 89.4808 12.7227 88.5286 12.8911 87.5977H9.98609ZM84.6328 96.8652C84.5486 96.8652 84.4644 96.8652 84.3802 96.8652C84.296 96.8652 84.2118 96.8229 84.1276 96.7383C83.7908 96.6536 80.8015 95.2572 75.1599 92.5488C69.5182 89.8405 65.7291 87.0898 63.7924 84.2969C63.624 84.043 63.5819 83.7467 63.6661 83.4082C63.7503 83.0697 63.9187 82.8158 64.1713 82.6465C64.4239 82.3926 64.7397 82.3079 65.1186 82.3926C65.4975 82.4772 65.7712 82.6465 65.9396 82.9004C67.2868 84.9316 70.2761 87.1322 74.9073 89.502C79.5385 91.8717 82.9487 93.5221 85.138 94.4531C85.4749 94.5378 85.7064 94.7493 85.8327 95.0879C85.959 95.4264 85.938 95.765 85.7696 96.1035C85.6854 96.3574 85.538 96.5479 85.3275 96.6748C85.117 96.8018 84.8854 96.8652 84.6328 96.8652ZM34.2368 96.4844C34.1526 96.4844 34.0684 96.4844 33.9842 96.4844C33.9 96.4844 33.8158 96.4844 33.7316 96.4844C30.8687 95.3841 28.953 93.8184 27.9847 91.7871C27.0163 89.7559 26.4901 88.0208 26.4058 86.582C26.4058 86.582 26.4058 86.5609 26.4058 86.5186C26.4058 86.4762 26.4058 86.4551 26.4058 86.4551C26.3216 86.2012 26.3006 85.9896 26.3427 85.8203C26.3848 85.651 26.448 85.4818 26.5322 85.3125C26.6164 84.8893 26.8479 84.4238 27.2268 83.916C27.6058 83.4082 28.0899 83.0273 28.6794 82.7734C29.6898 82.5195 30.8055 82.7311 32.0265 83.4082C33.2474 84.0853 34.6157 85.2279 36.1314 86.8359C36.2998 87.0898 36.4051 87.3226 36.4472 87.5342C36.4893 87.7458 36.4682 87.9785 36.384 88.2324C35.963 89.1634 35.6051 90.306 35.3104 91.6602C35.0157 93.0143 35.0367 93.9876 35.3736 94.5801C35.4578 94.834 35.4788 95.1091 35.4367 95.4053C35.3946 95.7015 35.2894 95.9342 35.1209 96.1035V96.2305C34.9525 96.3151 34.8052 96.3786 34.6789 96.4209C34.5526 96.4632 34.4052 96.4844 34.2368 96.4844ZM28.932 85.8203C28.932 85.9049 28.932 85.9684 28.932 86.0107C28.932 86.0531 28.932 86.0742 28.932 86.0742C28.932 86.1589 29.0793 87.0264 29.374 88.6768C29.6687 90.3271 30.7423 91.7871 32.5948 93.0566C32.679 92.1257 32.8474 91.1947 33.1001 90.2637C33.3527 89.3327 33.5632 88.571 33.7316 87.9785C32.3001 86.4551 31.2476 85.6087 30.5739 85.4395C29.9003 85.2702 29.5214 85.1855 29.4372 85.1855C29.353 85.2702 29.2688 85.376 29.1846 85.5029C29.1004 85.6299 29.0162 85.7357 28.932 85.8203ZM90.4429 88.6133C90.3587 88.6133 90.2534 88.5921 90.1271 88.5498C90.0008 88.5075 89.8956 88.4863 89.8114 88.4863C89.8114 88.4863 88.7799 87.9574 86.7169 86.8994C84.6539 85.8415 82.2751 84.5508 79.5806 83.0273C76.044 80.9115 73.1811 78.9437 70.9918 77.124C68.8025 75.3044 67.3289 73.6328 66.5711 72.1094C66.4027 71.7708 66.3816 71.4534 66.5079 71.1572C66.6342 70.861 66.8237 70.6283 67.0763 70.459C67.4131 70.2897 67.7499 70.2686 68.0868 70.3955C68.4236 70.5225 68.6762 70.7129 68.8446 70.9668C69.2656 71.8132 70.3182 73.0404 72.0022 74.6484C73.6863 76.2565 76.6335 78.3301 80.8437 80.8691C83.454 82.3926 85.7906 83.6621 87.8536 84.6777C89.9166 85.6934 90.9481 86.2012 90.9481 86.2012C91.2849 86.3704 91.5165 86.6032 91.6428 86.8994C91.7691 87.1956 91.748 87.513 91.5796 87.8516C91.4112 88.1055 91.2218 88.2959 91.0113 88.4229C90.8008 88.5498 90.6113 88.6133 90.4429 88.6133ZM97.3897 82.6465C97.2213 82.6465 97.0529 82.6042 96.8845 82.5195C96.7161 82.4349 96.5898 82.3503 96.5056 82.2656C96.4214 82.181 96.2951 82.054 96.1266 81.8848C95.9582 81.7155 95.5793 81.4193 94.9899 80.9961C94.7373 80.8268 94.5689 80.5518 94.4847 80.1709C94.4005 79.79 94.4847 79.4727 94.7373 79.2188C94.9057 78.9648 95.1583 78.8167 95.4951 78.7744C95.8319 78.7321 96.1688 78.7956 96.5056 78.9648C97.095 79.4727 97.516 79.8324 97.7686 80.0439C98.0212 80.2555 98.1896 80.4036 98.2738 80.4883C98.5265 80.7422 98.6528 81.0384 98.6528 81.377C98.6528 81.7155 98.5265 82.0117 98.2738 82.2656C98.1054 82.3503 97.9581 82.4349 97.8318 82.5195C97.7055 82.6042 97.5581 82.6465 97.3897 82.6465ZM44.9728 104.355C43.6255 104.355 42.5098 104.144 41.6257 103.721C40.7416 103.298 40.2574 103.086 40.1732 103.086C40.1732 103.086 40.1521 103.065 40.11 103.022C40.0679 102.98 40.0469 102.959 40.0469 102.959C40.0469 102.959 39.9416 102.896 39.7311 102.769C39.5206 102.642 39.2469 102.451 38.9101 102.197C37.226 100.843 36.1103 99.9121 35.563 99.4043C35.0157 98.8965 34.6578 98.5579 34.4894 98.3887C34.0684 97.9655 33.7526 97.5212 33.5421 97.0557C33.3316 96.5902 33.1843 96.2305 33.1001 95.9766C33.1001 95.8919 33.079 95.8073 33.0369 95.7227C32.9948 95.638 32.9738 95.5534 32.9738 95.4688C32.8895 95.4688 32.8474 95.4476 32.8474 95.4053C32.8474 95.363 32.8474 95.2995 32.8474 95.2148C32.4264 93.8607 32.4685 92.2949 32.9738 90.5176C33.479 88.7402 33.8579 87.64 34.1105 87.2168C34.1105 87.2168 34.2368 86.9417 34.4894 86.3916C34.742 85.8415 35.1209 85.2279 35.6262 84.5508C36.384 83.5352 37.1629 82.7734 37.9628 82.2656C38.7628 81.7578 39.5838 81.4616 40.4258 81.377C41.6046 81.377 42.7203 81.779 43.7729 82.583C44.8254 83.387 45.8569 84.6354 46.8674 86.3281C46.9516 86.4974 47.0147 86.6455 47.0568 86.7725C47.0989 86.8994 47.1621 87.0475 47.2463 87.2168C47.2463 87.64 47.1621 88.2959 46.9937 89.1846C46.8253 90.0732 46.1938 91.4909 45.0991 93.4375C44.3413 94.8763 44.1097 96.3151 44.4044 97.7539C44.6991 99.1927 45.5201 100.589 46.8674 101.943V102.07C47.12 102.324 47.2463 102.62 47.2463 102.959C47.2463 103.298 47.12 103.594 46.8674 103.848V103.975C46.699 104.059 46.5306 104.144 46.3622 104.229C46.1938 104.313 46.0253 104.355 45.8569 104.355C45.8569 104.355 45.8148 104.355 45.7306 104.355C45.6464 104.355 45.5201 104.355 45.3517 104.355C45.1833 104.355 45.057 104.355 44.9728 104.355ZM41.5625 100.928C41.6467 100.928 41.8362 101.012 42.1309 101.182C42.4256 101.351 42.8256 101.478 43.3308 101.562C42.4046 100.124 41.8994 98.6003 41.8152 96.9922C41.731 95.3841 42.0678 93.8184 42.8256 92.2949C43.6676 90.7715 44.1939 89.6712 44.4044 88.9941C44.6149 88.3171 44.7202 87.8939 44.7202 87.7246C44.215 86.8783 43.6045 86.0319 42.8888 85.1855C42.173 84.3392 41.3941 83.9583 40.5521 84.043C39.6259 84.043 38.7628 84.6143 37.9628 85.7568C37.1629 86.8994 36.6366 87.7246 36.384 88.2324C36.0472 89.1634 35.7104 90.306 35.3736 91.6602C35.0367 93.0143 35.0367 93.9876 35.3736 94.5801C35.4578 94.6647 35.4999 94.7493 35.4999 94.834C35.4999 94.9186 35.4999 95.0033 35.4999 95.0879C35.5841 95.2572 35.6893 95.5111 35.8156 95.8496C35.9419 96.1882 36.1314 96.4844 36.384 96.7383C36.4682 96.8229 36.784 97.098 37.3313 97.5635C37.8786 98.029 38.9522 98.8965 40.5521 100.166C40.8047 100.335 41.0152 100.483 41.1836 100.61C41.352 100.737 41.4783 100.843 41.5625 100.928ZM51.0355 107.656C50.9513 107.656 50.8881 107.656 50.846 107.656C50.8039 107.656 50.7408 107.656 50.6566 107.656C49.5619 107.572 48.7199 107.318 48.1304 106.895C47.541 106.471 47.2042 106.217 47.12 106.133C47.12 106.133 47.0779 106.133 46.9937 106.133L44.9728 103.975C44.8886 103.89 44.8254 103.805 44.7833 103.721C44.7412 103.636 44.7202 103.551 44.7202 103.467C43.1203 101.689 42.173 99.8486 41.8783 97.9443C41.5836 96.04 41.8994 94.1992 42.8256 92.4219C43.836 90.5599 44.4044 89.3115 44.5307 88.6768C44.657 88.042 44.7202 87.7246 44.7202 87.7246C44.7202 87.5553 44.7202 87.4072 44.7202 87.2803C44.7202 87.1533 44.7623 87.0052 44.8465 86.8359C45.0991 86.3281 45.7306 85.3337 46.7411 83.8525C47.7515 82.3714 49.0146 81.7155 50.5303 81.8848C51.7091 81.9694 52.7406 82.6888 53.6247 84.043C54.5089 85.3971 55.2878 87.4707 55.9614 90.2637C56.0456 90.4329 56.0667 90.6234 56.0246 90.835C55.9825 91.0466 55.8772 91.237 55.7088 91.4062C55.7088 91.4062 55.1825 92.2949 54.13 94.0723C53.0774 95.8496 52.8038 97.6693 53.309 99.5312C53.8142 101.478 54.1721 102.684 54.3826 103.149C54.5931 103.615 54.8247 103.975 55.0773 104.229C55.1615 104.229 55.2246 104.25 55.2667 104.292C55.3088 104.334 55.3299 104.355 55.3299 104.355C55.4141 104.525 55.4983 104.694 55.5825 104.863C55.6667 105.033 55.7088 105.244 55.7088 105.498C55.6246 105.667 55.5404 105.837 55.4562 106.006C55.372 106.175 55.2457 106.302 55.0773 106.387C54.4036 106.81 53.73 107.127 53.0564 107.339C52.3827 107.55 51.7091 107.656 51.0355 107.656ZM48.8883 104.355C48.8883 104.355 49.0567 104.461 49.3935 104.673C49.7303 104.884 50.1934 104.99 50.7829 104.99C51.0355 105.075 51.3091 105.096 51.6039 105.054C51.8986 105.011 52.1722 104.906 52.4248 104.736C52.1722 104.398 51.9407 103.89 51.7302 103.213C51.5197 102.536 51.246 101.52 50.9092 100.166C50.3197 98.0501 50.4671 96.0612 51.3512 94.1992C52.2354 92.3372 52.9301 91.0254 53.4353 90.2637C52.6775 87.4707 52.0038 85.7992 51.4144 85.249C50.825 84.6989 50.4461 84.3815 50.2776 84.2969C49.8566 84.2969 49.3304 84.6777 48.6988 85.4395C48.0673 86.2012 47.5831 86.9629 47.2463 87.7246C47.2463 88.1478 47.12 88.8037 46.8674 89.6924C46.6148 90.5811 46.0253 91.8717 45.0991 93.5645C44.3413 94.9186 44.1097 96.3151 44.4044 97.7539C44.6991 99.1927 45.5201 100.632 46.8674 102.07H46.9937C46.9937 102.155 47.0147 102.24 47.0568 102.324C47.0989 102.409 47.1621 102.493 47.2463 102.578L48.8883 104.355ZM59.119 109.688C58.5296 109.688 58.0244 109.624 57.6034 109.497C57.1824 109.37 56.8876 109.307 56.7192 109.307C56.635 109.222 56.5508 109.159 56.4666 109.116C56.3824 109.074 56.2982 109.01 56.214 108.926L53.5616 106.133C53.4774 106.048 53.4353 106.006 53.4353 106.006C53.4353 106.006 53.3932 105.964 53.309 105.879C52.888 105.456 52.5301 104.927 52.2354 104.292C51.9407 103.657 51.4986 102.282 50.9092 100.166C50.3197 97.9655 50.5303 95.8708 51.5407 93.8818C52.5511 91.8929 53.2669 90.6022 53.6879 90.0098C53.8563 89.3327 54.2352 88.6768 54.8247 88.042C55.4141 87.4072 56.1298 87.0898 56.9719 87.0898C58.2349 87.0898 59.2875 87.9362 60.1295 89.6289C60.9715 91.3216 61.6031 93.903 62.0241 97.373C62.1083 97.4577 62.1504 97.627 62.1504 97.8809C62.1504 98.1348 62.1925 98.431 62.2767 98.7695C62.2767 99.8698 62.6135 100.843 63.2871 101.689C63.9608 102.536 64.8028 103.128 65.8133 103.467C66.0659 103.551 66.2764 103.594 66.4448 103.594C66.6132 103.594 66.7395 103.594 66.8237 103.594C67.0763 103.594 67.3079 103.657 67.5184 103.784C67.7289 103.911 67.9184 104.102 68.0868 104.355C68.171 104.525 68.192 104.757 68.1499 105.054C68.1078 105.35 68.0026 105.583 67.8342 105.752C66.1501 107.36 64.5502 108.418 63.0345 108.926C61.5189 109.434 60.2137 109.688 59.119 109.688ZM57.856 107.021C58.0244 107.021 58.3191 107.043 58.7401 107.085C59.1612 107.127 59.6243 107.106 60.1295 107.021C60.8031 106.937 61.4768 106.768 62.1504 106.514C62.824 106.26 63.4556 105.921 64.045 105.498C62.7819 104.906 61.7504 104.017 60.9505 102.832C60.1505 101.647 59.7085 100.335 59.6243 98.8965C59.6243 98.6426 59.6032 98.4098 59.5611 98.1982C59.519 97.9867 59.498 97.8809 59.498 97.8809C58.9927 93.9876 58.4454 91.639 57.856 90.835C57.2666 90.0309 56.9297 89.6289 56.8455 89.6289C56.7613 89.6289 56.614 89.7559 56.4035 90.0098C56.193 90.2637 56.0877 90.5176 56.0877 90.7715C56.0877 90.8561 56.0456 90.9619 55.9614 91.0889C55.8772 91.2158 55.8351 91.3216 55.8351 91.4062C55.7509 91.4062 55.1825 92.2949 54.13 94.0723C53.0774 95.8496 52.8038 97.6693 53.309 99.5312C53.8142 101.478 54.1721 102.684 54.3826 103.149C54.5931 103.615 54.8247 103.975 55.0773 104.229C55.1615 104.229 55.2246 104.25 55.2667 104.292C55.3088 104.334 55.3299 104.355 55.3299 104.355L57.856 107.021ZM6.95475 102.07C6.95475 102.07 6.91265 102.07 6.82845 102.07C6.74424 102.07 6.66004 102.07 6.57584 102.07L0.892075 100.039C0.639464 99.9544 0.428954 99.8063 0.260546 99.5947C0.0921384 99.3831 0.00793457 99.1081 0.00793457 98.7695C0.0921384 94.2839 0.513158 88.973 1.27099 82.8369C2.02883 76.7008 3.6708 70.5436 6.19692 64.3652C7.71259 60.7259 9.123 58.0176 10.4282 56.2402C11.7333 54.4629 12.3859 53.5319 12.3859 53.4473C12.5543 53.278 12.7227 53.151 12.8911 53.0664C13.0595 52.9818 13.27 52.9395 13.5227 52.9395L19.0801 53.5742C19.4169 53.5742 19.6906 53.7012 19.9011 53.9551C20.1116 54.209 20.2169 54.5052 20.2169 54.8438V55.4785C20.2169 55.5631 20.2169 55.6478 20.2169 55.7324C20.2169 55.8171 20.1748 55.9017 20.0906 55.9863C20.0906 55.9863 19.7537 56.875 19.0801 58.6523C18.3223 60.4297 17.4381 62.7572 16.4277 65.6348C15.4172 68.5124 14.3226 71.7708 13.1437 75.4102C12.0491 79.0495 11.0807 82.7734 10.2387 86.582L10.1124 86.8359C9.52297 89.5443 9.0809 92.0622 8.78619 94.3896C8.49147 96.7171 8.30202 98.8965 8.21781 100.928C8.21781 101.097 8.17571 101.266 8.09151 101.436C8.0073 101.605 7.881 101.774 7.71259 101.943C7.62838 101.943 7.52313 101.965 7.39682 102.007C7.27052 102.049 7.12316 102.07 6.95475 102.07ZM2.66036 97.8809L5.818 99.0234C5.90221 97.1615 6.11272 95.1725 6.44953 93.0566C6.78635 90.9408 7.20737 88.6979 7.71259 86.3281L7.83889 85.9473C9.27036 79.4303 11.0386 73.252 13.1437 67.4121C15.2488 61.5723 16.6803 57.7637 17.4381 55.9863L13.9016 55.6055C13.4806 56.1979 12.7648 57.3193 11.7544 58.9697C10.7439 60.6201 9.64928 62.7995 8.47042 65.5078C7.20737 68.724 5.92326 73.0192 4.6181 78.3936C3.31294 83.7679 2.66036 90.2637 2.66036 97.8809ZM17.3118 87.5977H8.97565C8.80724 87.5977 8.63883 87.5553 8.47042 87.4707C8.30202 87.3861 8.13361 87.2591 7.9652 87.0898C7.881 86.9206 7.81784 86.7513 7.77574 86.582C7.73364 86.4128 7.71259 86.2435 7.71259 86.0742C8.55463 82.181 9.56507 78.4147 10.7439 74.7754C11.9228 71.0514 13.0385 67.7295 14.091 64.8096C15.1436 61.8896 16.0067 59.541 16.6803 57.7637C17.4381 55.9863 17.8171 55.0553 17.8171 54.9707C17.9013 54.8014 18.0697 54.6322 18.3223 54.4629C18.5749 54.2936 18.8275 54.209 19.0801 54.209L24.6376 54.4629C24.9744 54.4629 25.2691 54.5898 25.5217 54.8438C25.7743 55.0977 25.9006 55.3939 25.9006 55.7324V56.748C25.9006 56.9173 25.8796 57.0654 25.8375 57.1924C25.7954 57.3193 25.7322 57.4251 25.648 57.5098C25.4796 57.8483 24.1955 60.8105 21.7957 66.3965C19.3959 71.9824 18.3223 78.584 18.5749 86.2012C18.5749 86.4551 18.5328 86.6455 18.4486 86.7725C18.3644 86.8994 18.2802 87.0475 18.196 87.2168C18.0276 87.3014 17.8802 87.3861 17.7539 87.4707C17.6276 87.5553 17.4802 87.5977 17.3118 87.5977ZM10.6176 85.0586H15.9225C15.9225 78.1185 16.9119 72.0671 18.8907 66.9043C20.8694 61.7415 22.2799 58.3984 23.1219 56.875L19.8379 56.748C19.1643 58.3561 17.8171 61.8896 15.7962 67.3486C13.7753 72.8076 12.0491 78.7109 10.6176 85.0586ZM69.6024 106.641C68.9288 106.641 68.3604 106.577 67.8973 106.45C67.4342 106.323 67.0763 106.217 66.8237 106.133C66.8237 106.133 66.8027 106.133 66.7606 106.133C66.7185 106.133 66.6553 106.133 66.5711 106.133C66.3185 106.133 66.0659 106.112 65.8133 106.069C65.5606 106.027 65.308 105.964 65.0554 105.879C63.4556 105.456 62.1714 104.588 61.2031 103.276C60.2348 101.965 59.7085 100.505 59.6243 98.8965C59.6243 98.5579 59.6032 98.304 59.5611 98.1348C59.519 97.9655 59.498 97.8809 59.498 97.8809C59.498 97.8809 59.498 97.8385 59.498 97.7539C58.9927 93.9453 58.4454 91.639 57.856 90.835C57.2666 90.0309 56.9297 89.6289 56.8455 89.6289C56.7613 89.6289 56.614 89.7559 56.4035 90.0098C56.193 90.2637 56.0877 90.4753 56.0877 90.6445C56.0035 90.9831 55.8562 91.2581 55.6456 91.4697C55.4351 91.6813 55.1615 91.7871 54.8247 91.7871C54.572 91.7871 54.3194 91.7025 54.0668 91.5332C53.8142 91.3639 53.6458 91.1523 53.5616 90.8984C52.8038 87.8516 52.1091 86.0107 51.4776 85.376C50.846 84.7412 50.4461 84.3815 50.2776 84.2969C49.7724 84.2969 49.204 84.7201 48.5725 85.5664C47.941 86.4128 47.4568 87.2168 47.12 87.9785C47.12 88.0632 47.0989 88.1266 47.0568 88.1689C47.0147 88.2113 46.9516 88.2747 46.8674 88.3594C46.699 88.5286 46.5095 88.6344 46.299 88.6768C46.0885 88.7191 45.8569 88.6979 45.6043 88.6133C45.4359 88.5286 45.2675 88.4229 45.0991 88.2959C44.9307 88.1689 44.8465 88.0208 44.8465 87.8516C44.8465 87.8516 44.8465 87.8304 44.8465 87.7881C44.8465 87.7458 44.8044 87.7246 44.7202 87.7246C44.215 86.8783 43.6045 86.0319 42.8888 85.1855C42.173 84.3392 41.3941 83.916 40.5521 83.916C39.6259 84.0007 38.7628 84.5931 37.9628 85.6934C37.1629 86.7936 36.6366 87.64 36.384 88.2324C36.2998 88.4017 36.1735 88.5498 36.0051 88.6768C35.8367 88.8037 35.6683 88.9095 35.4999 88.9941C35.2473 88.9941 35.0367 88.9518 34.8683 88.8672C34.6999 88.7826 34.5315 88.6979 34.3631 88.6133C32.679 86.7513 31.4581 85.7145 30.7002 85.5029C29.9424 85.2913 29.5214 85.1855 29.4372 85.1855C29.2688 85.2702 29.1425 85.3971 29.0583 85.5664C28.9741 85.7357 28.932 85.8626 28.932 85.9473C28.932 86.1165 28.9109 86.2435 28.8688 86.3281C28.8267 86.4128 28.7636 86.4974 28.6794 86.582L28.553 86.709C28.3846 86.8783 28.1952 87.0052 27.9847 87.0898C27.7742 87.1745 27.5426 87.2168 27.29 87.2168L21.8588 85.9473L21.101 86.709C20.8484 87.0475 20.3853 87.2591 19.7116 87.3438C19.038 87.4284 18.2381 87.4707 17.3118 87.4707C16.975 87.4707 16.6803 87.3649 16.4277 87.1533C16.1751 86.9417 16.0488 86.6667 16.0488 86.3281C15.7962 78.1185 16.9329 71.0938 19.459 65.2539C21.9851 59.4141 23.3324 56.3672 23.5008 56.1133C23.585 56.1133 23.6271 56.0921 23.6271 56.0498C23.6271 56.0075 23.6692 55.944 23.7534 55.8594C23.8376 55.7747 23.985 55.6901 24.1955 55.6055C24.406 55.5208 24.5955 55.4785 24.7639 55.4785C25.8585 55.6478 26.9111 55.7324 27.9215 55.7324C28.932 55.7324 29.8582 55.7324 30.7002 55.7324C32.0475 55.6478 33.058 55.4997 33.7316 55.2881C34.4052 55.0765 34.8262 54.9284 34.9946 54.8438C35.2473 54.7591 35.5209 54.738 35.8156 54.7803C36.1103 54.8226 36.3419 54.9284 36.5103 55.0977C36.6787 55.2669 36.784 55.4997 36.8261 55.7959C36.8682 56.0921 36.8471 56.3249 36.7629 56.4941C36.3419 57.3405 36.0682 58.1022 35.9419 58.7793C35.8156 59.4564 35.8367 59.9219 36.0051 60.1758C36.1735 60.4297 36.5945 60.5778 37.2681 60.6201C37.9418 60.6624 38.9101 60.5566 40.1732 60.3027C40.4258 60.1335 41.5204 59.6045 43.4571 58.7158C45.3938 57.8271 46.8674 56.7057 47.8778 55.3516C47.962 55.3516 48.0252 55.3092 48.0673 55.2246C48.1094 55.14 48.1725 55.0977 48.2568 55.0977C48.341 55.0977 48.9093 54.8438 49.9619 54.3359C51.0144 53.8281 52.3827 53.4896 54.0668 53.3203C55.6667 53.151 57.5402 53.2992 59.6874 53.7646C61.8346 54.2301 63.9608 55.5208 66.0659 57.6367C66.4869 57.8906 68.0026 58.9486 70.6129 60.8105C73.2232 62.5879 76.1703 64.6191 79.4543 66.9043C82.7382 69.1895 85.9801 71.4323 89.1798 73.6328C92.4638 75.918 94.9057 77.653 96.5056 78.8379C96.5056 78.9225 96.5266 78.986 96.5687 79.0283C96.6108 79.0706 96.674 79.1341 96.7582 79.2188L97.7686 80.4883C97.7686 80.4883 97.7897 80.5094 97.8318 80.5518C97.8739 80.5941 97.8949 80.6576 97.8949 80.7422C98.3159 81.6732 98.5896 82.4984 98.7159 83.2178C98.8422 83.9372 98.8212 84.6354 98.6528 85.3125C98.4002 86.4974 97.6844 87.3861 96.5056 87.9785C95.3267 88.571 93.811 88.8249 91.9586 88.7402C92.0428 89.248 92.0849 89.7347 92.0849 90.2002C92.0849 90.6657 92.0428 91.0677 91.9586 91.4062C91.7059 93.099 91.0534 94.4108 90.0008 95.3418C88.9483 96.2728 87.6221 96.7806 86.0222 96.8652C85.938 97.2884 85.8327 97.6904 85.7064 98.0713C85.5801 98.4521 85.4328 98.7695 85.2644 99.0234C84.9275 99.8698 84.4223 100.547 83.7487 101.055C83.0751 101.562 82.2751 101.901 81.3489 102.07C80.6752 102.24 80.0227 102.345 79.3911 102.388C78.7596 102.43 78.1912 102.409 77.686 102.324C77.6018 102.832 77.286 103.361 76.7387 103.911C76.1914 104.461 75.3283 104.99 74.1494 105.498C73.2232 105.921 72.3812 106.217 71.6233 106.387C70.8655 106.556 70.1919 106.641 69.6024 106.641ZM67.4552 103.721C67.4552 103.721 67.4763 103.721 67.5184 103.721C67.5605 103.721 67.6236 103.763 67.7078 103.848C68.0447 103.932 68.6762 104.017 69.6024 104.102C70.5287 104.186 71.6654 103.932 73.0127 103.34C73.8547 102.917 74.4231 102.578 74.7178 102.324C75.0125 102.07 75.1599 101.901 75.1599 101.816C75.2441 101.816 75.2862 101.795 75.2862 101.753C75.2862 101.711 75.2862 101.605 75.2862 101.436C75.202 101.351 75.1599 101.224 75.1599 101.055C75.1599 100.885 75.202 100.716 75.2862 100.547C75.3704 100.378 75.4546 100.208 75.5388 100.039C75.623 99.8698 75.7493 99.7428 75.9177 99.6582C76.2545 99.5736 76.5282 99.5524 76.7387 99.5947C76.9492 99.637 77.1387 99.7005 77.3071 99.7852C77.3071 99.7852 77.3492 99.8063 77.4334 99.8486C77.5176 99.891 77.6018 99.9121 77.686 99.9121C78.107 99.9967 78.5701 100.018 79.0754 99.9756C79.5806 99.9333 80.17 99.8698 80.8437 99.7852C81.3489 99.7005 81.7699 99.5101 82.1067 99.2139C82.4435 98.9176 82.7382 98.5579 82.9908 98.1348C83.1593 97.7116 83.2856 97.3096 83.3698 96.9287C83.454 96.5479 83.454 96.2728 83.3698 96.1035C83.3698 95.9342 83.3698 95.765 83.3698 95.5957C83.3698 95.4264 83.4119 95.2572 83.4961 95.0879C83.5803 94.834 83.7697 94.6436 84.0644 94.5166C84.3592 94.3896 84.6328 94.3262 84.8854 94.3262C84.8854 94.3262 84.9275 94.3473 85.0117 94.3896C85.0959 94.432 85.2223 94.4531 85.3907 94.4531C86.2327 94.4531 87.0747 94.2415 87.9168 93.8184C88.7588 93.3952 89.264 92.5065 89.4324 91.1523C89.5166 90.7292 89.5377 90.2002 89.4956 89.5654C89.4535 88.9307 89.3482 88.2747 89.1798 87.5977C89.0956 87.3438 89.0746 87.1322 89.1167 86.9629C89.1588 86.7936 89.264 86.6243 89.4324 86.4551C89.6009 86.2858 89.7903 86.18 90.0008 86.1377C90.2113 86.0954 90.4008 86.0742 90.5692 86.0742C90.5692 86.0742 90.6745 86.0954 90.885 86.1377C91.0955 86.18 91.3691 86.2012 91.7059 86.2012C92.127 86.2858 92.9269 86.2858 94.1058 86.2012C95.2846 86.1165 96.0003 85.651 96.253 84.8047C96.253 84.6354 96.2319 84.318 96.1898 83.8525C96.1477 83.387 95.9582 82.7734 95.6214 82.0117L94.8636 80.8691C93.0953 79.5996 90.5692 77.8223 87.2852 75.5371C83.9171 73.1673 80.5489 70.8187 77.1808 68.4912C73.8126 66.1637 70.8655 64.1536 68.3394 62.4609C65.8133 60.6836 64.5502 59.7949 64.5502 59.7949C64.466 59.7949 64.4239 59.7738 64.4239 59.7314C64.4239 59.6891 64.3818 59.668 64.2976 59.668C61.182 56.5365 58.1297 55.2669 55.1404 55.8594C52.1512 56.4518 50.3197 56.9173 49.6461 57.2559C48.2989 58.8639 46.5516 60.1546 44.4044 61.1279C42.2572 62.1012 41.0994 62.6302 40.931 62.7148C40.931 62.7148 40.91 62.7148 40.8679 62.7148C40.8258 62.7148 40.8047 62.7148 40.8047 62.7148C39.1206 63.2227 37.7102 63.3919 36.5735 63.2227C35.4367 63.0534 34.6157 62.5879 34.1105 61.8262C33.6895 61.3184 33.4369 60.7259 33.3527 60.0488C33.2685 59.3717 33.3106 58.6947 33.479 58.0176C33.1422 58.1022 32.7422 58.1657 32.2791 58.208C31.8159 58.2503 31.3318 58.2715 30.8266 58.2715C29.9845 58.3561 29.1214 58.3773 28.2373 58.335C27.3531 58.2926 26.4058 58.2292 25.3954 58.1445C24.6376 59.5833 23.2903 62.7995 21.3536 67.793C19.4169 72.7865 18.4907 78.4993 18.5749 84.9316C18.7433 84.9316 18.9117 84.9316 19.0801 84.9316C19.2485 84.9316 19.3327 84.9316 19.3327 84.9316L20.5958 83.7891C20.68 83.6198 20.8273 83.4928 21.0379 83.4082C21.2484 83.3236 21.4799 83.3236 21.7325 83.4082L26.7848 84.5508C27.0374 84.2122 27.311 83.8737 27.6058 83.5352C27.9005 83.1966 28.3004 82.985 28.8057 82.9004C29.6477 82.6465 30.5739 82.7523 31.5844 83.2178C32.5948 83.6833 33.7316 84.5085 34.9946 85.6934C35.0788 85.5241 35.1841 85.3337 35.3104 85.1221C35.4367 84.9105 35.5841 84.7201 35.7525 84.5508C36.4261 83.6198 37.1629 82.9004 37.9628 82.3926C38.7628 81.8848 39.5838 81.5885 40.4258 81.5039C41.4362 81.4193 42.4046 81.6732 43.3308 82.2656C44.2571 82.8581 45.1412 83.7467 45.9832 84.9316C45.9832 84.847 46.0253 84.7835 46.1096 84.7412C46.1938 84.6989 46.2359 84.6354 46.2359 84.5508C46.9095 83.6198 47.6042 82.9216 48.3199 82.4561C49.0356 81.9906 49.7724 81.8001 50.5303 81.8848C51.5407 81.9694 52.4248 82.4772 53.1827 83.4082C53.9405 84.3392 54.6562 85.7357 55.3299 87.5977C55.5825 87.4284 55.8351 87.3014 56.0877 87.2168C56.3403 87.1322 56.5929 87.0898 56.8455 87.0898C56.8455 87.0898 56.8876 87.0898 56.9719 87.0898C58.2349 87.0898 59.2875 87.9362 60.1295 89.6289C60.9715 91.3216 61.6031 93.9453 62.0241 97.5C62.0241 97.5846 62.0451 97.7327 62.0872 97.9443C62.1293 98.1559 62.1504 98.431 62.1504 98.7695C62.2346 99.8698 62.5925 100.864 63.224 101.753C63.8555 102.642 64.6765 103.213 65.687 103.467C65.9396 103.551 66.129 103.594 66.2553 103.594C66.3816 103.594 66.4869 103.594 66.5711 103.594C66.7395 103.594 66.8869 103.594 67.0132 103.594C67.1395 103.594 67.2868 103.636 67.4552 103.721ZM113.936 100.293C113.767 100.293 113.599 100.251 113.431 100.166C113.262 100.081 113.094 99.9967 112.925 99.9121C112.42 99.3197 111.915 98.5156 111.41 97.5C110.904 96.4844 110.399 95.2572 109.894 93.8184C109.136 91.5332 108.526 89.3538 108.063 87.2803C107.599 85.2067 107.368 84.1276 107.368 84.043C107.368 83.8737 107.389 83.6833 107.431 83.4717C107.473 83.2601 107.536 83.0697 107.62 82.9004C107.789 82.8158 107.957 82.7311 108.126 82.6465C108.294 82.5618 108.463 82.5195 108.631 82.5195L114.188 82.6465C114.357 82.6465 114.504 82.6888 114.63 82.7734C114.757 82.8581 114.862 82.9427 114.946 83.0273C115.115 83.112 115.22 83.2389 115.262 83.4082C115.304 83.5775 115.325 83.7044 115.325 83.7891C115.746 86.7513 116.02 89.3962 116.146 91.7236C116.272 94.0511 116.209 96.1035 115.957 97.8809C115.957 97.9655 115.936 98.0501 115.894 98.1348C115.851 98.2194 115.83 98.304 115.83 98.3887L114.946 99.7852C114.778 99.9544 114.609 100.081 114.441 100.166C114.273 100.251 114.104 100.293 113.936 100.293ZM110.147 85.0586C110.399 85.9896 110.715 87.1745 111.094 88.6133C111.473 90.0521 111.873 91.4909 112.294 92.9297C112.546 93.6914 112.778 94.3262 112.988 94.834C113.199 95.3418 113.431 95.8073 113.683 96.2305C113.767 94.7917 113.746 93.1413 113.62 91.2793C113.494 89.4173 113.304 87.3861 113.052 85.1855L110.147 85.0586ZM105.221 84.9316C105.136 84.9316 105.094 84.9316 105.094 84.9316L99.6632 84.6777C99.4948 84.5931 99.3475 84.5296 99.2211 84.4873C99.0948 84.445 98.9896 84.3815 98.9054 84.2969L94.8636 80.9961C93.2637 79.7266 90.7797 77.9069 87.4116 75.5371C84.0434 73.252 80.6752 70.9245 77.3071 68.5547C73.9389 66.1849 70.9918 64.1536 68.4657 62.4609C65.8554 60.6836 64.5502 59.7949 64.5502 59.7949C64.466 59.7949 64.4239 59.7738 64.4239 59.7314C64.4239 59.6891 64.3818 59.668 64.2976 59.668C61.182 56.5365 58.1297 55.2669 55.1404 55.8594C52.1512 56.4518 50.3197 56.9173 49.6461 57.2559C48.2989 58.8639 46.5516 60.1546 44.4044 61.1279C42.2572 62.1012 41.0994 62.6302 40.931 62.7148C40.931 62.7148 40.91 62.7148 40.8679 62.7148C40.8258 62.7148 40.8047 62.7148 40.8047 62.7148C39.1206 63.2227 37.7102 63.3919 36.5735 63.2227C35.4367 63.0534 34.6157 62.5879 34.1105 61.8262C33.4369 61.0645 33.1632 60.1758 33.2895 59.1602C33.4158 58.1445 33.6895 57.2135 34.1105 56.3672C34.0263 55.944 34.1316 55.6055 34.4263 55.3516C34.721 55.0977 34.9525 54.8861 35.1209 54.7168C35.2052 54.7168 35.2683 54.6956 35.3104 54.6533C35.3525 54.611 35.3736 54.5475 35.3736 54.4629C35.7946 53.8704 36.363 53.151 37.0787 52.3047C37.7944 51.4583 38.2365 50.9082 38.4049 50.6543C40.4258 47.6074 43.1624 45.3223 46.6148 43.7988C50.0671 42.2754 52.0038 41.429 52.4248 41.2598C52.9301 41.0905 53.3721 40.9001 53.7511 40.6885C54.13 40.4769 54.4878 40.3288 54.8247 40.2441C56.3403 39.4824 57.6034 39.1016 58.6138 39.1016C59.6243 39.1016 61.6873 39.5247 64.8028 40.3711C66.0659 40.7096 67.0974 40.9635 67.8973 41.1328C68.6972 41.3021 69.3498 41.429 69.855 41.5137C70.9497 41.7676 71.9601 42.0426 72.8864 42.3389C73.8126 42.6351 75.5809 43.4603 78.1912 44.8145C81.7278 46.6764 85.1801 47.417 88.5483 47.0361C91.9165 46.6553 93.6426 46.4648 93.7268 46.4648C93.9795 46.3802 94.211 46.3802 94.4215 46.4648C94.632 46.5495 94.8215 46.7188 94.9899 46.9727C95.0741 47.0573 95.7056 47.9883 96.8845 49.7656C97.9791 51.543 99.2001 54.0186 100.547 57.1924C101.895 60.3662 103.158 64.1536 104.337 68.5547C105.515 73.0404 106.231 78.0339 106.484 83.5352C106.484 83.7044 106.463 83.8737 106.421 84.043C106.378 84.2122 106.273 84.3815 106.105 84.5508C105.936 84.6354 105.789 84.7201 105.663 84.8047C105.536 84.8893 105.389 84.9316 105.221 84.9316ZM100.168 82.1387L103.831 82.2656C103.242 73.2943 101.579 65.8675 98.8422 59.9854C96.1056 54.1032 94.2742 50.4427 93.3479 49.0039C92.1691 49.2578 89.9798 49.4271 86.78 49.5117C83.5803 49.5964 80.2963 48.75 76.9282 46.9727C74.4863 45.7031 72.8653 44.9414 72.0654 44.6875C71.2655 44.4336 70.3603 44.1797 69.3498 43.9258C68.7604 43.8411 68.0657 43.7142 67.2658 43.5449C66.4658 43.3756 65.3922 43.1217 64.045 42.7832C61.4347 42.0215 59.7506 41.6195 58.9927 41.5771C58.2349 41.5348 57.1824 41.8099 55.8351 42.4023C55.4983 42.5716 55.1194 42.762 54.6983 42.9736C54.2773 43.1852 53.8142 43.3756 53.309 43.5449C53.309 43.6296 53.2879 43.6719 53.2458 43.6719C53.2037 43.6719 53.1827 43.6719 53.1827 43.6719C53.0985 43.6719 51.3933 44.3913 48.0673 45.8301C44.7412 47.2689 42.1941 49.3424 40.4258 52.0508C40.4258 52.0508 40.4258 52.0931 40.4258 52.1777C40.089 52.5163 39.5627 53.1299 38.847 54.0186C38.1312 54.9072 37.6471 55.6055 37.3945 56.1133C37.3102 56.1133 37.2471 56.1556 37.205 56.2402C37.1629 56.3249 37.0997 56.4095 37.0155 56.4941C36.9313 56.4941 36.8682 56.5153 36.8261 56.5576C36.784 56.5999 36.7208 56.6634 36.6366 56.748C36.2998 57.5098 36.0682 58.2292 35.9419 58.9062C35.8156 59.5833 35.8367 60.0488 36.0051 60.3027C36.1735 60.472 36.5945 60.599 37.2681 60.6836C37.9418 60.7682 38.868 60.6413 40.0469 60.3027C40.3837 60.1335 41.5204 59.6045 43.4571 58.7158C45.3938 57.8271 46.8674 56.748 47.8778 55.4785C47.962 55.3939 48.0252 55.3304 48.0673 55.2881C48.1094 55.2458 48.1725 55.1823 48.2568 55.0977C48.2568 55.0977 48.8041 54.8438 49.8987 54.3359C50.9934 53.8281 52.3827 53.4896 54.0668 53.3203C55.6667 53.151 57.5402 53.3203 59.6874 53.8281C61.8346 54.3359 63.9608 55.6055 66.0659 57.6367C66.4869 57.9753 68.0026 59.0332 70.6129 60.8105C73.2232 62.5879 76.1703 64.6191 79.4543 66.9043C82.7382 69.1895 85.9801 71.4746 89.1798 73.7598C92.3796 75.9603 94.8215 77.6953 96.5056 78.9648L100.168 82.1387ZM113.936 100.293C113.683 100.293 113.473 100.251 113.304 100.166C113.136 100.081 113.01 99.9544 112.925 99.7852C112.757 99.6159 112.673 99.4043 112.673 99.1504C112.673 98.8965 112.715 98.6426 112.799 98.3887L113.557 97.2461C113.978 93.4375 113.683 88.6556 112.673 82.9004C111.662 77.1452 110.441 71.5804 109.01 66.2061C107.578 60.8317 106.189 56.1979 104.842 52.3047C103.579 48.4115 102.947 46.4225 102.947 46.3379C102.947 46.3379 102.926 46.2956 102.884 46.2109C102.842 46.1263 102.821 46.0417 102.821 45.957V45.0684C102.821 44.7298 102.947 44.4336 103.2 44.1797C103.452 43.9258 103.747 43.7988 104.084 43.7988H114.694C114.946 43.7988 115.178 43.8835 115.388 44.0527C115.599 44.222 115.746 44.4336 115.83 44.6875C118.02 52.3047 119.872 59.2025 121.388 65.3809C122.903 71.6439 124.124 76.9759 125.051 81.377C125.977 85.778 126.651 89.1634 127.072 91.5332C127.493 93.9876 127.703 95.2572 127.703 95.3418C127.787 95.5957 127.745 95.8708 127.577 96.167C127.408 96.4632 127.156 96.6536 126.819 96.7383L114.188 100.293C114.188 100.293 114.146 100.293 114.062 100.293C113.978 100.293 113.936 100.293 113.936 100.293ZM105.6 46.3379C106.021 47.6921 106.905 50.4004 108.252 54.4629C109.515 58.5254 110.799 63.0745 112.104 68.1104C113.409 73.1462 114.483 78.2878 115.325 83.5352C116.251 88.7826 116.504 93.3105 116.083 97.1191L125.051 94.5801C124.882 93.4798 124.545 91.5332 124.04 88.7402C123.451 86.0319 122.714 82.6042 121.83 78.457C120.946 74.3099 119.83 69.528 118.483 64.1113C117.136 58.6947 115.536 52.7702 113.683 46.3379H105.6ZM114.062 85.1855L108.631 85.0586C108.631 85.0586 108.589 85.0586 108.505 85.0586L105.094 84.9316C104.758 84.847 104.484 84.6989 104.273 84.4873C104.063 84.2757 103.958 84.0007 103.958 83.6621C103.705 78.3301 102.989 73.4635 101.81 69.0625C100.632 64.7461 99.3895 61.0645 98.0844 58.0176C96.7792 54.9707 95.5793 52.6009 94.4847 50.9082C93.4742 49.2155 92.969 48.3691 92.969 48.3691C92.8006 48.1999 92.6953 48.0094 92.6532 47.7979C92.6111 47.5863 92.6322 47.3535 92.7164 47.0996C92.8006 46.9303 92.9269 46.7611 93.0953 46.5918C93.2637 46.4225 93.4742 46.3379 93.7268 46.3379L103.958 44.6875C104.21 44.6029 104.463 44.6452 104.715 44.8145C104.968 44.9837 105.179 45.1953 105.347 45.4492C105.347 45.5339 105.726 46.7611 106.484 49.1309C107.326 51.5853 108.294 54.6745 109.389 58.3984C110.483 62.1224 111.578 66.2272 112.673 70.7129C113.852 75.1986 114.736 79.515 115.325 83.6621C115.325 83.916 115.304 84.1276 115.262 84.2969C115.22 84.4661 115.157 84.6354 115.073 84.8047C114.904 84.8893 114.757 84.974 114.63 85.0586C114.504 85.1432 114.315 85.1855 114.062 85.1855ZM108.631 82.5195L112.673 82.6465C112.083 79.0918 111.325 75.4525 110.399 71.7285C109.473 68.0046 108.547 64.5133 107.62 61.2549C106.694 57.9964 105.81 55.14 104.968 52.6855C104.21 50.2311 103.663 48.4538 103.326 47.3535L96.1266 48.623C97.3897 50.7389 99.2843 54.7168 101.81 60.5566C104.337 66.3965 105.852 73.6751 106.357 82.3926L108.631 82.5195ZM108.631 85.0586C108.631 85.0586 108.589 85.0586 108.505 85.0586L105.094 84.9316C104.758 84.9316 104.484 84.8047 104.273 84.5508C104.063 84.2969 103.958 84.0007 103.958 83.6621C103.958 83.4928 103.979 83.3236 104.021 83.1543C104.063 82.985 104.168 82.8158 104.337 82.6465C104.421 82.5618 104.547 82.4984 104.715 82.4561C104.884 82.4137 105.052 82.3926 105.221 82.3926L108.631 82.5195C108.968 82.5195 109.262 82.6465 109.515 82.9004C109.768 83.1543 109.894 83.4505 109.894 83.7891C109.894 84.1276 109.768 84.4238 109.515 84.6777C109.262 84.9316 108.968 85.0586 108.631 85.0586ZM64.045 129.238C63.624 129.238 63.3082 129.111 63.0977 128.857C62.8872 128.604 62.7819 128.307 62.7819 127.969C62.7819 127.63 62.8872 127.334 63.0977 127.08C63.3082 126.826 63.624 126.699 64.045 126.699C64.3818 126.699 64.7607 126.699 65.1817 126.699C65.6027 126.699 66.0238 126.657 66.4448 126.572C66.7816 126.572 67.0763 126.699 67.3289 126.953C67.5815 127.207 67.7499 127.503 67.8342 127.842C67.8342 128.18 67.7078 128.477 67.4552 128.73C67.2026 128.984 66.9079 129.111 66.5711 129.111C66.1501 129.196 65.7291 129.238 65.308 129.238C64.887 129.238 64.466 129.238 64.045 129.238ZM58.9927 128.984C58.9927 128.984 58.9717 128.984 58.9296 128.984C58.8875 128.984 58.8664 128.984 58.8664 128.984C58.4454 128.984 58.0244 128.963 57.6034 128.921C57.1824 128.879 56.7192 128.815 56.214 128.73C55.8772 128.646 55.6035 128.477 55.393 128.223C55.1825 127.969 55.1194 127.673 55.2036 127.334C55.2036 126.995 55.3509 126.72 55.6456 126.509C55.9404 126.297 56.2561 126.191 56.5929 126.191C57.014 126.276 57.435 126.34 57.856 126.382C58.277 126.424 58.6559 126.445 58.9927 126.445C59.4138 126.53 59.7295 126.699 59.94 126.953C60.1505 127.207 60.2137 127.503 60.1295 127.842C60.1295 128.18 60.0242 128.455 59.8137 128.667C59.6032 128.879 59.3296 128.984 58.9927 128.984ZM71.497 128.73C71.2444 128.73 70.9918 128.625 70.7392 128.413C70.4866 128.201 70.3603 127.926 70.3603 127.588C70.2761 127.249 70.3392 126.932 70.5497 126.636C70.7602 126.34 71.0339 126.191 71.3707 126.191C71.7917 126.107 72.2128 126.022 72.6338 125.938C73.0548 125.853 73.4337 125.768 73.7705 125.684C74.1073 125.684 74.4231 125.768 74.7178 125.938C75.0125 126.107 75.202 126.361 75.2862 126.699C75.3704 127.038 75.3072 127.355 75.0967 127.651C74.8862 127.948 74.6126 128.138 74.2757 128.223C73.8547 128.307 73.4337 128.392 73.0127 128.477C72.5917 128.561 72.1706 128.646 71.7496 128.73C71.7496 128.73 71.7286 128.73 71.6865 128.73C71.6444 128.73 71.5812 128.73 71.497 128.73ZM51.5407 127.842C51.4565 127.842 51.3933 127.842 51.3512 127.842C51.3091 127.842 51.246 127.799 51.1618 127.715C50.7408 127.63 50.3197 127.546 49.8987 127.461C49.4777 127.376 49.0567 127.249 48.6357 127.08C48.2989 126.995 48.0462 126.805 47.8778 126.509C47.7094 126.213 47.7094 125.895 47.8778 125.557C47.962 125.218 48.1515 124.964 48.4462 124.795C48.7409 124.626 49.0567 124.583 49.3935 124.668C49.8145 124.753 50.2145 124.858 50.5934 124.985C50.9723 125.112 51.3723 125.218 51.7933 125.303C52.1301 125.387 52.3827 125.578 52.5511 125.874C52.7196 126.17 52.7617 126.488 52.6775 126.826C52.5933 127.08 52.4459 127.313 52.2354 127.524C52.0249 127.736 51.7933 127.842 51.5407 127.842ZM78.9491 127.08C78.6964 127.08 78.4438 126.995 78.1912 126.826C77.9386 126.657 77.7702 126.445 77.686 126.191C77.6018 125.853 77.6439 125.535 77.8123 125.239C77.9807 124.943 78.2333 124.71 78.5701 124.541C78.9912 124.456 79.3911 124.351 79.7701 124.224C80.149 124.097 80.5489 123.949 80.97 123.779C81.3068 123.695 81.6225 123.737 81.9173 123.906C82.212 124.076 82.4435 124.329 82.6119 124.668C82.6961 125.007 82.654 125.324 82.4856 125.62C82.3172 125.916 82.0646 126.107 81.7278 126.191C81.391 126.361 81.0121 126.509 80.591 126.636C80.17 126.763 79.749 126.911 79.328 127.08C79.2438 127.08 79.1806 127.08 79.1385 127.08C79.0964 127.08 79.0333 127.08 78.9491 127.08ZM44.215 125.43C44.215 125.43 44.1729 125.43 44.0887 125.43C44.0045 125.43 43.9203 125.43 43.836 125.43C43.415 125.26 43.0151 125.091 42.6361 124.922C42.2572 124.753 41.8573 124.583 41.4362 124.414C41.0994 124.245 40.8679 123.991 40.7416 123.652C40.6152 123.314 40.6363 122.975 40.8047 122.637C40.9731 122.383 41.2047 122.192 41.4994 122.065C41.7941 121.938 42.1099 121.917 42.4467 122.002C42.8677 122.171 43.2677 122.34 43.6466 122.51C44.0255 122.679 44.3834 122.848 44.7202 123.018C45.057 123.102 45.2886 123.314 45.4149 123.652C45.5412 123.991 45.5622 124.329 45.478 124.668C45.3938 124.922 45.2254 125.112 44.9728 125.239C44.7202 125.366 44.4676 125.43 44.215 125.43ZM86.0222 124.414C85.8538 124.414 85.6643 124.351 85.4538 124.224C85.2433 124.097 85.0538 123.906 84.8854 123.652C84.8012 123.314 84.8012 122.996 84.8854 122.7C84.9696 122.404 85.1801 122.171 85.517 122.002C85.938 121.833 86.3169 121.663 86.6537 121.494C86.9905 121.325 87.3694 121.113 87.7905 120.859C88.1273 120.69 88.443 120.669 88.7378 120.796C89.0325 120.923 89.264 121.156 89.4324 121.494C89.6009 121.833 89.643 122.15 89.5587 122.446C89.4745 122.743 89.264 122.975 88.9272 123.145C88.5062 123.398 88.1062 123.61 87.7273 123.779C87.3484 123.949 86.9484 124.118 86.5274 124.287C86.5274 124.372 86.4643 124.414 86.338 124.414C86.2116 124.414 86.1064 124.414 86.0222 124.414ZM37.3945 122.256C37.3102 122.256 37.226 122.235 37.1418 122.192C37.0576 122.15 36.9313 122.087 36.7629 122.002C36.4261 121.833 36.0682 121.621 35.6893 121.367C35.3104 121.113 34.9525 120.902 34.6157 120.732C34.2789 120.479 34.0895 120.182 34.0473 119.844C34.0052 119.505 34.0684 119.209 34.2368 118.955C34.4052 118.617 34.6578 118.426 34.9946 118.384C35.3315 118.341 35.6683 118.405 36.0051 118.574C36.3419 118.743 36.6787 118.934 37.0155 119.146C37.3524 119.357 37.6892 119.59 38.026 119.844C38.3628 120.013 38.5733 120.267 38.6575 120.605C38.7417 120.944 38.6996 121.24 38.5312 121.494C38.447 121.748 38.2996 121.938 38.0891 122.065C37.8786 122.192 37.6471 122.256 37.3945 122.256ZM92.7164 120.732C92.548 120.732 92.3585 120.69 92.148 120.605C91.9375 120.521 91.7902 120.394 91.7059 120.225C91.4533 119.886 91.3691 119.548 91.4533 119.209C91.5375 118.87 91.748 118.617 92.0849 118.447C92.4217 118.193 92.7585 117.961 93.0953 117.749C93.4321 117.537 93.7689 117.305 94.1058 117.051C94.3584 116.882 94.6531 116.818 94.9899 116.86C95.3267 116.903 95.6214 117.051 95.874 117.305C96.0424 117.643 96.1056 117.982 96.0635 118.32C96.0214 118.659 95.8319 118.913 95.4951 119.082C95.1583 119.336 94.8215 119.59 94.4847 119.844C94.1479 120.098 93.7689 120.352 93.3479 120.605C93.2637 120.69 93.1585 120.732 93.0322 120.732C92.9059 120.732 92.8006 120.732 92.7164 120.732ZM31.2055 117.939C31.0371 117.939 30.8897 117.918 30.7634 117.876C30.6371 117.834 30.4897 117.77 30.3213 117.686C29.9845 117.432 29.6477 117.157 29.3109 116.86C28.9741 116.564 28.6794 116.289 28.4267 116.035C28.0899 115.781 27.9215 115.485 27.9215 115.146C27.9215 114.808 28.0057 114.512 28.1741 114.258C28.4267 114.004 28.7215 113.856 29.0583 113.813C29.3951 113.771 29.6898 113.877 29.9424 114.131C30.2792 114.385 30.616 114.639 30.9529 114.893C31.2897 115.146 31.6265 115.4 31.9633 115.654C32.2159 115.908 32.3633 116.204 32.4054 116.543C32.4475 116.882 32.3422 117.178 32.0896 117.432C32.0054 117.601 31.8791 117.728 31.7107 117.812C31.5423 117.897 31.3739 117.939 31.2055 117.939ZM98.7791 116.289C98.6107 116.289 98.4423 116.247 98.2738 116.162C98.1054 116.077 97.937 115.951 97.7686 115.781C97.6002 115.527 97.516 115.231 97.516 114.893C97.516 114.554 97.6423 114.258 97.8949 114.004C98.2318 113.75 98.5475 113.475 98.8422 113.179C99.1369 112.882 99.4527 112.607 99.7895 112.354C100.042 112.1 100.337 111.973 100.674 111.973C101.01 111.973 101.305 112.1 101.558 112.354C101.81 112.607 101.937 112.925 101.937 113.306C101.937 113.687 101.81 113.962 101.558 114.131C101.221 114.469 100.884 114.787 100.547 115.083C100.211 115.379 99.8737 115.654 99.5369 115.908C99.4527 115.993 99.3475 116.077 99.2211 116.162C99.0948 116.247 98.9475 116.289 98.7791 116.289ZM25.5217 112.861C25.3533 112.861 25.1849 112.84 25.0165 112.798C24.8481 112.756 24.7218 112.65 24.6376 112.48C24.3008 112.227 23.985 111.93 23.6903 111.592C23.3956 111.253 23.1219 110.915 22.8693 110.576C22.6167 110.322 22.5114 110.026 22.5535 109.688C22.5956 109.349 22.743 109.053 22.9956 108.799C23.2482 108.545 23.5429 108.439 23.8797 108.481C24.2165 108.524 24.5113 108.672 24.7639 108.926C25.0165 109.18 25.2901 109.476 25.5849 109.814C25.8796 110.153 26.1532 110.449 26.4058 110.703C26.6585 110.957 26.7848 111.253 26.7848 111.592C26.7848 111.93 26.6585 112.227 26.4058 112.48C26.3216 112.65 26.1953 112.756 26.0269 112.798C25.8585 112.84 25.6901 112.861 25.5217 112.861ZM104.21 110.83C104.042 110.83 103.894 110.809 103.768 110.767C103.642 110.724 103.494 110.661 103.326 110.576C103.073 110.322 102.926 110.026 102.884 109.688C102.842 109.349 102.947 109.053 103.2 108.799C103.452 108.46 103.705 108.122 103.958 107.783C104.21 107.445 104.463 107.148 104.715 106.895C104.968 106.556 105.263 106.366 105.6 106.323C105.936 106.281 106.231 106.387 106.484 106.641C106.821 106.895 107.01 107.191 107.052 107.529C107.094 107.868 106.989 108.164 106.736 108.418C106.484 108.757 106.21 109.095 105.915 109.434C105.621 109.772 105.347 110.111 105.094 110.449C105.01 110.534 104.884 110.618 104.715 110.703C104.547 110.788 104.379 110.83 104.21 110.83ZM20.5958 107.021C20.4274 107.021 20.259 106.979 20.0906 106.895C19.9221 106.81 19.7537 106.683 19.5853 106.514C19.3327 106.175 19.1012 105.837 18.8907 105.498C18.6801 105.16 18.4486 104.779 18.196 104.355C18.0276 104.102 17.9644 103.805 18.0065 103.467C18.0486 103.128 18.2381 102.874 18.5749 102.705C18.8275 102.451 19.1222 102.367 19.459 102.451C19.7958 102.536 20.0485 102.705 20.2169 102.959C20.4695 103.298 20.7221 103.636 20.9747 103.975C21.2273 104.313 21.4799 104.652 21.7325 104.99C21.9009 105.329 21.9641 105.667 21.922 106.006C21.8799 106.344 21.6904 106.598 21.3536 106.768C21.2694 106.852 21.1642 106.916 21.0379 106.958C20.9115 107 20.7642 107.021 20.5958 107.021ZM108.757 104.736C108.589 104.736 108.463 104.736 108.378 104.736C108.294 104.736 108.168 104.694 107.999 104.609C107.747 104.44 107.578 104.165 107.494 103.784C107.41 103.403 107.452 103.086 107.62 102.832C107.873 102.493 108.105 102.155 108.315 101.816C108.526 101.478 108.757 101.097 109.01 100.674C109.178 100.42 109.431 100.251 109.768 100.166C110.104 100.081 110.399 100.124 110.652 100.293C110.989 100.462 111.199 100.716 111.283 101.055C111.368 101.393 111.325 101.689 111.157 101.943C110.904 102.367 110.673 102.769 110.462 103.149C110.252 103.53 110.02 103.89 109.768 104.229C109.683 104.398 109.536 104.525 109.326 104.609C109.115 104.694 108.926 104.736 108.757 104.736ZM16.6803 100.547C16.4277 100.547 16.1961 100.505 15.9856 100.42C15.7751 100.335 15.6278 100.166 15.5435 99.9121C15.3751 99.5736 15.1857 99.1927 14.9752 98.7695C14.7647 98.3464 14.5752 97.9655 14.4068 97.627C14.2384 97.2884 14.2173 96.9499 14.3436 96.6113C14.4699 96.2728 14.7015 96.0189 15.0383 95.8496C15.2909 95.765 15.5857 95.765 15.9225 95.8496C16.2593 95.9342 16.5119 96.1458 16.6803 96.4844C16.8487 96.9076 17.0171 97.2884 17.1855 97.627C17.3539 97.9655 17.5644 98.3464 17.8171 98.7695C17.9855 99.0234 18.0065 99.3197 17.8802 99.6582C17.7539 99.9967 17.5223 100.251 17.1855 100.42C17.1013 100.505 17.0171 100.547 16.9329 100.547C16.8487 100.547 16.7645 100.547 16.6803 100.547ZM12.7648 55.2246C12.6806 55.2246 12.5964 55.2246 12.5122 55.2246C12.428 55.2246 12.3859 55.2246 12.3859 55.2246C12.0491 55.0553 11.7965 54.8226 11.6281 54.5264C11.4597 54.2301 11.4597 53.9128 11.6281 53.5742C11.7123 53.4049 11.7754 53.2145 11.8175 53.0029C11.8596 52.7913 11.9228 52.5586 12.007 52.3047C12.1754 51.9661 12.407 51.7334 12.7017 51.6064C12.9964 51.4795 13.3121 51.5006 13.649 51.6699C13.9858 51.7546 14.2173 51.9661 14.3436 52.3047C14.4699 52.6432 14.491 52.9818 14.4068 53.3203C14.3226 53.4896 14.2384 53.68 14.1542 53.8916C14.07 54.1032 13.9858 54.2936 13.9016 54.4629C13.8174 54.7168 13.67 54.9072 13.4595 55.0342C13.249 55.1611 13.0174 55.2246 12.7648 55.2246ZM15.1646 49.6387C15.0804 49.6387 14.9962 49.6175 14.912 49.5752C14.8278 49.5329 14.7436 49.5117 14.6594 49.5117C14.3226 49.3424 14.1121 49.0885 14.0279 48.75C13.9437 48.4115 13.9437 48.0729 14.0279 47.7344C14.2805 47.3958 14.491 47.0361 14.6594 46.6553C14.8278 46.2744 15.0383 45.9147 15.2909 45.5762C15.4593 45.2376 15.712 45.026 16.0488 44.9414C16.3856 44.8568 16.6803 44.8991 16.9329 45.0684C17.2697 45.2376 17.4802 45.4915 17.5644 45.8301C17.6486 46.1686 17.6065 46.5072 17.4381 46.8457C17.2697 47.1842 17.0803 47.5228 16.8698 47.8613C16.6593 48.1999 16.4698 48.5384 16.3014 48.877C16.2172 49.1309 16.0698 49.3213 15.8593 49.4482C15.6488 49.5752 15.4172 49.6387 15.1646 49.6387ZM18.9538 43.291C18.8696 43.291 18.7643 43.2699 18.638 43.2275C18.5117 43.1852 18.3644 43.1217 18.196 43.0371C17.9434 42.8678 17.796 42.6139 17.7539 42.2754C17.7118 41.9369 17.775 41.5983 17.9434 41.2598C18.196 40.9212 18.4275 40.5827 18.638 40.2441C18.8486 39.9056 19.0801 39.5671 19.3327 39.2285C19.5853 38.9746 19.88 38.8265 20.2169 38.7842C20.5537 38.7419 20.8484 38.8053 21.101 38.9746C21.4378 39.2285 21.6273 39.5247 21.6694 39.8633C21.7115 40.2018 21.6062 40.498 21.3536 40.752C21.1852 41.0905 20.9747 41.429 20.7221 41.7676C20.4695 42.1061 20.2169 42.4447 19.9643 42.7832C19.88 42.9525 19.7327 43.0794 19.5222 43.1641C19.3117 43.2487 19.1222 43.291 18.9538 43.291ZM23.5008 37.5781C23.3324 37.5781 23.185 37.5358 23.0587 37.4512C22.9324 37.3665 22.7851 37.2819 22.6167 37.1973C22.3641 36.9434 22.2378 36.6471 22.2378 36.3086C22.2378 35.9701 22.3641 35.6738 22.6167 35.4199C22.8693 35.0814 23.1429 34.764 23.4377 34.4678C23.7324 34.1715 24.006 33.8542 24.2586 33.5156C24.5113 33.2617 24.806 33.1348 25.1428 33.1348C25.4796 33.1348 25.7743 33.2617 26.0269 33.5156C26.2795 33.7695 26.4058 34.0869 26.4058 34.4678C26.4058 34.8486 26.2795 35.166 26.0269 35.4199C25.7743 35.6738 25.5217 35.9489 25.2691 36.2451C25.0165 36.5413 24.7218 36.8164 24.385 37.0703C24.3008 37.2396 24.1744 37.3665 24.006 37.4512C23.8376 37.5358 23.6692 37.5781 23.5008 37.5781ZM28.8057 32.373C28.6373 32.373 28.4688 32.3519 28.3004 32.3096C28.132 32.2673 27.9636 32.1615 27.7952 31.9922C27.6268 31.7383 27.5426 31.4209 27.5426 31.04C27.5426 30.6592 27.6689 30.3841 27.9215 30.2148C28.2583 29.9609 28.5951 29.6859 28.932 29.3896C29.2688 29.0934 29.6056 28.8184 29.9424 28.5645C30.195 28.3952 30.4897 28.3317 30.8266 28.374C31.1634 28.4163 31.4581 28.5645 31.7107 28.8184C31.8791 29.1569 31.9423 29.4954 31.9002 29.834C31.858 30.1725 31.7107 30.4264 31.4581 30.5957C31.1213 30.8496 30.8055 31.1035 30.5108 31.3574C30.2161 31.6113 29.9003 31.8652 29.5635 32.1191C29.4793 32.2038 29.374 32.2673 29.2477 32.3096C29.1214 32.3519 28.9741 32.373 28.8057 32.373ZM34.742 28.0566C34.4894 28.0566 34.2789 28.0143 34.1105 27.9297C33.9421 27.8451 33.7737 27.7181 33.6053 27.5488C33.4369 27.2103 33.3948 26.8717 33.479 26.5332C33.5632 26.1947 33.7316 25.9408 33.9842 25.7715C34.321 25.5176 34.6789 25.2848 35.0578 25.0732C35.4367 24.8617 35.7946 24.6712 36.1314 24.502C36.4682 24.3327 36.805 24.2904 37.1418 24.375C37.4787 24.4596 37.7313 24.6289 37.8997 24.8828C38.0681 25.2214 38.1102 25.5599 38.026 25.8984C37.9418 26.237 37.7313 26.4909 37.3945 26.6602C37.0576 26.8294 36.7208 27.0199 36.384 27.2314C36.0472 27.443 35.7104 27.6758 35.3736 27.9297C35.2894 27.9297 35.1841 27.9508 35.0578 27.9932C34.9315 28.0355 34.8262 28.0566 34.742 28.0566ZM41.0573 24.502C40.8889 24.502 40.6995 24.4385 40.4889 24.3115C40.2784 24.1846 40.089 24.0365 39.9206 23.8672C39.8364 23.5286 39.8364 23.1901 39.9206 22.8516C40.0048 22.513 40.2153 22.2591 40.5521 22.0898C40.9731 21.9206 41.3731 21.7513 41.752 21.582C42.1309 21.4128 42.4888 21.2858 42.8256 21.2012C43.1624 21.0319 43.4992 21.0107 43.836 21.1377C44.1729 21.2646 44.3834 21.4974 44.4676 21.8359C44.636 22.1745 44.657 22.4919 44.5307 22.7881C44.4044 23.0843 44.1729 23.3171 43.836 23.4863C43.4992 23.6556 43.1414 23.8037 42.7624 23.9307C42.3835 24.0576 42.0257 24.248 41.6889 24.502C41.6046 24.502 41.4994 24.502 41.3731 24.502C41.2468 24.502 41.1415 24.502 41.0573 24.502ZM48.0041 21.9629C47.6673 21.9629 47.3937 21.8783 47.1832 21.709C46.9726 21.5397 46.8253 21.3281 46.7411 21.0742C46.6569 20.7357 46.699 20.4183 46.8674 20.1221C47.0358 19.8258 47.2884 19.5931 47.6252 19.4238C47.7936 19.4238 47.9831 19.3815 48.1936 19.2969C48.4041 19.2122 48.5936 19.1699 48.762 19.1699C49.0988 19.0853 49.4356 19.1276 49.7724 19.2969C50.1092 19.4661 50.3197 19.7201 50.4039 20.0586C50.4882 20.3971 50.4461 20.7145 50.2776 21.0107C50.1092 21.307 49.8566 21.4974 49.5198 21.582C49.2672 21.6667 49.0567 21.7301 48.8883 21.7725C48.7199 21.8148 48.5094 21.8783 48.2568 21.9629C48.2568 21.9629 48.2146 21.9629 48.1304 21.9629C48.0462 21.9629 48.0041 21.9629 48.0041 21.9629ZM79.8332 21.9629C79.8332 21.9629 79.7911 21.9629 79.7069 21.9629C79.6227 21.9629 79.5385 21.9206 79.4543 21.8359C79.2859 21.8359 79.0964 21.7936 78.8859 21.709C78.6754 21.6244 78.4859 21.582 78.3175 21.582C77.9807 21.4974 77.7281 21.2858 77.5597 20.9473C77.3913 20.6087 77.3492 20.2702 77.4334 19.9316C77.5176 19.5931 77.7071 19.3392 78.0018 19.1699C78.2965 19.0006 78.6122 18.9583 78.9491 19.043C79.2017 19.1276 79.4332 19.1911 79.6437 19.2334C79.8543 19.2757 80.0437 19.3392 80.2121 19.4238C80.5489 19.5085 80.8015 19.6989 80.97 19.9951C81.1384 20.2913 81.1805 20.6087 81.0963 20.9473C81.0121 21.2858 80.8647 21.5397 80.6542 21.709C80.4437 21.8783 80.17 21.9629 79.8332 21.9629ZM106.357 39.8633C106.189 39.8633 106.021 39.8421 105.852 39.7998C105.684 39.7575 105.515 39.6517 105.347 39.4824C105.094 39.1439 104.821 38.8053 104.526 38.4668C104.231 38.1283 103.958 37.7897 103.705 37.4512C103.452 37.1126 103.326 36.7741 103.326 36.4355C103.326 36.097 103.452 35.8008 103.705 35.5469C104.042 35.3776 104.379 35.293 104.715 35.293C105.052 35.293 105.347 35.4199 105.6 35.6738C105.852 36.0124 106.126 36.3721 106.421 36.7529C106.715 37.1338 107.031 37.4935 107.368 37.832C107.536 38.0859 107.62 38.3822 107.62 38.7207C107.62 39.0592 107.452 39.3555 107.115 39.6094C107.031 39.694 106.926 39.7575 106.799 39.7998C106.673 39.8421 106.526 39.8633 106.357 39.8633ZM100.8 34.0234C100.632 34.0234 100.484 34.0023 100.358 33.96C100.232 33.9176 100.084 33.8119 99.9158 33.6426C99.6632 33.3887 99.3685 33.1136 99.0317 32.8174C98.6949 32.5212 98.3581 32.2038 98.0212 31.8652C97.6844 31.696 97.516 31.4421 97.516 31.1035C97.516 30.765 97.6002 30.4264 97.7686 30.0879C98.0212 29.834 98.3159 29.707 98.6528 29.707C98.9896 29.707 99.2843 29.7917 99.5369 29.9609C99.9579 30.2995 100.337 30.6169 100.674 30.9131C101.01 31.2093 101.347 31.5267 101.684 31.8652C101.937 32.0345 102.063 32.3096 102.063 32.6904C102.063 33.0713 101.937 33.3887 101.684 33.6426C101.6 33.7272 101.474 33.8119 101.305 33.8965C101.137 33.9811 100.968 34.0234 100.8 34.0234ZM94.4847 28.9453C94.3163 28.9453 94.19 28.9242 94.1058 28.8818C94.0216 28.8395 93.8952 28.776 93.7268 28.6914C93.39 28.4375 93.0322 28.2048 92.6532 27.9932C92.2743 27.7816 91.9165 27.5488 91.5796 27.2949C91.2428 27.1256 91.0323 26.8717 90.9481 26.5332C90.8639 26.1947 90.906 25.8561 91.0744 25.5176C91.2428 25.2637 91.4954 25.0944 91.8323 25.0098C92.1691 24.9251 92.5059 24.9674 92.8427 25.1367C93.2637 25.3906 93.6637 25.6445 94.0426 25.8984C94.4215 26.1523 94.7794 26.4062 95.1162 26.6602C95.453 26.8294 95.6425 27.0833 95.6846 27.4219C95.7267 27.7604 95.6635 28.0566 95.4951 28.3105C95.4109 28.5645 95.2636 28.7337 95.0531 28.8184C94.8425 28.903 94.6531 28.9453 94.4847 28.9453ZM87.4116 24.8828C87.3273 24.8828 87.2431 24.8617 87.1589 24.8193C87.0747 24.777 86.9905 24.7559 86.9063 24.7559C86.4853 24.5866 86.0853 24.4173 85.7064 24.248C85.3275 24.0788 84.9275 23.8672 84.5065 23.6133C84.1697 23.5286 83.9381 23.3171 83.8118 22.9785C83.6855 22.64 83.6645 22.3014 83.7487 21.9629C83.9171 21.709 84.1697 21.5186 84.5065 21.3916C84.8433 21.2646 85.138 21.2435 85.3907 21.3281C85.8117 21.4974 86.2327 21.6878 86.6537 21.8994C87.0747 22.111 87.4958 22.3014 87.9168 22.4707C88.2536 22.64 88.4852 22.8939 88.6115 23.2324C88.7378 23.571 88.7167 23.8672 88.5483 24.1211C88.4641 24.375 88.3167 24.5654 88.1062 24.6924C87.8957 24.8193 87.6642 24.8828 87.4116 24.8828ZM110.273 45.3223C110.02 45.3223 109.81 45.2799 109.641 45.1953C109.473 45.1107 109.305 44.9837 109.136 44.8145C109.052 44.6452 108.947 44.4548 108.82 44.2432C108.694 44.0316 108.589 43.8411 108.505 43.6719C108.336 43.418 108.273 43.1217 108.315 42.7832C108.357 42.4447 108.547 42.1908 108.884 42.0215C109.136 41.7676 109.431 41.6829 109.768 41.7676C110.104 41.8522 110.399 42.0215 110.652 42.2754C110.736 42.4447 110.841 42.6351 110.968 42.8467C111.094 43.0583 111.199 43.2487 111.283 43.418C111.452 43.6719 111.515 43.9893 111.473 44.3701C111.431 44.751 111.241 45.026 110.904 45.1953C110.82 45.2799 110.715 45.3223 110.589 45.3223C110.462 45.3223 110.357 45.3223 110.273 45.3223ZM63.9187 35.5469C59.7085 35.5469 56.0456 34.0869 52.9301 31.167C49.8145 28.2471 48.1304 24.6712 47.8778 20.4395C47.8778 20.2702 47.8778 20.1009 47.8778 19.9316C47.8778 19.7624 47.8778 19.5931 47.8778 19.4238C47.8778 15.0228 49.4356 11.2354 52.5511 8.06152C55.6667 4.8877 59.4559 3.30078 63.9187 3.30078C65.5185 3.30078 67.0553 3.53353 68.5288 3.99902C70.0024 4.46452 71.3707 5.12045 72.6338 5.9668C72.9706 6.13607 73.1811 6.38998 73.2653 6.72852C73.3495 7.06705 73.2653 7.36328 73.0127 7.61719C72.8443 7.95573 72.5917 8.16732 72.2549 8.25195C71.918 8.33659 71.5812 8.25195 71.2444 7.99805C70.234 7.32096 69.0972 6.79199 67.8342 6.41113C66.5711 6.03027 65.2659 5.83984 63.9187 5.83984C60.2137 5.83984 57.035 7.17285 54.3826 9.83887C51.7302 12.5049 50.4039 15.6999 50.4039 19.4238C50.4039 19.5931 50.4039 19.7412 50.4039 19.8682C50.4039 19.9951 50.4039 20.1009 50.4039 20.1855C50.6566 23.8249 52.088 26.8717 54.6983 29.3262C57.3087 31.7806 60.3821 33.0078 63.9187 33.0078C67.4552 33.0078 70.5287 31.7806 73.139 29.3262C75.7493 26.8717 77.1808 23.8249 77.4334 20.1855C77.4334 20.1009 77.4334 19.9951 77.4334 19.8682C77.4334 19.7412 77.4334 19.5931 77.4334 19.4238C77.4334 18.7467 77.3702 18.0485 77.2439 17.3291C77.1176 16.6097 76.9703 15.9115 76.8019 15.2344C76.7177 14.8958 76.7387 14.5785 76.865 14.2822C76.9913 13.986 77.2229 13.7533 77.5597 13.584C77.8965 13.4994 78.2123 13.5417 78.507 13.7109C78.8017 13.8802 79.0333 14.1341 79.2017 14.4727C79.4543 15.2344 79.6437 16.0384 79.7701 16.8848C79.8964 17.7311 79.9595 18.5775 79.9595 19.4238C79.9595 19.5931 79.9595 19.7624 79.9595 19.9316C79.9595 20.1009 79.9595 20.2279 79.9595 20.3125C79.7069 24.6289 78.0228 28.2471 74.9073 31.167C71.7917 34.0869 68.1289 35.5469 63.9187 35.5469ZM62.2767 25.0098C62.1083 25.0098 61.9399 24.9886 61.7715 24.9463C61.6031 24.904 61.4768 24.7982 61.3926 24.6289L54.8247 18.1543C54.572 17.9004 54.4457 17.583 54.4457 17.2021C54.4457 16.8213 54.572 16.5039 54.8247 16.25C55.0773 15.9961 55.372 15.8691 55.7088 15.8691C56.0456 15.8691 56.3403 15.9961 56.5929 16.25L62.2767 21.9629L80.4647 3.68164C80.7173 3.42773 81.0121 3.30078 81.3489 3.30078C81.6857 3.30078 81.9804 3.42773 82.233 3.68164C82.4856 3.93555 82.6119 4.23177 82.6119 4.57031C82.6119 4.90885 82.4856 5.20508 82.233 5.45898L63.1608 24.6289C62.9924 24.7135 62.8451 24.7982 62.7188 24.8828C62.5925 24.9674 62.4451 25.0098 62.2767 25.0098Z" fill="#DC052D"/>
</svg>
