<svg width="130" height="130" viewBox="0 0 130 130" fill="none" xmlns="http://www.w3.org/2000/svg">
<path d="M78.8229 59.4141C78.4861 59.4141 78.1914 59.2871 77.9387 59.0332C77.6861 58.7793 77.5598 58.4831 77.5598 58.1445V8.75977C77.5598 8.42123 77.6861 8.125 77.9387 7.87109C78.1914 7.61719 78.4861 7.49023 78.8229 7.49023C79.2439 7.49023 79.5597 7.61719 79.7702 7.87109C79.9807 8.125 80.0859 8.42123 80.0859 8.75977V58.1445C80.0859 58.4831 79.9807 58.7793 79.7702 59.0332C79.5597 59.2871 79.2439 59.4141 78.8229 59.4141ZM78.8229 120.605C78.4861 120.605 78.1914 120.479 77.9387 120.225C77.6861 119.971 77.5598 119.674 77.5598 119.336V78.8379C77.5598 78.4993 77.6861 78.2031 77.9387 77.9492C78.1914 77.6953 78.4861 77.5684 78.8229 77.5684C79.2439 77.5684 79.5597 77.6953 79.7702 77.9492C79.9807 78.2031 80.0859 78.4993 80.0859 78.8379V119.336C80.0859 119.674 79.9807 119.971 79.7702 120.225C79.5597 120.479 79.2439 120.605 78.8229 120.605ZM56.7194 42.6562C53.3512 42.6562 50.4462 41.4502 48.0043 39.0381C45.5624 36.626 44.3414 33.6849 44.3414 30.2148C44.3414 26.8294 45.5624 23.9095 48.0043 21.4551C50.4462 19.0006 53.3512 17.7734 56.7194 17.7734C60.1717 17.7734 63.0978 19.0006 65.4976 21.4551C67.8974 23.9095 69.0973 26.8294 69.0973 30.2148C69.0973 33.6849 67.8974 36.626 65.4976 39.0381C63.0978 41.4502 60.1717 42.6562 56.7194 42.6562ZM56.7194 20.3125C54.0248 20.3125 51.7092 21.2858 49.7725 23.2324C47.8359 25.179 46.8675 27.5065 46.8675 30.2148C46.8675 32.9232 47.8359 35.2506 49.7725 37.1973C51.7092 39.1439 54.0248 40.1172 56.7194 40.1172C59.4981 40.1172 61.8347 39.1439 63.7293 37.1973C65.6239 35.2506 66.5712 32.9232 66.5712 30.2148C66.5712 27.5065 65.6239 25.179 63.7293 23.2324C61.8347 21.2858 59.4981 20.3125 56.7194 20.3125ZM70.3604 120.605H61.519C61.1822 120.605 60.8875 120.5 60.6348 120.288C60.3822 120.076 60.2559 119.801 60.2559 119.463L56.7194 91.9141L53.3091 119.463C53.3091 119.801 53.1828 120.076 52.9302 120.288C52.6776 120.5 52.3829 120.605 52.046 120.605H43.2046C43.0362 120.605 42.8678 120.563 42.6994 120.479C42.531 120.394 42.3626 120.309 42.1942 120.225C42.11 120.055 42.0468 119.886 42.0047 119.717C41.9626 119.548 41.9416 119.378 41.9416 119.209L44.0888 79.0918L42.6994 62.4609L40.4259 76.4258C40.2575 77.6107 39.7312 78.5628 38.8471 79.2822C37.963 80.0016 36.9736 80.3613 35.8789 80.3613C34.6158 80.3613 33.5212 79.8958 32.595 78.9648C31.6687 78.0339 31.2056 76.9336 31.2056 75.6641C31.2056 75.5794 31.2056 75.4948 31.2056 75.4102C31.2056 75.3255 31.2056 75.2409 31.2056 75.1562L34.7422 47.4805C34.7422 47.4805 34.7422 47.4593 34.7422 47.417C34.7422 47.3747 34.7422 47.3535 34.7422 47.3535C34.9106 45.8301 35.6052 44.5394 36.8262 43.4814C38.0472 42.4235 39.4155 41.8945 40.9311 41.8945H52.046H61.519H72.6339C73.3075 41.8945 74.0022 42.0215 74.7179 42.2754C75.4337 42.5293 76.0863 42.9525 76.6757 43.5449C77.2651 44.0527 77.7493 44.6452 78.1282 45.3223C78.5071 45.9994 78.7387 46.6764 78.8229 47.3535L82.2331 75.0293C82.4015 76.1296 82.2121 77.1452 81.6648 78.0762C81.1174 79.0072 80.3385 79.6419 79.3281 79.9805C79.0755 80.0651 78.8018 80.1497 78.5071 80.2344C78.2124 80.319 77.9387 80.3613 77.6861 80.3613C77.0967 80.3613 76.5494 80.2555 76.0442 80.0439C75.5389 79.8324 75.0758 79.5573 74.6548 79.2188C74.2338 78.8802 73.8969 78.457 73.6443 77.9492C73.3917 77.4414 73.2233 76.9336 73.1391 76.4258L70.7393 62.4609L69.3499 79.0918L71.6234 119.209C71.6234 119.378 71.6024 119.548 71.5603 119.717C71.5182 119.886 71.4129 120.013 71.2445 120.098C71.1603 120.267 71.034 120.394 70.8656 120.479C70.6972 120.563 70.5288 120.605 70.3604 120.605ZM62.5294 118.066H68.971L66.8238 79.0918C66.8238 79.0918 66.8238 79.0706 66.8238 79.0283C66.8238 78.986 66.8238 78.9648 66.8238 78.9648L69.0973 52.1777C69.0973 51.8392 69.2236 51.5641 69.4762 51.3525C69.7289 51.141 70.0236 51.0352 70.3604 51.0352C70.613 50.9505 70.8656 51.014 71.1182 51.2256C71.3708 51.4372 71.5392 51.7122 71.6234 52.0508L75.5389 76.0449C75.6231 76.2988 75.7284 76.5316 75.8547 76.7432C75.981 76.9548 76.1284 77.1452 76.2968 77.3145C76.4652 77.4837 76.6757 77.6107 76.9283 77.6953C77.1809 77.7799 77.4335 77.8223 77.6861 77.8223C77.7703 77.8223 77.8756 77.8011 78.0019 77.7588C78.1282 77.7165 78.2756 77.6953 78.444 77.6953C78.865 77.526 79.2018 77.2298 79.4544 76.8066C79.707 76.3835 79.7912 75.918 79.707 75.4102L76.2968 47.7344C76.2968 47.3112 76.1705 46.888 75.9178 46.4648C75.6652 46.0417 75.3705 45.7031 75.0337 45.4492C74.6969 45.1107 74.318 44.8568 73.8969 44.6875C73.4759 44.5182 73.0549 44.4336 72.6339 44.4336L61.519 44.5605H52.046L40.9311 44.4336C40.0049 44.4336 39.1839 44.751 38.4682 45.3857C37.7524 46.0205 37.3525 46.8034 37.2683 47.7344L33.7317 75.4102C33.7317 75.4948 33.7317 75.5583 33.7317 75.6006C33.7317 75.6429 33.7317 75.6641 33.7317 75.6641C33.7317 76.2565 33.9422 76.7643 34.3632 77.1875C34.7843 77.6107 35.2895 77.8223 35.8789 77.8223C36.3841 77.8223 36.8262 77.653 37.2051 77.3145C37.584 76.9759 37.8156 76.5527 37.8998 76.0449L41.9416 52.0508C41.9416 51.7122 42.0679 51.4372 42.3205 51.2256C42.5731 51.014 42.8678 50.9505 43.2046 51.0352C43.5415 51.0352 43.8151 51.141 44.0256 51.3525C44.2361 51.5641 44.3835 51.8392 44.4677 52.1777L46.6149 78.9648C46.6149 78.9648 46.6149 78.986 46.6149 79.0283C46.6149 79.0706 46.6149 79.0918 46.6149 79.0918L44.4677 118.066H50.9093L55.4563 81.6309C55.5405 81.2923 55.7089 81.0173 55.9615 80.8057C56.2141 80.5941 56.4668 80.4883 56.7194 80.4883C57.0562 80.4883 57.3509 80.5941 57.6035 80.8057C57.8561 81.0173 57.9824 81.2923 57.9824 81.6309L62.5294 118.066ZM26.2797 98.3887C24.343 98.3887 22.4273 97.9232 20.5327 96.9922C18.6382 96.0612 16.7646 94.707 14.9121 92.9297C14.0701 91.9987 13.5017 91.0042 13.207 89.9463C12.9123 88.8883 12.6807 87.8516 12.5123 86.8359C12.2597 85.3125 11.9229 84.1699 11.5019 83.4082C11.0809 82.6465 10.0704 82.2656 8.47055 82.2656C5.10239 82.2656 2.84994 81.2077 1.71318 79.0918C0.576433 76.9759 0.00805664 75.1986 0.00805664 73.7598C0.00805664 73.5905 0.0501586 73.4212 0.134362 73.252C0.218566 73.0827 0.30277 72.9134 0.386974 72.7441C0.555382 72.6595 0.72379 72.596 0.892197 72.5537C1.06061 72.5114 1.22901 72.4902 1.39742 72.4902C4.93398 72.7441 8.4916 72.1094 12.0703 70.5859C15.6489 69.0625 19.2065 66.6081 22.7431 63.2227C25.6902 60.3451 28.1953 57.3617 30.2583 54.2725C32.3213 51.1833 33.858 48.75 34.8685 46.9727C35.0369 46.7188 35.2474 46.5283 35.5 46.4014C35.7526 46.2744 36.0473 46.2533 36.3841 46.3379C36.6367 46.4225 36.8472 46.613 37.0157 46.9092C37.1841 47.2054 37.2262 47.4805 37.142 47.7344L33.7317 75.4102C33.7317 75.4948 33.7317 75.5583 33.7317 75.6006C33.7317 75.6429 33.7317 75.6641 33.7317 75.6641C33.7317 76.2565 33.9422 76.7643 34.3632 77.1875C34.7843 77.6107 35.2895 77.8223 35.8789 77.8223C36.3841 77.8223 36.8262 77.653 37.2051 77.3145C37.584 76.9759 37.8156 76.5527 37.8998 76.0449L41.9416 52.0508C41.9416 51.7122 42.0679 51.4372 42.3205 51.2256C42.5731 51.014 42.8678 50.9082 43.2046 50.9082C43.5415 50.9928 43.8151 51.141 44.0256 51.3525C44.2361 51.5641 44.3414 51.8392 44.3414 52.1777L46.6149 78.9648C46.6149 78.9648 46.6149 78.986 46.6149 79.0283C46.6149 79.0706 46.6149 79.0918 46.6149 79.0918L45.6045 97.1191C45.6045 97.373 45.5413 97.6058 45.415 97.8174C45.2887 98.029 45.0992 98.1771 44.8466 98.2617C44.6782 98.3464 44.4677 98.3675 44.2151 98.3252C43.9625 98.2829 43.752 98.1771 43.5836 98.0078C42.9941 97.5 41.71 96.8229 39.7312 95.9766C37.7524 95.1302 35.3737 95.3841 32.595 96.7383C31.5845 97.2461 30.532 97.6481 29.4373 97.9443C28.3427 98.2406 27.2901 98.3887 26.2797 98.3887ZM2.66048 75.0293C2.82889 75.9603 3.31306 76.9759 4.113 78.0762C4.91293 79.1764 6.36545 79.7266 8.47055 79.7266C11.2493 79.7266 12.9755 80.4671 13.6491 81.9482C14.3227 83.4294 14.7858 84.9316 15.0384 86.4551C15.1227 87.3014 15.27 88.1478 15.4805 88.9941C15.691 89.8405 16.091 90.5176 16.6804 91.0254C19.1223 93.5645 21.5642 95.1091 24.0062 95.6592C26.4481 96.2093 28.9742 95.8073 31.5845 94.4531C34.0264 93.1836 36.2789 92.7393 38.3419 93.1201C40.4049 93.501 42.0258 94.0299 43.2046 94.707L44.0888 79.0918L42.6994 62.4609L40.4259 76.4258C40.2575 77.6107 39.7312 78.5628 38.8471 79.2822C37.963 80.0016 36.9736 80.3613 35.8789 80.3613C34.6158 80.3613 33.5212 79.8958 32.595 78.9648C31.6687 78.0339 31.2056 76.9336 31.2056 75.6641C31.2056 75.5794 31.2056 75.4948 31.2056 75.4102C31.2056 75.3255 31.2056 75.2409 31.2056 75.1562L33.9843 53.3203C32.8055 55.0977 31.4161 57.0231 29.8162 59.0967C28.2164 61.1702 26.406 63.138 24.3851 65C20.9327 68.4701 17.3751 71.0303 13.7122 72.6807C10.0494 74.3311 6.36545 75.1139 2.66048 75.0293ZM15.7963 82.2656C15.4595 82.2656 15.1648 82.1598 14.9121 81.9482C14.6595 81.7367 14.5332 81.4193 14.5332 80.9961C14.5332 80.319 14.8279 79.79 15.4174 79.4092C16.0068 79.0283 16.7225 78.6686 17.5646 78.3301C18.9118 77.7376 20.4275 76.8701 22.1116 75.7275C23.7957 74.585 24.8903 72.6172 25.3955 69.8242C25.4797 69.4857 25.6692 69.2318 25.9639 69.0625C26.2586 68.8932 26.5744 68.8086 26.9112 68.8086C27.248 68.8932 27.5217 69.0837 27.7322 69.3799C27.9427 69.6761 28.0058 69.9935 27.9216 70.332C27.248 73.8021 25.8586 76.2354 23.7535 77.6318C21.6485 79.0283 19.8802 80.0228 18.4487 80.6152C18.1961 80.7845 17.9224 80.9326 17.6277 81.0596C17.333 81.1865 17.1014 81.2923 16.933 81.377C16.933 81.6309 16.8067 81.8424 16.5541 82.0117C16.3015 82.181 16.0489 82.2656 15.7963 82.2656ZM93.9796 36.0547H78.9492C78.5282 36.0547 78.2124 35.9277 78.0019 35.6738C77.7914 35.4199 77.6861 35.1237 77.6861 34.7852V13.0762C77.6861 12.7376 77.7914 12.4414 78.0019 12.1875C78.2124 11.9336 78.5282 11.8066 78.9492 11.8066H102.568C102.989 11.8066 103.305 11.9336 103.516 12.1875C103.726 12.4414 103.831 12.7376 103.831 13.0762V21.8359C103.831 22.1745 103.726 22.4707 103.516 22.7246C103.305 22.9785 102.989 23.1055 102.568 23.1055H95.2426V34.7852C95.2426 35.1237 95.1163 35.4199 94.8637 35.6738C94.6111 35.9277 94.3164 36.0547 93.9796 36.0547ZM80.0859 33.5156H92.7165V21.8359C92.7165 21.4128 92.8428 21.0954 93.0954 20.8838C93.348 20.6722 93.6428 20.5664 93.9796 20.5664H101.305V14.3457H80.0859V33.5156ZM126.314 46.8457H93.9796C93.6428 46.8457 93.348 46.7399 93.0954 46.5283C92.8428 46.3167 92.7165 45.9994 92.7165 45.5762V21.8359C92.7165 21.4128 92.8428 21.0954 93.0954 20.8838C93.348 20.6722 93.6428 20.5664 93.9796 20.5664H126.314C126.566 20.5664 126.798 20.6299 127.009 20.7568C127.219 20.8838 127.366 21.0742 127.451 21.3281C127.535 21.582 127.556 21.8359 127.514 22.0898C127.472 22.3438 127.366 22.5553 127.198 22.7246L114.567 33.7695L127.198 44.6875C127.366 44.8568 127.472 45.0684 127.514 45.3223C127.556 45.5762 127.535 45.8301 127.451 46.084C127.366 46.3379 127.219 46.5283 127.009 46.6553C126.798 46.7822 126.566 46.8457 126.314 46.8457ZM95.2426 44.3066H122.904L111.789 34.6582C111.62 34.5736 111.494 34.4466 111.41 34.2773C111.326 34.1081 111.283 33.8965 111.283 33.6426C111.283 33.4733 111.326 33.304 111.41 33.1348C111.494 32.9655 111.62 32.8385 111.789 32.7539L122.904 22.9785H95.2426V44.3066ZM102.568 23.1055H93.9796C93.727 23.1055 93.4954 23.0208 93.2849 22.8516C93.0744 22.6823 92.927 22.4707 92.8428 22.2168C92.7586 22.0475 92.7376 21.8359 92.7797 21.582C92.8218 21.3281 92.927 21.1165 93.0954 20.9473L101.684 12.1875C101.853 12.0182 102.063 11.9124 102.316 11.8701C102.568 11.8278 102.821 11.849 103.074 11.9336C103.326 12.0182 103.516 12.1663 103.642 12.3779C103.768 12.5895 103.831 12.8223 103.831 13.0762V21.8359C103.831 22.1745 103.705 22.4707 103.453 22.7246C103.2 22.9785 102.905 23.1055 102.568 23.1055ZM97.0109 20.5664H101.305V16.123L97.0109 20.5664ZM85.3908 129.238H27.1638C26.827 129.238 26.5323 129.111 26.2797 128.857C26.0271 128.604 25.9007 128.307 25.9007 127.969V119.336C25.9007 118.997 26.0271 118.701 26.2797 118.447C26.5323 118.193 26.827 118.066 27.1638 118.066H85.3908C85.7276 118.066 86.0223 118.193 86.2749 118.447C86.5275 118.701 86.6538 118.997 86.6538 119.336V127.969C86.6538 128.307 86.5275 128.604 86.2749 128.857C86.0223 129.111 85.7276 129.238 85.3908 129.238ZM28.4269 126.699H84.1277V120.605H28.4269V126.699ZM10.3651 70.5859C10.1967 70.5859 10.0283 70.5436 9.85991 70.459C9.6915 70.3743 9.52309 70.2474 9.35469 70.0781C9.10207 69.7396 8.84946 69.401 8.59685 69.0625C8.34424 68.724 8.09163 68.3431 7.83902 67.9199C7.5864 67.666 7.5022 67.3698 7.5864 67.0312C7.67061 66.6927 7.83902 66.3965 8.09163 66.1426C8.34424 65.9733 8.66 65.9098 9.03892 65.9521C9.41784 65.9945 9.6915 66.1849 9.85991 66.5234C10.1125 66.862 10.3651 67.1794 10.6177 67.4756C10.8704 67.7718 11.123 68.0892 11.3756 68.4277C11.6282 68.6816 11.7334 68.999 11.6913 69.3799C11.6492 69.7607 11.5019 70.0358 11.2493 70.2051C11.0809 70.3743 10.9335 70.4801 10.8072 70.5225C10.6809 70.5648 10.5335 70.5859 10.3651 70.5859ZM6.19704 64.2383C5.94443 64.2383 5.71287 64.1748 5.50236 64.0479C5.29185 63.9209 5.14449 63.7728 5.06029 63.6035C4.89188 63.1803 4.70242 62.7783 4.49191 62.3975C4.2814 62.0166 4.09194 61.6146 3.92354 61.1914C3.75513 60.8529 3.73408 60.5355 3.86038 60.2393C3.98669 59.943 4.21825 59.7103 4.55507 59.541C4.80768 59.3717 5.10239 59.3506 5.43921 59.4775C5.77602 59.6045 6.02863 59.8372 6.19704 60.1758C6.36545 60.5143 6.53386 60.874 6.70226 61.2549C6.87067 61.6357 7.03908 61.9954 7.20749 62.334C7.3759 62.6725 7.418 63.0111 7.33379 63.3496C7.24959 63.6881 7.03908 63.9421 6.70226 64.1113C6.61806 64.1113 6.53386 64.1325 6.44965 64.1748C6.36545 64.2171 6.28124 64.2383 6.19704 64.2383ZM3.1657 57.2559C2.91309 57.2559 2.68153 57.1712 2.47102 57.002C2.26051 56.8327 2.11315 56.6211 2.02895 56.3672C1.86054 55.944 1.71318 55.5208 1.58688 55.0977C1.46057 54.6745 1.35532 54.2513 1.27111 53.8281C1.18691 53.4896 1.22901 53.1722 1.39742 52.876C1.56583 52.5798 1.81844 52.3893 2.15526 52.3047C2.49207 52.2201 2.82889 52.2624 3.1657 52.4316C3.50252 52.6009 3.71303 52.8548 3.79723 53.1934C3.88143 53.5319 3.96564 53.9128 4.04984 54.3359C4.13405 54.7591 4.26035 55.14 4.42876 55.4785C4.51296 55.8171 4.47086 56.1556 4.30245 56.4941C4.13405 56.8327 3.92354 57.0443 3.67092 57.1289C3.58672 57.1289 3.50252 57.1501 3.41831 57.1924C3.33411 57.2347 3.24991 57.2559 3.1657 57.2559ZM1.52373 49.7656C1.27111 49.7656 1.0185 49.6598 0.765891 49.4482C0.51328 49.2367 0.344872 48.9616 0.260668 48.623C0.260668 48.1999 0.239617 47.7767 0.197515 47.3535C0.155413 46.9303 0.134362 46.5072 0.134362 46.084C0.0501586 45.7454 0.134362 45.4281 0.386974 45.1318C0.639586 44.8356 0.934299 44.6875 1.27111 44.6875C1.60793 44.6875 1.90264 44.7933 2.15526 45.0049C2.40787 45.2165 2.57627 45.5339 2.66048 45.957C2.66048 46.2956 2.68153 46.6764 2.72363 47.0996C2.76573 47.5228 2.78678 47.946 2.78678 48.3691C2.87099 48.7077 2.80784 49.0039 2.59733 49.2578C2.38682 49.5117 2.11315 49.681 1.77634 49.7656C1.69213 49.7656 1.65003 49.7656 1.65003 49.7656C1.65003 49.7656 1.60793 49.7656 1.52373 49.7656ZM1.39742 42.1484C1.31322 42.1484 1.27111 42.1484 1.27111 42.1484C0.934299 42.1484 0.639586 42.0215 0.386974 41.7676C0.134362 41.5137 0.0501586 41.2174 0.134362 40.8789C0.134362 40.4557 0.155413 40.0114 0.197515 39.5459C0.239617 39.0804 0.260668 38.6361 0.260668 38.2129C0.344872 37.8744 0.51328 37.5993 0.765891 37.3877C1.0185 37.1761 1.35532 37.0703 1.77634 37.0703C2.11315 37.1549 2.38682 37.3242 2.59733 37.5781C2.80784 37.832 2.87099 38.1706 2.78678 38.5938C2.78678 38.9323 2.76573 39.3131 2.72363 39.7363C2.68153 40.1595 2.66048 40.5827 2.66048 41.0059C2.57627 41.3444 2.42892 41.6195 2.21841 41.8311C2.0079 42.0426 1.73424 42.1484 1.39742 42.1484ZM2.53417 34.6582C2.44997 34.6582 2.38682 34.6582 2.34471 34.6582C2.30261 34.6582 2.23946 34.6582 2.15526 34.6582C1.81844 34.5736 1.56583 34.3831 1.39742 34.0869C1.22901 33.7907 1.18691 33.4733 1.27111 33.1348C1.35532 32.7116 1.46057 32.2884 1.58688 31.8652C1.71318 31.4421 1.86054 31.0189 2.02895 30.5957C2.11315 30.2572 2.30261 30.0033 2.59733 29.834C2.89204 29.6647 3.2078 29.6224 3.54462 29.707C3.88143 29.8763 4.13405 30.109 4.30245 30.4053C4.47086 30.7015 4.51296 31.0189 4.42876 31.3574C4.26035 31.7806 4.13405 32.1826 4.04984 32.5635C3.96564 32.9443 3.88143 33.3464 3.79723 33.7695C3.71303 34.0234 3.54462 34.235 3.29201 34.4043C3.0394 34.5736 2.78678 34.6582 2.53417 34.6582ZM5.06029 27.5488C4.97608 27.5488 4.87083 27.5277 4.74452 27.4854C4.61822 27.443 4.51296 27.4219 4.42876 27.4219C4.17615 27.2526 3.98669 26.9987 3.86038 26.6602C3.73408 26.3216 3.71303 25.9831 3.79723 25.6445C3.96564 25.306 4.1551 24.9463 4.36561 24.5654C4.57612 24.1846 4.80768 23.7826 5.06029 23.3594C5.2287 23.0208 5.46026 22.8092 5.75497 22.7246C6.04968 22.64 6.36545 22.6823 6.70226 22.8516C7.03908 23.0208 7.24959 23.2747 7.33379 23.6133C7.418 23.9518 7.3759 24.2904 7.20749 24.6289C7.03908 24.9674 6.87067 25.3271 6.70226 25.708C6.53386 26.0889 6.36545 26.4486 6.19704 26.7871C6.02863 27.041 5.83917 27.2314 5.62866 27.3584C5.41816 27.4854 5.2287 27.5488 5.06029 27.5488ZM75.6652 21.0742C75.4968 21.0742 75.3284 21.0319 75.16 20.9473C74.9916 20.8626 74.8232 20.6934 74.6548 20.4395C74.4022 20.1855 74.1496 19.8893 73.8969 19.5508C73.6443 19.2122 73.3917 18.8737 73.1391 18.5352C72.9707 18.2812 72.9076 17.985 72.9497 17.6465C72.9918 17.3079 73.1391 17.0117 73.3917 16.7578C73.6443 16.5039 73.9391 16.3981 74.2759 16.4404C74.6127 16.4827 74.9074 16.6732 75.16 17.0117C75.4126 17.3503 75.6652 17.6888 75.9178 18.0273C76.1705 18.3659 76.4231 18.7044 76.6757 19.043C76.9283 19.2969 77.0125 19.6143 76.9283 19.9951C76.8441 20.376 76.6757 20.651 76.4231 20.8203C76.3389 20.9049 76.2336 20.9684 76.1073 21.0107C75.981 21.0531 75.8336 21.0742 75.6652 21.0742ZM8.84946 20.9473C8.68106 20.9473 8.5337 20.9261 8.40739 20.8838C8.28109 20.8415 8.17583 20.778 8.09163 20.6934C7.75481 20.5241 7.56535 20.249 7.52325 19.8682C7.48115 19.4873 7.5443 19.1699 7.71271 18.916C7.96532 18.5775 8.23899 18.2389 8.5337 17.9004C8.82841 17.5619 9.10207 17.2233 9.35469 16.8848C9.52309 16.5462 9.79676 16.3558 10.1757 16.3135C10.5546 16.2712 10.8704 16.377 11.123 16.6309C11.3756 16.8848 11.5229 17.181 11.565 17.5195C11.6071 17.8581 11.5019 18.1543 11.2493 18.4082C10.9967 18.7467 10.7651 19.0641 10.5546 19.3604C10.3441 19.6566 10.1125 19.974 9.85991 20.3125C9.6915 20.4818 9.52309 20.6299 9.35469 20.7568C9.18628 20.8838 9.01787 20.9473 8.84946 20.9473ZM70.7393 15.2344C70.5709 15.2344 70.4235 15.2132 70.2972 15.1709C70.1709 15.1286 70.0236 15.0228 69.8552 14.8535C69.6026 14.5996 69.3289 14.3245 69.0342 14.0283C68.7395 13.7321 68.4237 13.457 68.0869 13.2031C67.8343 12.9492 67.6869 12.653 67.6448 12.3145C67.6027 11.9759 67.708 11.6797 67.9606 11.4258C68.2132 11.1719 68.5079 11.0238 68.8447 10.9814C69.1815 10.9391 69.4762 11.0449 69.7289 11.2988C70.0657 11.5527 70.4025 11.8278 70.7393 12.124C71.0761 12.4202 71.3708 12.7376 71.6234 13.0762C71.8761 13.3301 72.0024 13.6263 72.0024 13.9648C72.0024 14.3034 71.9182 14.5996 71.7498 14.8535C71.5813 14.9381 71.4129 15.0228 71.2445 15.1074C71.0761 15.1921 70.9077 15.2344 70.7393 15.2344ZM13.7754 15.1074C13.607 15.1074 13.4386 15.0863 13.2702 15.0439C13.1018 15.0016 12.9334 14.8958 12.7649 14.7266C12.5965 14.4727 12.5123 14.1764 12.5123 13.8379C12.5123 13.4994 12.6386 13.2031 12.8912 12.9492C13.1439 12.6107 13.4386 12.3145 13.7754 12.0605C14.1122 11.8066 14.449 11.5104 14.7858 11.1719C15.0384 11.0026 15.3332 10.918 15.67 10.918C16.0068 10.918 16.3015 11.0449 16.5541 11.2988C16.8067 11.5527 16.912 11.8701 16.8699 12.251C16.8278 12.6318 16.6804 12.9069 16.4278 13.0762C16.091 13.3301 15.7752 13.6051 15.4805 13.9014C15.1858 14.1976 14.9121 14.4727 14.6595 14.7266C14.4911 14.8958 14.3227 15.0016 14.1543 15.0439C13.9859 15.0863 13.8596 15.1074 13.7754 15.1074ZM64.9292 10.4102C64.7608 10.4102 64.6135 10.4102 64.4872 10.4102C64.3609 10.4102 64.2556 10.3678 64.1714 10.2832C63.8346 10.0293 63.4978 9.79655 63.161 9.58496C62.8241 9.37337 62.4873 9.18295 62.1505 9.01367C61.8137 8.8444 61.6032 8.56934 61.519 8.18848C61.4348 7.80762 61.4769 7.49023 61.6453 7.23633C61.8137 6.89779 62.0663 6.6862 62.4031 6.60156C62.7399 6.51693 63.0768 6.55924 63.4136 6.72852C63.7504 6.98242 64.1083 7.23633 64.4872 7.49023C64.8661 7.74414 65.224 7.95573 65.5608 8.125C65.8134 8.37891 65.9818 8.67513 66.066 9.01367C66.1502 9.35221 66.1081 9.64844 65.9397 9.90234C65.7713 10.0716 65.6029 10.1986 65.4345 10.2832C65.2661 10.3678 65.0976 10.4102 64.9292 10.4102ZM19.5855 10.4102C19.417 10.4102 19.2276 10.3678 19.0171 10.2832C18.8066 10.1986 18.6592 10.0293 18.575 9.77539C18.4066 9.52148 18.3434 9.22526 18.3856 8.88672C18.4277 8.54818 18.6171 8.29427 18.9539 8.125C19.2907 7.87109 19.6486 7.61719 20.0275 7.36328C20.4064 7.10938 20.7643 6.89779 21.1011 6.72852C21.4379 6.55924 21.7748 6.51693 22.1116 6.60156C22.4484 6.6862 22.701 6.85547 22.8694 7.10938C23.0378 7.44791 23.0799 7.78646 22.9957 8.125C22.9115 8.46354 22.701 8.71745 22.3642 8.88672C22.0274 9.05599 21.6906 9.24642 21.3537 9.45801C21.0169 9.66959 20.6801 9.90234 20.3433 10.1562C20.1749 10.2409 20.0486 10.3044 19.9644 10.3467C19.8802 10.389 19.7539 10.4102 19.5855 10.4102ZM58.235 6.85547C58.1508 6.85547 58.0666 6.83431 57.9824 6.79199C57.8982 6.74967 57.814 6.72852 57.7298 6.72852C57.393 6.55924 57.0351 6.41113 56.6562 6.28418C56.2773 6.15723 55.8773 6.00912 55.4563 5.83984C55.1195 5.75521 54.8879 5.54362 54.7616 5.20508C54.6353 4.86654 54.6143 4.52799 54.6985 4.18945C54.7827 3.85091 54.9932 3.61816 55.33 3.49121C55.6668 3.36426 56.0036 3.3431 56.3404 3.42773C56.7615 3.59701 57.1614 3.76627 57.5404 3.93555C57.9193 4.10482 58.3192 4.27409 58.7403 4.44336C59.0771 4.52799 59.3086 4.73959 59.4349 5.07812C59.5612 5.41666 59.5402 5.75521 59.3718 6.09375C59.2876 6.34766 59.1402 6.53809 58.9297 6.66504C58.7192 6.79199 58.4876 6.85547 58.235 6.85547ZM26.2797 6.72852C26.0271 6.72852 25.7955 6.66504 25.585 6.53809C25.3745 6.41113 25.2271 6.2207 25.1429 5.9668C24.9745 5.62826 24.9535 5.31087 25.0798 5.01465C25.2061 4.71842 25.4376 4.48568 25.7744 4.31641C26.1955 4.14713 26.6165 3.97787 27.0375 3.80859C27.4585 3.63932 27.8374 3.51237 28.1743 3.42773C28.5111 3.25846 28.8479 3.25846 29.1847 3.42773C29.5215 3.59701 29.732 3.85091 29.8162 4.18945C29.9846 4.52799 29.9846 4.84538 29.8162 5.1416C29.6478 5.43783 29.3952 5.67057 29.0584 5.83984C28.7216 5.92448 28.3427 6.05143 27.9216 6.2207C27.5006 6.38998 27.1217 6.55924 26.7849 6.72852C26.7007 6.72852 26.6165 6.72852 26.5323 6.72852C26.4481 6.72852 26.3639 6.72852 26.2797 6.72852ZM51.0356 4.57031C50.9514 4.57031 50.8882 4.57031 50.8461 4.57031C50.804 4.57031 50.783 4.52799 50.783 4.44336C50.362 4.35873 49.962 4.29525 49.5831 4.25293C49.2042 4.21061 48.8042 4.14713 48.3832 4.0625C48.0464 3.97787 47.7727 3.78744 47.5622 3.49121C47.3517 3.19498 47.2464 2.8776 47.2464 2.53906C47.3306 2.20052 47.5201 1.92545 47.8148 1.71387C48.1095 1.50228 48.4253 1.4388 48.7621 1.52344C49.1831 1.60807 49.6041 1.69271 50.0252 1.77734C50.4462 1.86198 50.8672 1.94662 51.2882 2.03125C51.625 2.11588 51.8776 2.30631 52.046 2.60254C52.2145 2.89877 52.2987 3.21615 52.2987 3.55469C52.2145 3.80859 52.046 4.04134 51.7934 4.25293C51.5408 4.46452 51.2882 4.57031 51.0356 4.57031ZM33.4791 4.44336C33.2265 4.44336 32.9739 4.35873 32.7213 4.18945C32.4686 4.02018 32.3002 3.80859 32.216 3.55469C32.1318 3.21615 32.195 2.89877 32.4055 2.60254C32.616 2.30631 32.8897 2.11588 33.2265 2.03125C33.6475 1.94662 34.0685 1.86198 34.4895 1.77734C34.9106 1.69271 35.3316 1.60807 35.7526 1.52344C36.0894 1.4388 36.4052 1.50228 36.6999 1.71387C36.9946 1.92545 37.142 2.20052 37.142 2.53906C37.2262 2.8776 37.163 3.19498 36.9525 3.49121C36.742 3.78744 36.4683 3.97787 36.1315 4.0625C35.7105 4.14713 35.3105 4.21061 34.9316 4.25293C34.5527 4.29525 34.1527 4.35873 33.7317 4.44336C33.7317 4.44336 33.7107 4.44336 33.6686 4.44336C33.6264 4.44336 33.5633 4.44336 33.4791 4.44336ZM43.5836 3.55469C43.4994 3.55469 43.4573 3.55469 43.4573 3.55469C43.0362 3.55469 42.6363 3.55469 42.2573 3.55469C41.8784 3.55469 41.4785 3.55469 41.0574 3.55469C40.7206 3.55469 40.4259 3.44889 40.1733 3.2373C39.9207 3.02572 39.7944 2.70834 39.7944 2.28516C39.7102 1.94662 39.7944 1.65039 40.047 1.39648C40.2996 1.14258 40.5943 1.01562 40.9311 1.01562C41.4364 1.01562 41.8995 1.01562 42.3205 1.01562C42.7415 1.01562 43.1625 1.01562 43.5836 1.01562C43.9204 1.01562 44.2151 1.14258 44.4677 1.39648C44.7203 1.65039 44.8466 1.98893 44.8466 2.41211C44.7624 2.66602 44.6151 2.91992 44.4045 3.17383C44.194 3.42773 43.9204 3.55469 43.5836 3.55469ZM99.0318 129.238H12.6386C12.3018 129.238 12.0071 129.111 11.7545 128.857C11.5019 128.604 11.3756 128.307 11.3756 127.969C11.3756 127.63 11.5019 127.334 11.7545 127.08C12.0071 126.826 12.3018 126.699 12.6386 126.699H99.0318C99.3686 126.699 99.6633 126.826 99.9159 127.08C100.169 127.334 100.295 127.63 100.295 127.969C100.295 128.307 100.169 128.604 99.9159 128.857C99.6633 129.111 99.3686 129.238 99.0318 129.238ZM110.399 129.238H105.852C105.516 129.238 105.221 129.111 104.968 128.857C104.716 128.604 104.589 128.307 104.589 127.969C104.589 127.63 104.716 127.334 104.968 127.08C105.221 126.826 105.516 126.699 105.852 126.699H110.399C110.736 126.699 111.031 126.826 111.283 127.08C111.536 127.334 111.662 127.63 111.662 127.969C111.662 128.307 111.536 128.604 111.283 128.857C111.031 129.111 110.736 129.238 110.399 129.238Z" fill="#DC052D"/>
</svg>
