<svg width="45" height="48" viewBox="0 0 45 48" fill="none" xmlns="http://www.w3.org/2000/svg">
<rect x="0.5" y="1.30591" width="44" height="45.6005" rx="22" stroke="white"/>
<path d="M25.2693 19.7238V17.1999C25.2693 16.821 25.2858 16.5276 25.3191 16.3203C25.3524 16.1126 25.428 15.9084 25.5454 15.7069C25.6626 15.5054 25.8524 15.3663 26.1145 15.2893C26.377 15.2121 26.7257 15.1736 27.1612 15.1736H29.5382V10.126H25.7381C23.5392 10.126 21.96 10.6799 21.0001 11.7876C20.0404 12.8956 19.5606 14.5277 19.5606 16.6844V19.7237H16.7143V24.7717H19.5604V39.4175H25.2693V24.7718H29.0692L29.5714 19.7238H25.2693Z" fill="white"/>
</svg>
