<svg width="60" height="61" viewBox="0 0 60 61" fill="none" xmlns="http://www.w3.org/2000/svg">
<rect x="0.000549316" y="0.665771" width="60" height="60" rx="30" fill="#DC052D"/>
<g clip-path="url(#clip0_60_241)">
<path d="M31.8755 24.4158H35.0005V20.6658H31.8755C31.2766 20.6658 30.7102 20.783 30.1763 21.0173C29.6425 21.2387 29.177 21.5479 28.7798 21.9451C28.3827 22.3422 28.0735 22.8077 27.8521 23.3416C27.6177 23.8754 27.5005 24.4418 27.5005 25.0408V26.9158H25.0005V30.6658H27.5005V40.6658H31.2505V30.6658H34.3755L35.0005 26.9158H31.2505V25.0408C31.2505 24.8715 31.3124 24.725 31.4361 24.6013C31.5598 24.4776 31.7063 24.4158 31.8755 24.4158Z" fill="white"/>
</g>
<defs>
<clipPath id="clip0_60_241">
<rect width="20" height="20" fill="white" transform="matrix(1 0 0 -1 20.0005 40.6658)"/>
</clipPath>
</defs>
</svg>
