<svg width="45" height="48" viewBox="0 0 45 48" fill="none" xmlns="http://www.w3.org/2000/svg">
<rect x="0.5" y="1.3938" width="44" height="45.6005" rx="22" stroke="white"/>
<path d="M28.6071 11.5454H16.3928C13.0342 11.5454 10.2857 14.3917 10.2857 17.8698V30.5191C10.2857 33.9962 13.0342 36.8434 16.3928 36.8434H28.6071C31.9658 36.8434 34.7143 33.9962 34.7143 30.5191V17.8698C34.7143 14.3917 31.9658 11.5454 28.6071 11.5454ZM32.6785 30.5191C32.6785 32.8433 30.8528 34.7352 28.6071 34.7352H16.3928C14.1482 34.7352 12.3215 32.8433 12.3215 30.5191V17.8698C12.3215 15.5449 14.1482 13.6536 16.3928 13.6536H28.6071C30.8528 13.6536 32.6785 15.5449 32.6785 17.8698V30.5191Z" fill="white"/>
<path d="M29.1169 18.9236C29.9602 18.9236 30.6437 18.2158 30.6437 17.3426C30.6437 16.4694 29.9602 15.7615 29.1169 15.7615C28.2737 15.7615 27.5901 16.4694 27.5901 17.3426C27.5901 18.2158 28.2737 18.9236 29.1169 18.9236Z" fill="white"/>
<path d="M22.4999 17.8696C19.1263 17.8696 16.3928 20.7007 16.3928 24.194C16.3928 27.686 19.1263 30.5189 22.4999 30.5189C25.8725 30.5189 28.607 27.686 28.607 24.194C28.607 20.7007 25.8725 17.8696 22.4999 17.8696ZM22.4999 28.4107C20.2515 28.4107 18.4286 26.5229 18.4286 24.194C18.4286 21.865 20.2515 19.9778 22.4999 19.9778C24.7483 19.9778 26.5712 21.865 26.5712 24.194C26.5712 26.5229 24.7483 28.4107 22.4999 28.4107Z" fill="white"/>
</svg>
