<svg width="60" height="61" viewBox="0 0 60 61" fill="none" xmlns="http://www.w3.org/2000/svg">
<rect x="0.000549316" y="0.665771" width="60" height="60" rx="30" fill="#DC052D"/>
<g clip-path="url(#clip0_60_235)">
<path d="M30.0591 22.4626C31.4133 22.4626 32.289 22.4626 32.6861 22.4626C33.0832 22.4626 33.5422 22.4626 34.063 22.4626C34.5839 22.4626 34.9843 22.5115 35.2642 22.6091C35.5442 22.7068 35.7492 22.7882 35.8795 22.8533C36.1269 22.9835 36.3482 23.0974 36.5435 23.1951C36.7388 23.2927 36.9016 23.4392 37.0318 23.6345C37.2271 23.8298 37.3736 24.0089 37.4713 24.1716C37.5689 24.3344 37.6828 24.5395 37.813 24.7869C37.8782 24.9822 37.9433 25.2198 38.0084 25.4998C38.0735 25.7797 38.1386 26.1475 38.2037 26.6033C38.2037 27.1241 38.2037 27.5994 38.2037 28.0291C38.2037 28.4587 38.2037 29.3181 38.2037 30.6072C38.2037 31.8962 38.2037 32.7556 38.2037 33.1853C38.2037 33.615 38.2037 34.0837 38.2037 34.5916C38.2037 35.1124 38.1548 35.5128 38.0572 35.7927C37.9595 36.0727 37.8782 36.2778 37.813 36.408C37.7479 36.6684 37.6503 36.88 37.5201 37.0427C37.3899 37.2055 37.2271 37.378 37.0318 37.5603C36.8365 37.7556 36.6574 37.9021 36.4947 37.9998C36.3319 38.0974 36.1269 38.2113 35.8795 38.3416C35.6841 38.4067 35.4465 38.4718 35.1666 38.5369C34.8866 38.602 34.5188 38.6671 34.063 38.7322C33.5422 38.7322 33.067 38.7322 32.6373 38.7322C32.2076 38.7322 31.3482 38.7322 30.0591 38.7322C28.7701 38.7322 27.9107 38.7322 27.481 38.7322C27.0513 38.7322 26.5826 38.7322 26.0748 38.7322C25.5539 38.7322 25.1535 38.6833 24.8736 38.5857C24.5936 38.488 24.3886 38.4067 24.2584 38.3416C23.9979 38.2764 23.7864 38.1788 23.6236 38.0486C23.4608 37.9184 23.2883 37.7556 23.106 37.5603C22.8456 37.4952 22.6601 37.3715 22.5494 37.1892C22.4387 37.0069 22.3183 36.7921 22.188 36.5447C22.1229 36.3494 22.0578 36.1117 21.9927 35.8318C21.9276 35.5518 21.8625 35.184 21.7974 34.7283C21.7974 34.2074 21.7974 33.7322 21.7974 33.3025C21.7974 32.8728 21.7974 32.0134 21.7974 30.7244C21.7974 29.4353 21.7974 28.5759 21.7974 28.1462C21.7974 27.7166 21.7974 27.2478 21.7974 26.74C21.7974 26.2192 21.8463 25.8188 21.9439 25.5388C22.0416 25.2589 22.1229 25.0538 22.188 24.9236C22.3183 24.5981 22.4322 24.3507 22.5298 24.1814C22.6275 24.0121 22.774 23.8298 22.9693 23.6345C23.1646 23.4392 23.3436 23.2927 23.5064 23.1951C23.6692 23.0974 23.8742 22.9835 24.1216 22.8533C24.317 22.7882 24.5546 22.7231 24.8345 22.658C25.1145 22.5929 25.4823 22.5278 25.938 22.4626C26.4589 22.4626 26.9374 22.4626 27.3736 22.4626C27.8098 22.4626 28.705 22.4626 30.0591 22.4626ZM30.0591 20.6658C28.705 20.6658 27.8098 20.6658 27.3736 20.6658C26.9374 20.6658 26.4589 20.6658 25.938 20.6658C25.4172 20.6658 24.9582 20.7211 24.5611 20.8318C24.164 20.9425 23.8026 21.0564 23.4771 21.1736C23.1646 21.3038 22.8521 21.4666 22.5396 21.6619C22.2271 21.8572 21.9407 22.085 21.6802 22.3455C21.4198 22.6059 21.192 22.8923 20.9966 23.2048C20.8013 23.5173 20.6386 23.8298 20.5084 24.1423C20.3912 24.4679 20.2935 24.8129 20.2154 25.1775C20.1373 25.5421 20.0657 26.0173 20.0005 26.6033C20.0005 27.1241 20.0005 27.6026 20.0005 28.0388C20.0005 28.475 20.0005 29.3702 20.0005 30.7244C20.0005 32.0785 20.0005 32.977 20.0005 33.4197C20.0005 33.8624 20.0005 34.3442 20.0005 34.865C20.0005 35.3728 20.0559 35.8253 20.1666 36.2224C20.2772 36.6195 20.3912 36.9809 20.5084 37.3064C20.6386 37.6319 20.8013 37.9347 20.9966 38.2146C21.192 38.4945 21.4198 38.7973 21.6802 39.1228C21.9407 39.3832 22.2271 39.6078 22.5396 39.7966C22.8521 39.9854 23.1646 40.1449 23.4771 40.2751C23.8026 40.4054 24.164 40.5095 24.5611 40.5876C24.9582 40.6658 25.4172 40.7374 25.938 40.8025C26.4589 40.8025 26.9374 40.8025 27.3736 40.8025C27.8098 40.8025 28.705 40.8025 30.0591 40.8025C31.4133 40.8025 32.3117 40.8025 32.7545 40.8025C33.1972 40.8025 33.6789 40.8025 34.1998 40.8025C34.7076 40.8025 35.1601 40.7472 35.5572 40.6365C35.9543 40.5258 36.3157 40.4054 36.6412 40.2751C36.9667 40.1449 37.2694 39.9854 37.5494 39.7966C37.8293 39.6078 38.1321 39.3832 38.4576 39.1228C38.718 38.8624 38.9426 38.5759 39.1314 38.2634C39.3202 37.9509 39.4797 37.6319 39.6099 37.3064C39.7401 36.9809 39.8443 36.6195 39.9224 36.2224C40.0005 35.8253 40.0722 35.3728 40.1373 34.865C40.1373 34.3442 40.1373 33.8624 40.1373 33.4197C40.1373 32.977 40.1373 32.0785 40.1373 30.7244C40.1373 29.3702 40.1373 28.475 40.1373 28.0388C40.1373 27.6026 40.1373 27.1241 40.1373 26.6033C40.1373 26.0824 40.0819 25.6235 39.9713 25.2263C39.8606 24.8292 39.7401 24.4679 39.6099 24.1423C39.4797 23.8298 39.3202 23.5336 39.1314 23.2537C38.9426 22.9737 38.718 22.671 38.4576 22.3455C38.1972 22.085 37.9107 21.8572 37.5982 21.6619C37.2857 21.4666 36.9667 21.3038 36.6412 21.1736C36.2636 21.0564 35.8892 20.9587 35.5181 20.8806C35.147 20.8025 34.7076 20.7309 34.1998 20.6658C33.6138 20.6658 33.1158 20.6658 32.7056 20.6658C32.2955 20.6658 31.4133 20.6658 30.0591 20.6658ZM30.0591 25.5681C29.356 25.5681 28.692 25.7048 28.067 25.9783C27.442 26.2517 26.8951 26.6228 26.4263 27.0916C25.9576 27.5603 25.5865 28.1072 25.313 28.7322C25.0396 29.3572 24.9029 30.0212 24.9029 30.7244C24.9029 31.4405 25.0396 32.1111 25.313 32.7361C25.5865 33.3611 25.9576 33.908 26.4263 34.3767C26.8951 34.8455 27.442 35.2166 28.067 35.49C28.692 35.7634 29.356 35.9001 30.0591 35.9001C30.7753 35.9001 31.4459 35.7634 32.0709 35.49C32.6959 35.2166 33.2427 34.8455 33.7115 34.3767C34.1802 33.908 34.5513 33.3611 34.8248 32.7361C35.0982 32.1111 35.2349 31.4405 35.2349 30.7244C35.1959 30.0212 35.0396 29.3572 34.7662 28.7322C34.4927 28.1072 34.1249 27.5603 33.6627 27.0916C33.2004 26.6228 32.6633 26.2517 32.0513 25.9783C31.4394 25.7048 30.7753 25.5681 30.0591 25.5681ZM30.0591 33.947C29.1607 33.947 28.3795 33.615 27.7154 32.9509C27.0513 32.2869 26.7193 31.5056 26.7193 30.6072C26.7193 29.6957 27.0513 28.908 27.7154 28.2439C28.3795 27.5798 29.1607 27.2478 30.0591 27.2478C30.9706 27.2478 31.7584 27.5798 32.4224 28.2439C33.0865 28.908 33.4185 29.6957 33.4185 30.6072C33.3534 31.5707 33.0051 32.3682 32.3736 32.9998C31.7421 33.6313 30.9706 33.947 30.0591 33.947ZM36.524 25.3142C36.524 25.6397 36.4101 25.9132 36.1822 26.1345C35.9543 26.3559 35.6776 26.4666 35.3521 26.4666C35.0266 26.4666 34.7532 26.3559 34.5318 26.1345C34.3104 25.9132 34.1998 25.6397 34.1998 25.3142C34.1998 24.9887 34.3104 24.712 34.5318 24.4841C34.7532 24.2563 35.0266 24.1423 35.3521 24.1423C35.6776 24.1423 35.9543 24.2563 36.1822 24.4841C36.4101 24.712 36.524 24.9887 36.524 25.3142Z" fill="white"/>
</g>
<defs>
<clipPath id="clip0_60_235">
<rect width="20" height="20" fill="white" transform="matrix(1 0 0 -1 20.0005 40.6658)"/>
</clipPath>
</defs>
</svg>
