<svg width="45" height="48" viewBox="0 0 45 48" fill="none" xmlns="http://www.w3.org/2000/svg">
<rect x="0.5" y="1.26221" width="44" height="45.6005" rx="22" stroke="white"/>
<path d="M35 15.2497C34.0971 15.6742 33.142 15.9562 32.1643 16.087C33.195 15.4291 33.9654 14.3868 34.3295 13.1578C33.3648 13.7742 32.3092 14.2083 31.2085 14.4413C30.534 13.6648 29.658 13.1247 28.6945 12.8914C27.731 12.658 26.7245 12.7422 25.806 13.1329C24.8876 13.5236 24.0996 14.2029 23.5445 15.0822C22.9895 15.9616 22.6932 17.0004 22.694 18.0635C22.6905 18.4693 22.729 18.8742 22.8086 19.2709C20.8506 19.1673 18.9349 18.6203 17.1866 17.6655C15.4384 16.7108 13.8969 15.3697 12.6629 13.73C12.0286 14.8965 11.8321 16.2797 12.1135 17.5969C12.395 18.9141 13.1331 20.0659 14.1771 20.8168C13.3979 20.7942 12.6351 20.5701 11.9534 20.1633V20.221C11.9556 21.4437 12.3487 22.6283 13.0667 23.5757C13.7847 24.5231 14.7838 25.1755 15.8961 25.4233C15.4752 25.5423 15.0414 25.6006 14.6062 25.5965C14.2929 25.6027 13.9798 25.5728 13.6724 25.5073C13.991 26.5588 14.6045 27.4782 15.4284 28.1391C16.2523 28.7999 17.2462 29.1697 18.2734 29.1977C16.5328 30.6622 14.387 31.4578 12.1777 31.4576C11.784 31.4612 11.3906 31.4366 11 31.3841C13.2527 32.9475 15.8784 33.7736 18.5587 33.7621C27.6169 33.7621 32.569 25.6857 32.569 18.6855C32.569 18.4519 32.569 18.2262 32.552 18.0005C33.5164 17.2512 34.3459 16.3191 35 15.2497Z" fill="white"/>
</svg>
