<svg width="60" height="61" viewBox="0 0 60 61" fill="none" xmlns="http://www.w3.org/2000/svg">
<rect x="0.000549316" y="0.665771" width="60" height="60" rx="30" fill="#DC052D"/>
<g clip-path="url(#clip0_60_244)">
<path d="M40.0005 25.0798C39.636 25.2491 39.2551 25.3891 38.858 25.4998C38.4608 25.6104 38.0539 25.6853 37.6373 25.7244C38.067 25.477 38.438 25.158 38.7505 24.7673C39.063 24.3767 39.2974 23.9405 39.4537 23.4587C39.05 23.6931 38.6301 23.8949 38.1939 24.0642C37.7577 24.2335 37.3052 24.3637 36.8365 24.4548C36.4719 24.0642 36.0292 23.7517 35.5084 23.5173C34.9875 23.283 34.4341 23.1658 33.8482 23.1658C33.2883 23.1658 32.7545 23.2699 32.2466 23.4783C31.7519 23.6996 31.3189 23.9958 30.9478 24.3669C30.5767 24.738 30.287 25.171 30.0787 25.6658C29.8573 26.1606 29.7466 26.6944 29.7466 27.2673C29.7466 27.4236 29.7564 27.5798 29.7759 27.7361C29.7955 27.8923 29.8183 28.0486 29.8443 28.2048C28.9979 28.1658 28.1776 28.0356 27.3834 27.8142C26.5761 27.5929 25.8144 27.2966 25.0982 26.9255C24.3821 26.5544 23.7115 26.115 23.0865 25.6072C22.4615 25.0994 21.8951 24.533 21.3873 23.908C21.218 24.2074 21.0845 24.533 20.9869 24.8845C20.8892 25.2361 20.8404 25.6007 20.8404 25.9783C20.8404 26.6814 21.0064 27.3324 21.3384 27.9314C21.6705 28.5304 22.1099 29.0186 22.6568 29.3962C22.3313 29.3832 22.009 29.3311 21.69 29.24C21.371 29.1488 21.0748 29.0251 20.8013 28.8689C20.8013 28.8819 20.8013 28.8917 20.8013 28.8982C20.8013 28.9047 20.8013 28.9145 20.8013 28.9275C20.8013 29.9171 21.1171 30.7895 21.7486 31.5447C22.3801 32.2999 23.1646 32.7686 24.1021 32.9509C23.9328 33.003 23.7571 33.0388 23.5748 33.0583C23.3925 33.0779 23.2037 33.0876 23.0084 33.0876C22.8782 33.0876 22.7512 33.0811 22.6275 33.0681C22.5038 33.0551 22.3769 33.0421 22.2466 33.0291C22.5071 33.8363 22.9856 34.5069 23.6822 35.0408C24.3788 35.5746 25.1763 35.8546 26.0748 35.8806C25.3716 36.4275 24.5871 36.8572 23.7213 37.1697C22.8554 37.4822 21.9407 37.6384 20.9771 37.6384C20.8078 37.6384 20.6418 37.6319 20.4791 37.6189C20.3163 37.6059 20.1568 37.5929 20.0005 37.5798C20.4563 37.8663 20.9315 38.1267 21.4263 38.3611C21.9211 38.5824 22.4322 38.7712 22.9595 38.9275C23.4869 39.0837 24.0305 39.2074 24.5904 39.2986C25.1503 39.3767 25.7167 39.4158 26.2896 39.4158C28.1776 39.4158 29.8443 39.0642 31.2896 38.3611C32.7479 37.6449 33.9719 36.727 34.9615 35.6072C35.9511 34.4874 36.6998 33.2374 37.2076 31.8572C37.7154 30.4639 37.9693 29.0903 37.9693 27.7361C37.9693 27.6449 37.966 27.557 37.9595 27.4724C37.953 27.3878 37.9498 27.2999 37.9498 27.2087C38.3534 26.9223 38.7278 26.6 39.0728 26.2419C39.4179 25.8839 39.7271 25.4965 40.0005 25.0798Z" fill="white"/>
</g>
<defs>
<clipPath id="clip0_60_244">
<rect width="20" height="20" fill="white" transform="matrix(1 0 0 -1 20.0005 40.6658)"/>
</clipPath>
</defs>
</svg>
