<svg width="45" height="48" viewBox="0 0 45 48" fill="none" xmlns="http://www.w3.org/2000/svg">
<rect x="0.5" y="1.34985" width="44" height="45.6005" rx="22" stroke="white"/>
<path d="M34.2921 17.1628C33.9931 15.7406 32.9304 14.6913 31.6512 14.5347C28.6219 14.1645 25.5559 14.1626 22.5039 14.1645C19.4514 14.1626 16.3848 14.1645 13.3556 14.5347C12.0771 14.6913 11.0152 15.7406 10.7162 17.1628C10.2905 19.1882 10.2857 21.3992 10.2857 23.4845C10.2857 25.5699 10.2857 27.7806 10.7114 29.8057C11.0099 31.2277 12.072 32.277 13.3513 32.4338C16.3803 32.8043 19.4466 32.8062 22.4991 32.8043C25.5521 32.8062 28.6177 32.8043 31.6464 32.4338C32.9249 32.2773 33.9878 31.228 34.2868 29.8057C34.7128 27.7803 34.7143 25.5696 34.7143 23.4845C34.7143 21.3992 34.7178 19.1882 34.2921 17.1628ZM19.3475 27.6353V18.7913C21.9362 20.2699 24.525 21.7485 27.1137 23.227C24.5164 24.7017 21.9433 26.1617 19.3475 27.6353Z" fill="white"/>
</svg>
