<svg width="60" height="61" viewBox="0 0 60 61" fill="none" xmlns="http://www.w3.org/2000/svg">
<rect x="0.000549316" y="0.665771" width="60" height="60" rx="30" fill="#DC052D"/>
<g clip-path="url(#clip0_60_238)">
<path d="M27.9302 33.4392L33.3404 30.6462L27.9302 27.8142V33.4392ZM30.0005 23.8103C31.0552 23.8103 32.0123 23.8233 32.8716 23.8494C33.731 23.8624 34.4667 23.8819 35.0787 23.908C35.6907 23.934 36.1659 23.96 36.5045 23.9861C36.83 23.9991 36.9927 24.0056 36.9927 24.0056C37.188 24.0317 37.4778 24.0805 37.8619 24.1521C38.246 24.2237 38.6269 24.4613 39.0045 24.865C39.0045 24.865 39.1151 25.0212 39.3365 25.3337C39.5578 25.6462 39.7141 26.1541 39.8052 26.8572C39.9094 27.6645 39.968 28.4034 39.981 29.074C39.994 29.7445 40.0005 30.0798 40.0005 30.0798V31.6033C40.0005 31.6033 39.994 31.9418 39.981 32.6189C39.968 33.296 39.9094 34.0382 39.8052 34.8455C39.7141 35.5225 39.5578 36.0206 39.3365 36.3396C39.1151 36.6586 39.0045 36.8181 39.0045 36.8181C38.6269 37.2218 38.246 37.4594 37.8619 37.531C37.4778 37.6026 37.188 37.6449 36.9927 37.658C36.9927 37.658 36.83 37.671 36.5045 37.697C36.1659 37.7231 35.6907 37.7491 35.0787 37.7751C34.4667 37.8012 33.731 37.8207 32.8716 37.8337C32.0123 37.8598 31.0552 37.8728 30.0005 37.8728C27.3964 37.8468 25.6125 37.8077 24.649 37.7556C23.6854 37.7035 23.2037 37.6775 23.2037 37.6775C22.9823 37.6384 22.6535 37.5863 22.2173 37.5212C21.7811 37.4561 21.3742 37.2218 20.9966 36.8181C20.9966 36.8181 20.886 36.6586 20.6646 36.3396C20.4433 36.0206 20.287 35.5225 20.1959 34.8455C20.0917 34.0382 20.0331 33.296 20.0201 32.6189C20.0071 31.9418 20.0005 31.6033 20.0005 31.6033V30.0798C20.0005 30.0798 20.0071 29.7445 20.0201 29.074C20.0331 28.4034 20.0917 27.6645 20.1959 26.8572C20.287 26.1541 20.4433 25.6462 20.6646 25.3337C20.886 25.0212 20.9966 24.865 20.9966 24.865C21.3742 24.4613 21.7551 24.2237 22.1392 24.1521C22.5233 24.0805 22.813 24.0317 23.0084 24.0056C23.0084 24.0056 23.1711 23.9991 23.4966 23.9861C23.8352 23.96 24.3104 23.934 24.9224 23.908C25.5344 23.8819 26.2701 23.8624 27.1295 23.8494C27.9888 23.8233 28.9459 23.8103 30.0005 23.8103Z" fill="white"/>
</g>
<defs>
<clipPath id="clip0_60_238">
<rect width="20" height="20" fill="white" transform="matrix(1 0 0 -1 20.0005 40.6658)"/>
</clipPath>
</defs>
</svg>
